<svg width="206" height="206" viewBox="0 0 206 206" fill="none" xmlns="http://www.w3.org/2000/svg">
    <path d="M178.437 118.588C186.487 119.432 197.014 125.161 204.735 119.157C193.731 117.174 182.875 111.501 172.733 107.7C183.131 103.404 196.886 112.125 206 103.018C194.795 102.78 183.223 98.8874 172.605 96.7025C182.215 90.8456 197.161 97.3084 204.735 86.8799C193.621 88.4037 181.591 86.3658 170.753 85.8884C179.335 78.5444 195.107 82.6203 200.957 71.2004C190.229 74.4685 178.015 74.3216 167.25 75.5517C174.586 66.9959 190.779 68.5198 194.758 56.2553C184.654 61.139 172.587 62.9383 162.134 65.8209C168.039 56.2186 184.287 55.1904 186.304 42.4485C177.135 48.8745 165.453 52.5282 155.587 57.008C159.915 46.5979 175.759 43.036 175.759 30.1472C167.672 37.9135 156.742 43.3481 147.701 49.3335C150.342 38.3175 165.49 32.3688 163.472 19.6269C156.705 28.5866 146.747 35.6553 138.752 42.9809C139.65 31.7446 153.661 23.4458 149.755 11.1813C144.473 21.059 135.744 29.5414 128.995 38.0971C128.133 26.8608 140.659 16.469 134.827 5.04902C131.159 15.6611 123.824 25.4654 118.524 34.9025C115.92 23.8865 126.666 11.7137 119.092 1.26684C117.13 12.2829 111.463 23.1521 107.667 33.3052C103.376 22.895 112.087 9.12496 102.991 0C102.752 11.218 98.8646 22.8032 96.6823 33.4337C90.8322 23.813 97.2875 8.84955 86.871 1.26684C88.3931 12.393 86.3575 24.4556 85.8807 35.2881C78.5452 26.6955 82.6164 10.9059 71.2096 5.04902C74.4556 15.7897 74.3273 28.0175 75.556 38.7948C67.0101 31.4508 68.5322 15.2389 56.2818 11.2547C61.16 21.3528 62.9572 33.4521 65.8364 43.8989C56.1535 37.8401 55.0531 21.5731 42.3994 19.5535C48.7996 28.7335 52.4674 40.4289 56.942 50.3066C46.5439 45.9736 42.9862 30.1105 30.1124 30.1105C37.8697 38.2073 43.298 49.1499 49.2764 58.2014C38.2731 55.5576 32.3313 40.4105 19.6042 42.4118C28.5352 49.1866 35.614 59.1561 42.9312 67.1611C31.7078 66.2615 23.4187 52.2344 11.1683 56.1451C21.0346 61.4328 29.5072 70.1722 38.0531 76.9287C26.8297 77.7916 16.4499 65.2517 5.04318 71.0902C15.643 74.7622 25.436 82.1062 34.8621 87.4307C23.8588 90.0378 11.7002 79.2604 1.26538 86.8431C12.2687 88.8077 23.1253 94.4809 33.2666 98.2998C22.8685 102.578 9.1144 93.8567 0 102.982C11.205 103.202 22.7768 107.113 33.395 109.279C23.7854 115.136 8.83931 108.673 1.26538 119.12C12.3787 117.578 24.409 119.616 35.2472 120.112C26.6646 127.456 10.8933 123.361 5.04318 134.8C15.7714 131.55 27.985 131.678 38.7499 130.448C31.4144 139.004 15.2212 137.48 11.2417 149.745C21.3281 144.861 33.4133 143.08 43.8481 140.179C37.943 149.781 21.6948 150.81 19.6776 163.552C28.847 157.144 40.5288 153.49 50.3951 148.992C46.0671 159.402 30.2224 162.964 30.2224 175.853C38.3098 168.086 49.2397 162.652 58.2808 156.667C55.64 167.683 40.4921 173.631 42.5094 186.373C49.2764 177.432 59.2344 170.345 67.2301 163.019C66.3315 174.255 52.3207 182.554 56.2268 194.837C61.5084 184.941 70.2377 176.385 76.9864 167.903C77.8483 179.139 65.3229 189.531 71.1546 200.951C74.8224 190.357 82.1579 180.535 87.4578 171.098C90.062 182.114 79.3154 194.286 86.8893 204.733C88.8516 193.717 94.5183 182.848 98.3144 172.695C102.606 183.123 93.8948 196.875 103.009 206C103.229 194.782 107.117 183.197 109.299 172.566C115.149 182.187 108.694 197.15 119.111 204.733C117.589 193.607 119.624 181.563 120.119 170.73C127.455 179.304 123.365 195.094 134.79 200.951C131.544 190.21 131.673 177.983 130.444 167.205C138.99 174.549 137.468 190.761 149.718 194.745C144.84 184.629 143.043 172.548 140.164 162.083C149.755 167.995 150.782 184.262 163.509 186.281C157.109 177.101 153.441 165.406 148.966 155.528C159.364 159.861 162.922 175.724 175.796 175.724C168.039 167.646 162.61 156.685 156.632 147.633C167.635 150.277 173.577 165.443 186.304 163.423C177.373 156.648 170.294 146.679 162.977 138.674C174.2 139.573 182.49 153.6 194.758 149.69C184.874 144.402 176.328 135.663 167.855 128.906C179.079 128.043 189.458 140.583 200.865 134.745C190.284 131.073 180.472 123.729 171.046 118.422C173.447 117.763 175.981 117.763 178.382 118.422" fill="white"/>
</svg>
