<svg width="110" height="121" viewBox="0 0 110 121" fill="none" xmlns="http://www.w3.org/2000/svg">
    <path d="M98.2458 82.3028L82.7955 75.6708L76.5688 91.2393L70.4087 75.8366L54.9584 82.4685L61.618 67.0991L46.0012 60.8982L61.618 54.6974L54.9584 39.3113L70.4087 45.9432L76.6187 30.3748L82.8455 45.9267L98.2957 39.2948L91.6361 54.6808L107.253 60.8816L91.6361 67.0825L98.2458 82.3028ZM75.4866 11.7723C48.6984 11.7723 25.5396 32.5468 25.5396 60.5335C25.5396 88.5202 49.0813 109.278 75.4866 109.278C88.2122 109.284 100.48 104.553 109.883 96.0143C100.843 110.555 78.2503 121 65.3474 121H56.0905C51.7086 120.418 47.3663 119.57 43.0876 118.463C34.0303 115.698 25.7312 110.9 18.83 104.437C7.89163 94.4889 0 76.0356 0 64.4463V56.5212C0 51.2819 3.03011 40.9859 4.79491 36.7912C7.42111 30.3675 11.2329 24.4907 16.033 19.4653C30.0848 4.97456 46.1011 0.000615607 60.7356 0.000615607C72.9196 -0.0543793 84.8331 3.57653 94.8993 10.4127C99.8941 13.7287 106.703 19.8632 110 25.2351C100.651 16.5124 88.2977 11.6938 75.4866 11.7723Z" fill="#E54545"/>
</svg>
