<svg width="124" height="98" viewBox="0 0 124 98" fill="none" xmlns="http://www.w3.org/2000/svg">
<g clip-path="url(#clip0_365_11)">
<path d="M123.5 91.875C123.5 95.2571 120.746 98 117.35 98H105.05C101.654 98 98.9 95.2571 98.9 91.875V30.625H123.5V91.875ZM12.1927 55.125C8.76022 51.7964 6.65 47.9779 6.65 43.8493C6.65 33.7315 14.6815 25.8973 23.5471 20.3254C31.6075 15.2589 39.0432 9.26789 45.0644 1.90832L46.625 0L48.1856 1.90832C54.2068 9.26789 61.6406 15.2608 69.7029 20.3254C78.5685 25.8973 86.6 33.7315 86.6 43.8493C86.6 47.9779 84.4898 51.7964 81.0573 55.125H12.1927ZM6.65 61.25H86.6C89.996 61.25 92.75 63.9929 92.75 67.375V91.875C92.75 95.2571 89.996 98 86.6 98H80.45V85.75C80.45 82.3679 77.696 79.625 74.3 79.625C70.904 79.625 68.15 82.3679 68.15 85.75V98H55.85V84.2188C55.85 75.0312 46.625 70.4375 46.625 70.4375C46.625 70.4375 37.4 75.0312 37.4 84.2188V98H25.1V85.75C25.1 82.3679 22.346 79.625 18.95 79.625C15.554 79.625 12.8 82.3679 12.8 85.75V98H6.65C3.25404 98 0.499998 95.2571 0.499998 91.875V67.375C0.499998 63.9929 3.25404 61.25 6.65 61.25ZM111.2 0C111.2 0 123.5 6.125 123.5 18.375V24.5H98.9V18.375C98.9 6.125 111.2 0 111.2 0Z" fill="white" fill-opacity="0.12"/>
</g>
<defs>
<clipPath id="clip0_365_11">
<rect width="123" height="98" fill="white" transform="matrix(-1 0 0 1 123.5 0)"/>
</clipPath>
</defs>
</svg>
