<svg width="204" height="205" viewBox="0 0 204 205" fill="none" xmlns="http://www.w3.org/2000/svg">
<g filter="url(#filter0_d_109_19106)">
<rect x="64.1017" y="60.5002" width="75.5085" height="75.5085" rx="37.7542" fill="url(#paint0_radial_109_19106)" shape-rendering="crispEdges"/>
<path d="M121.765 102.368C123.889 102.591 126.667 104.103 128.705 102.519C125.801 101.995 122.936 100.498 120.259 99.495C123.004 98.3612 126.634 100.663 129.039 98.2594C126.082 98.1964 123.028 97.1692 120.226 96.5926C122.762 95.0469 126.706 96.7525 128.705 94.0003C125.772 94.4024 122.597 93.8646 119.737 93.7386C122.002 91.8004 126.164 92.8761 127.708 89.8622C124.877 90.7247 121.653 90.686 118.812 91.0106C120.748 88.7526 125.022 89.1548 126.072 85.918C123.405 87.2069 120.221 87.6818 117.462 88.4425C119.02 85.9083 123.309 85.637 123.841 82.2742C121.421 83.9702 118.338 84.9344 115.734 86.1167C116.876 83.3693 121.058 82.4293 121.058 79.0278C118.924 81.0774 116.039 82.5117 113.653 84.0913C114.35 81.184 118.348 79.6141 117.815 76.2513C116.029 78.6159 113.401 80.4814 111.291 82.4148C111.528 79.4493 115.226 77.2592 114.195 74.0224C112.801 76.6293 110.497 78.8679 108.716 81.1259C108.489 78.1604 111.795 75.4179 110.256 72.404C109.288 75.2047 107.352 77.7922 105.953 80.2828C105.266 77.3755 108.102 74.1629 106.103 71.4059C105.585 74.3131 104.09 77.1817 103.088 79.8612C101.955 77.1138 104.254 73.4797 101.854 71.0715C101.791 74.0321 100.765 77.0896 100.189 79.8951C98.6447 77.3561 100.348 73.407 97.5993 71.4059C98.001 74.3422 97.4638 77.5257 97.3379 80.3845C95.402 78.1168 96.4764 73.9497 93.466 72.404C94.3227 75.2386 94.2888 78.4657 94.6131 81.31C92.3577 79.3718 92.7594 75.0933 89.5264 74.0418C90.8138 76.7068 91.2881 79.9 92.048 82.657C89.4925 81.058 89.2021 76.765 85.8626 76.232C87.5517 78.6547 88.5197 81.7412 89.7006 84.3481C86.9564 83.2046 86.0175 79.0181 82.6199 79.0181C84.6672 81.1549 86.0998 84.0428 87.6776 86.4317C84.7737 85.7339 83.2055 81.7364 79.8467 82.2646C82.2037 84.0525 84.0719 86.6836 86.003 88.7962C83.041 88.5588 80.8534 84.8569 77.6204 85.889C80.2242 87.2845 82.4602 89.5909 84.7156 91.374C81.7536 91.6018 79.0142 88.2923 76.0038 89.8332C78.8013 90.8023 81.3858 92.7404 83.8734 94.1456C80.9695 94.8337 77.7607 91.9894 75.0068 93.9906C77.9107 94.509 80.7759 96.0063 83.4524 97.0141C80.7082 98.1431 77.0783 95.8415 74.6729 98.2497C77.63 98.3079 80.684 99.34 83.4863 99.9117C80.9502 101.457 77.0057 99.7518 75.0068 102.509C77.9398 102.102 81.1147 102.64 83.9751 102.771C81.71 104.709 77.5478 103.628 76.0038 106.647C78.8352 105.789 82.0585 105.823 84.8995 105.499C82.9636 107.757 78.69 107.354 77.6397 110.591C80.3016 109.302 83.4911 108.832 86.245 108.067C84.6865 110.601 80.3984 110.872 79.866 114.235C82.286 112.544 85.369 111.58 87.9728 110.392C86.8306 113.14 82.649 114.08 82.649 117.481C84.7833 115.432 87.6679 113.997 90.0539 112.418C89.357 115.325 85.3593 116.895 85.8917 120.258C87.6776 117.898 90.3056 116.028 92.4158 114.094C92.1786 117.06 88.481 119.25 89.5119 122.492C90.9058 119.88 93.2095 117.622 94.9906 115.383C95.2181 118.349 91.9124 121.091 93.4515 124.105C94.4195 121.309 96.3554 118.717 97.7542 116.226C98.4414 119.134 95.6053 122.346 97.6041 125.103C98.122 122.196 99.6175 119.327 100.619 116.648C101.752 119.4 99.4529 123.029 101.858 125.438C101.916 122.477 102.942 119.42 103.518 116.614C105.062 119.153 103.359 123.102 106.108 125.103C105.706 122.167 106.243 118.988 106.374 116.129C108.31 118.392 107.231 122.559 110.246 124.105C109.389 121.271 109.423 118.043 109.099 115.199C111.354 117.137 110.952 121.416 114.185 122.467C112.898 119.798 112.424 116.609 111.664 113.847C114.195 115.408 114.466 119.701 117.825 120.234C116.136 117.811 115.168 114.724 113.987 112.117C116.731 113.261 117.67 117.447 121.068 117.447C119.02 115.315 117.588 112.423 116.01 110.034C118.914 110.732 120.482 114.734 123.841 114.201C121.484 112.413 119.616 109.782 117.685 107.669C120.647 107.907 122.834 111.609 126.072 110.577C123.463 109.181 121.208 106.875 118.972 105.092C121.934 104.864 124.673 108.173 127.684 106.632C124.891 105.663 122.302 103.725 119.814 102.325C120.448 102.151 121.117 102.151 121.75 102.325M112.104 104.544L107.613 102.606L105.803 107.156L104.012 102.654L99.5207 104.592L101.457 100.101L96.9169 98.2885L101.457 96.4763L99.5207 91.9797L104.012 93.9179L105.817 89.368L107.627 93.913L112.119 91.9749L110.183 96.4715L114.723 98.2837L110.183 100.096L112.104 104.544ZM105.488 83.9314C97.7009 83.9314 90.9687 90.0028 90.9687 98.1819C90.9687 106.361 97.8122 112.428 105.488 112.428C109.188 112.429 112.754 111.047 115.487 108.551C112.859 112.801 106.292 115.853 102.541 115.853H99.8498C98.576 115.683 97.3137 115.435 96.0699 115.112C93.4369 114.304 91.0244 112.901 89.0182 111.013C85.8384 108.105 83.5443 102.712 83.5443 99.3254V97.0093C83.5443 95.4781 84.4252 92.4691 84.9382 91.2432C85.7016 89.3659 86.8097 87.6484 88.2051 86.1797C92.29 81.9448 96.9459 80.4911 101.2 80.4911C104.742 80.475 108.205 81.5362 111.132 83.5341C112.583 84.5032 114.563 86.296 115.521 87.8659C112.803 85.3167 109.212 83.9085 105.488 83.9314Z" fill="white"/>
</g>
<defs>
<filter id="filter0_d_109_19106" x="0.101685" y="0.500244" width="203.508" height="203.509" filterUnits="userSpaceOnUse" color-interpolation-filters="sRGB">
<feFlood flood-opacity="0" result="BackgroundImageFix"/>
<feColorMatrix in="SourceAlpha" type="matrix" values="0 0 0 0 0 0 0 0 0 0 0 0 0 0 0 0 0 0 127 0" result="hardAlpha"/>
<feOffset dy="4"/>
<feGaussianBlur stdDeviation="32"/>
<feComposite in2="hardAlpha" operator="out"/>
<feColorMatrix type="matrix" values="0 0 0 0 0.937255 0 0 0 0 0.298039 0 0 0 0 0.368627 0 0 0 0.5 0"/>
<feBlend mode="normal" in2="BackgroundImageFix" result="effect1_dropShadow_109_19106"/>
<feBlend mode="normal" in="SourceGraphic" in2="effect1_dropShadow_109_19106" result="shape"/>
</filter>
<radialGradient id="paint0_radial_109_19106" cx="0" cy="0" r="1" gradientUnits="userSpaceOnUse" gradientTransform="translate(84.1586 141.824) rotate(-90) scale(74.8345 69.602)">
<stop stop-color="#D0A90E"/>
<stop offset="0.1" stop-color="#FACB13"/>
<stop offset="0.5" stop-color="#FF543E"/>
<stop offset="1" stop-color="#C837AB"/>
</radialGradient>
</defs>
</svg>
