<svg width="381" height="56" viewBox="0 0 381 56" fill="none" xmlns="http://www.w3.org/2000/svg">
    <path d="M48.5071 32.2374C50.6956 32.467 53.5572 34.0242 55.656 32.3922C52.6648 31.8531 49.7135 30.3109 46.9566 29.2777C49.7833 28.1098 53.5223 30.4806 56 28.005C52.954 27.9401 49.8082 26.882 46.9217 26.2881C49.534 24.6959 53.5971 26.4528 55.656 23.6178C52.6349 24.0321 49.3646 23.4781 46.4182 23.3483C48.7514 21.3519 53.0387 22.4599 54.629 19.3554C51.7126 20.2439 48.3924 20.2039 45.466 20.5383C47.4602 18.2125 51.8622 18.6267 52.944 15.2927C50.1971 16.6203 46.9168 17.1095 44.0751 17.8931C45.6804 15.2827 50.0974 15.0032 50.6458 11.5394C48.1531 13.2863 44.9775 14.2795 42.2954 15.4973C43.4719 12.6674 47.7792 11.6991 47.7792 8.19536C45.5807 10.3066 42.6094 11.784 40.1517 13.4111C40.8696 10.4164 44.9874 8.79929 44.4391 5.33547C42.5995 7.77112 39.8925 9.69269 37.7189 11.6841C37.9631 8.62959 41.7719 6.37362 40.7101 3.03957C39.2743 5.72478 36.9013 8.03066 35.0667 10.3565C34.8324 7.30196 38.2373 4.47701 36.652 1.37255C35.6549 4.2574 33.6608 6.92264 32.2201 9.48806C31.5122 6.4934 34.4335 3.18431 32.3746 0.344384C31.8412 3.33904 30.3007 6.29376 29.2688 9.05383C28.1022 6.22389 30.4702 2.48057 27.9975 0C27.9327 3.04955 26.8758 6.19893 26.2826 9.08877C24.6922 6.47344 26.4471 2.4057 23.6154 0.344384C24.0292 3.36898 23.4758 6.64813 23.3462 9.59287C21.3521 7.25704 22.4588 2.96471 19.358 1.37255C20.2404 4.29234 20.2055 7.6164 20.5395 10.5462C18.2163 8.54973 18.6301 4.1426 15.2999 3.05954C16.626 5.80464 17.1146 9.09376 17.8973 11.9337C15.265 10.2866 14.9659 5.86453 11.526 5.31551C13.2659 7.81105 14.263 10.9904 15.4794 13.6756C12.6527 12.4977 11.6856 8.18538 8.18588 8.18538C10.2947 10.3865 11.7703 13.3611 13.3955 15.8217C10.4043 15.103 8.7891 10.9854 5.3293 11.5294C7.75714 13.3711 9.68147 16.0813 11.6706 18.2574C8.6196 18.0128 6.36624 14.1996 3.03605 15.2627C5.71815 16.7002 8.02137 19.0759 10.3445 20.9127C7.29351 21.1472 4.47182 17.7383 1.37096 19.3255C4.25247 20.3237 6.91463 22.3201 9.47708 23.7676C6.48589 24.4763 3.18063 21.5465 0.343986 23.6078C3.33517 24.1419 6.28648 25.6841 9.04335 26.7223C6.21668 27.8852 2.4777 25.5144 0 27.995C3.04603 28.0549 6.19176 29.118 9.07825 29.707C6.46595 31.2991 2.40292 29.5423 0.343986 32.3822C3.36508 31.9629 6.63545 32.5169 9.58177 32.6517C7.24864 34.6481 2.96127 33.5351 1.37096 36.6446C4.28737 35.7611 7.60759 35.7961 10.534 35.4617C8.53984 37.7875 4.13781 37.3733 3.056 40.7073C5.79792 39.3797 9.08324 38.8955 11.9199 38.107C10.3146 40.7173 5.89762 40.9968 5.34924 44.4606C7.84189 42.7187 11.0175 41.7255 13.6996 40.5027C12.5231 43.3326 8.21579 44.3009 8.21579 47.8046C10.4143 45.6934 13.3856 44.216 15.8433 42.589C15.1254 45.5836 11.0076 47.2007 11.556 50.6645C13.3955 48.2339 16.1026 46.3073 18.2761 44.3159C18.0319 47.3704 14.2231 49.6264 15.285 52.9654C16.7207 50.2752 19.0937 47.9494 20.9283 45.6435C21.1626 48.698 17.7577 51.523 19.343 54.6275C20.3401 51.7476 22.3342 49.0774 23.7749 46.5119C24.4829 49.5066 21.5615 52.8157 23.6204 55.6556C24.1538 52.661 25.6943 49.7062 26.7263 46.9462C27.8928 49.7811 25.5248 53.5194 28.0025 56C28.0623 52.9504 29.1192 49.8011 29.7125 46.9112C31.3028 49.5266 29.5479 53.5943 32.3796 55.6556C31.9658 52.631 32.5192 49.3569 32.6538 46.4121C34.6479 48.743 33.5362 53.0353 36.642 54.6275C35.7596 51.7077 35.7945 48.3836 35.4605 45.4538C37.7837 47.4503 37.3699 51.8574 40.7001 52.9405C39.374 50.1904 38.8854 46.9062 38.1027 44.0613C40.7101 45.6685 40.9892 50.0906 44.449 50.6396C42.7092 48.144 41.7121 44.9647 40.4957 42.2795C43.3223 43.4574 44.2895 47.7697 47.7892 47.7697C45.6804 45.5736 44.2048 42.5939 42.5795 40.1333C45.5707 40.8521 47.186 44.9747 50.6458 44.4257C48.2179 42.584 46.2936 39.8738 44.3045 37.6977C47.3555 37.9422 49.6088 41.7554 52.944 40.6923C50.2569 39.2549 47.9338 36.8792 45.6306 35.0424C48.6816 34.8078 51.5032 38.2168 54.6041 36.6296C51.7276 35.6314 49.0604 33.6349 46.498 32.1925C47.1506 32.0133 47.8395 32.0133 48.4921 32.1925M38.5564 34.4784L33.93 32.482L32.0655 37.1686L30.221 32.5319L25.5946 34.5283L27.5887 29.9016L22.9125 28.0349L27.5887 26.1683L25.5946 21.5365L30.221 23.533L32.0805 18.8463L33.945 23.528L38.5714 21.5316L36.5772 26.1633L41.2534 28.0299L36.5772 29.8966L38.5564 34.4784ZM31.7415 13.2463C23.7201 13.2463 16.7855 19.5002 16.7855 27.9251C16.7855 36.3501 23.8348 42.5989 31.7415 42.5989C35.552 42.6007 39.2255 41.1766 42.0411 38.6061C39.3341 42.9833 32.569 46.1276 28.7054 46.1276H25.9336C24.6215 45.9523 23.3213 45.6973 22.0401 45.364C19.328 44.5317 16.8429 43.0871 14.7765 41.1415C11.5011 38.1469 9.13808 32.5918 9.13808 29.103V26.7173C9.13808 25.1401 10.0454 22.0406 10.5738 20.7779C11.3602 18.8441 12.5016 17.075 13.9389 15.5622C18.1465 11.2 22.9424 9.70267 27.3245 9.70267C30.9728 9.68612 34.5402 10.7791 37.5543 12.8371C39.0499 13.8353 41.0889 15.682 42.076 17.2991C39.2765 14.6733 35.5776 13.2227 31.7415 13.2463Z" fill="white"/>
    <path d="M71.64 45.052C72.634 45.052 73.432 44.8 74.034 44.31C74.636 43.806 74.944 43.134 74.944 42.308C74.944 41.804 74.776 41.342 74.594 41.048C74.426 40.726 73.936 40.39 73.656 40.222C73.516 40.124 73.292 40.026 72.998 39.914C72.704 39.788 72.48 39.704 72.326 39.662L71.57 39.396C70.8 39.144 70.24 38.892 69.904 38.654C69.568 38.416 69.4 38.052 69.4 37.562C69.4 36.498 70.212 35.868 71.43 35.868C72.592 35.868 73.39 36.414 73.838 37.492L74.664 37.03C74.118 35.798 72.956 34.916 71.43 34.916C70.576 34.916 69.862 35.154 69.288 35.644C68.714 36.12 68.42 36.778 68.42 37.604C68.42 38.458 68.798 39.102 69.54 39.55C69.862 39.76 70.534 40.026 71.556 40.362C72.41 40.642 73.026 40.908 73.404 41.174C73.782 41.44 73.964 41.818 73.964 42.336C73.964 43.4 73.11 44.1 71.654 44.1C70.156 44.1 69.19 43.386 68.84 42.168L68 42.658C68.504 44.156 69.848 45.052 71.64 45.052Z" fill="white"/>
    <path d="M81.4144 41.552C81.4144 43.33 80.4904 44.156 79.1464 44.156C77.9284 44.156 77.2424 43.428 77.2424 42.182V37.884H76.3184V42.182C76.3184 43.932 77.3684 45.052 79.0624 45.052C80.1124 45.052 80.8964 44.632 81.4144 43.792V44.884H82.3384V37.884H81.4144V41.552Z" fill="white"/>
    <path d="M88.045 37.716C86.799 37.716 85.861 38.234 85.217 39.256V37.884H84.293V47.684H85.217V43.512C85.861 44.534 86.799 45.052 88.045 45.052C89.039 45.052 89.893 44.702 90.593 43.988C91.307 43.274 91.657 42.406 91.657 41.384C91.657 40.362 91.307 39.494 90.593 38.78C89.893 38.066 89.039 37.716 88.045 37.716ZM86.015 43.358C85.483 42.812 85.217 42.154 85.217 41.384C85.217 40.614 85.483 39.956 86.015 39.424C86.547 38.878 87.205 38.612 87.975 38.612C88.745 38.612 89.403 38.878 89.935 39.424C90.467 39.956 90.733 40.614 90.733 41.384C90.733 42.154 90.467 42.812 89.935 43.358C89.403 43.89 88.745 44.156 87.975 44.156C87.205 44.156 86.547 43.89 86.015 43.358Z" fill="white"/>
    <path d="M96.9454 37.716C95.6994 37.716 94.7614 38.234 94.1174 39.256V37.884H93.1934V47.684H94.1174V43.512C94.7614 44.534 95.6994 45.052 96.9454 45.052C97.9394 45.052 98.7934 44.702 99.4934 43.988C100.207 43.274 100.557 42.406 100.557 41.384C100.557 40.362 100.207 39.494 99.4934 38.78C98.7934 38.066 97.9394 37.716 96.9454 37.716ZM94.9154 43.358C94.3834 42.812 94.1174 42.154 94.1174 41.384C94.1174 40.614 94.3834 39.956 94.9154 39.424C95.4474 38.878 96.1054 38.612 96.8754 38.612C97.6454 38.612 98.3034 38.878 98.8354 39.424C99.3674 39.956 99.6334 40.614 99.6334 41.384C99.6334 42.154 99.3674 42.812 98.8354 43.358C98.3034 43.89 97.6454 44.156 96.8754 44.156C96.1054 44.156 95.4474 43.89 94.9154 43.358Z" fill="white"/>
    <path d="M107.96 44.002C108.674 43.288 109.038 42.42 109.038 41.384C109.038 40.348 108.674 39.48 107.96 38.78C107.246 38.066 106.378 37.716 105.356 37.716C104.334 37.716 103.452 38.066 102.738 38.78C102.024 39.48 101.674 40.348 101.674 41.384C101.674 42.42 102.024 43.288 102.738 44.002C103.452 44.702 104.334 45.052 105.356 45.052C106.378 45.052 107.246 44.702 107.96 44.002ZM103.396 43.358C102.864 42.812 102.598 42.154 102.598 41.384C102.598 40.614 102.864 39.956 103.396 39.424C103.928 38.878 104.586 38.612 105.356 38.612C106.126 38.612 106.784 38.878 107.316 39.424C107.848 39.956 108.114 40.614 108.114 41.384C108.114 42.154 107.848 42.812 107.316 43.358C106.784 43.89 106.126 44.156 105.356 44.156C104.586 44.156 103.928 43.89 103.396 43.358Z" fill="white"/>
    <path d="M111.508 37.884H110.584V44.884H111.508V40.992C111.508 39.382 112.446 38.668 113.72 38.668V37.772C112.67 37.772 111.942 38.192 111.508 39.046V37.884Z" fill="white"/>
    <path d="M118.833 37.884H116.817V35.924L115.893 36.204V37.884H114.423V38.78H115.893V43.022C115.893 44.646 116.873 45.178 118.833 44.884V44.072C117.489 44.128 116.817 44.226 116.817 43.022V38.78H118.833V37.884Z" fill="white"/>
    <path d="M123.183 37.716C122.105 37.716 121.237 38.066 120.551 38.766C119.865 39.466 119.529 40.334 119.529 41.384C119.529 42.448 119.879 43.33 120.565 44.016C121.251 44.702 122.147 45.052 123.253 45.052C124.611 45.052 125.717 44.436 126.333 43.442L125.521 42.966C125.129 43.68 124.331 44.156 123.267 44.156C121.769 44.156 120.663 43.26 120.481 41.846H126.627C126.641 41.664 126.655 41.51 126.655 41.412C126.655 40.418 126.333 39.55 125.689 38.822C125.059 38.08 124.219 37.716 123.183 37.716ZM123.183 38.612C123.813 38.612 124.373 38.822 124.849 39.228C125.325 39.634 125.605 40.208 125.703 40.95H120.481C120.663 39.564 121.727 38.612 123.183 38.612Z" fill="white"/>
    <path d="M134.145 39.256C133.501 38.234 132.563 37.716 131.317 37.716C130.323 37.716 129.469 38.066 128.755 38.78C128.055 39.494 127.705 40.362 127.705 41.384C127.705 42.406 128.055 43.274 128.755 43.988C129.469 44.702 130.323 45.052 131.317 45.052C132.563 45.052 133.501 44.534 134.145 43.512V44.884H135.069V35.084H134.145V39.256ZM129.427 43.358C128.895 42.812 128.629 42.154 128.629 41.384C128.629 40.614 128.895 39.956 129.427 39.424C129.959 38.878 130.617 38.612 131.387 38.612C132.157 38.612 132.815 38.878 133.347 39.424C133.879 39.956 134.145 40.614 134.145 41.384C134.145 42.154 133.879 42.812 133.347 43.358C132.815 43.89 132.157 44.156 131.387 44.156C130.617 44.156 129.959 43.89 129.427 43.358Z" fill="white"/>
    <path d="M144.277 37.716C143.031 37.716 142.093 38.234 141.449 39.256V35.084H140.525V44.884H141.449V43.512C142.093 44.534 143.031 45.052 144.277 45.052C145.271 45.052 146.125 44.702 146.825 43.988C147.539 43.274 147.889 42.406 147.889 41.384C147.889 40.362 147.539 39.494 146.825 38.78C146.125 38.066 145.271 37.716 144.277 37.716ZM142.247 43.358C141.715 42.812 141.449 42.154 141.449 41.384C141.449 40.614 141.715 39.956 142.247 39.424C142.779 38.878 143.437 38.612 144.207 38.612C144.977 38.612 145.635 38.878 146.167 39.424C146.699 39.956 146.965 40.614 146.965 41.384C146.965 42.154 146.699 42.812 146.167 43.358C145.635 43.89 144.977 44.156 144.207 44.156C143.437 44.156 142.779 43.89 142.247 43.358Z" fill="white"/>
    <path d="M151.924 43.75L149.292 37.884H148.312L151.448 44.926L151.266 45.36C150.832 46.424 150.188 46.914 149.348 46.816V47.684C150.58 47.782 151.63 46.914 152.176 45.528L155.172 37.884H154.192L151.924 43.75Z" fill="white"/>
    <path d="M159.089 35.084V36.008H162.099V44.884H163.079V36.008H166.089V35.084H159.089Z" fill="white"/>
    <path d="M170.626 37.716C169.576 37.716 168.792 38.136 168.274 38.976V35.084H167.35V44.884H168.274V41.216C168.274 39.438 169.198 38.612 170.542 38.612C171.76 38.612 172.446 39.34 172.446 40.586V44.884H173.37V40.586C173.37 38.836 172.32 37.716 170.626 37.716Z" fill="white"/>
    <path d="M178.39 37.716C177.312 37.716 176.444 38.066 175.758 38.766C175.072 39.466 174.736 40.334 174.736 41.384C174.736 42.448 175.086 43.33 175.772 44.016C176.458 44.702 177.354 45.052 178.46 45.052C179.818 45.052 180.924 44.436 181.54 43.442L180.728 42.966C180.336 43.68 179.538 44.156 178.474 44.156C176.976 44.156 175.87 43.26 175.688 41.846H181.834C181.848 41.664 181.862 41.51 181.862 41.412C181.862 40.418 181.54 39.55 180.896 38.822C180.266 38.08 179.426 37.716 178.39 37.716ZM178.39 38.612C179.02 38.612 179.58 38.822 180.056 39.228C180.532 39.634 180.812 40.208 180.91 40.95H175.688C175.87 39.564 176.934 38.612 178.39 38.612Z" fill="white"/>
    <path d="M194.714 35.084L191.452 40.544L188.19 35.084H186.972V44.884H187.952V36.568L191.382 42.308H191.522L194.952 36.568V44.884H195.932V35.084H194.714Z" fill="white"/>
    <path d="M198.967 36.204C199.233 35.938 199.233 35.518 198.967 35.252C198.701 34.986 198.281 34.986 198.015 35.252C197.749 35.518 197.749 35.938 198.015 36.204C198.281 36.47 198.701 36.47 198.967 36.204ZM198.953 44.884V37.884H198.029V44.884H198.953Z" fill="white"/>
    <path d="M204.19 37.716C203.14 37.716 202.356 38.136 201.838 38.976V37.884H200.914V44.884H201.838V41.216C201.838 39.438 202.762 38.612 204.106 38.612C205.324 38.612 206.01 39.34 206.01 40.586V44.884H206.934V40.586C206.934 38.836 205.884 37.716 204.19 37.716Z" fill="white"/>
    <path d="M209.659 36.204C209.925 35.938 209.925 35.518 209.659 35.252C209.393 34.986 208.973 34.986 208.707 35.252C208.441 35.518 208.441 35.938 208.707 36.204C208.973 36.47 209.393 36.47 209.659 36.204ZM209.645 44.884V37.884H208.721V44.884H209.645Z" fill="white"/>
    <path d="M212.334 39.718C212.334 39.004 213.006 38.612 213.804 38.612C214.658 38.612 215.218 38.934 215.484 39.592L216.254 39.144C215.848 38.262 214.938 37.716 213.804 37.716C213.118 37.716 212.544 37.912 212.082 38.29C211.634 38.668 211.41 39.144 211.41 39.718C211.41 41.23 212.88 41.552 214.056 41.846C214.854 42.056 215.498 42.406 215.498 43.036C215.498 43.806 214.798 44.156 213.888 44.156C212.95 44.156 212.236 43.708 211.97 42.98L211.186 43.442C211.564 44.394 212.544 45.052 213.888 45.052C214.63 45.052 215.246 44.87 215.708 44.492C216.184 44.114 216.422 43.638 216.422 43.036C216.422 41.524 214.952 41.202 213.776 40.908C212.978 40.698 212.334 40.348 212.334 39.718Z" fill="white"/>
    <path d="M221.4 37.884H219.384V35.924L218.46 36.204V37.884H216.99V38.78H218.46V43.022C218.46 44.646 219.44 45.178 221.4 44.884V44.072C220.056 44.128 219.384 44.226 219.384 43.022V38.78H221.4V37.884Z" fill="white"/>
    <path d="M223.864 37.884H222.94V44.884H223.864V40.992C223.864 39.382 224.802 38.668 226.076 38.668V37.772C225.026 37.772 224.298 38.192 223.864 39.046V37.884Z" fill="white"/>
    <path d="M230.251 43.75L227.619 37.884H226.639L229.775 44.926L229.593 45.36C229.159 46.424 228.515 46.914 227.675 46.816V47.684C228.907 47.782 229.957 46.914 230.503 45.528L233.499 37.884H232.519L230.251 43.75Z" fill="white"/>
    <path d="M243.981 44.002C244.695 43.288 245.059 42.42 245.059 41.384C245.059 40.348 244.695 39.48 243.981 38.78C243.267 38.066 242.399 37.716 241.377 37.716C240.355 37.716 239.473 38.066 238.759 38.78C238.045 39.48 237.695 40.348 237.695 41.384C237.695 42.42 238.045 43.288 238.759 44.002C239.473 44.702 240.355 45.052 241.377 45.052C242.399 45.052 243.267 44.702 243.981 44.002ZM239.417 43.358C238.885 42.812 238.619 42.154 238.619 41.384C238.619 40.614 238.885 39.956 239.417 39.424C239.949 38.878 240.607 38.612 241.377 38.612C242.147 38.612 242.805 38.878 243.337 39.424C243.869 39.956 244.135 40.614 244.135 41.384C244.135 42.154 243.869 42.812 243.337 43.358C242.805 43.89 242.147 44.156 241.377 44.156C240.607 44.156 239.949 43.89 239.417 43.358Z" fill="white"/>
    <path d="M249.832 34.916C247.942 34.79 246.892 35.77 246.892 37.604V37.884H245.702V38.78H246.892V44.884H247.816V38.78H249.832V37.884H247.816V37.604C247.816 36.26 248.474 35.7 249.832 35.812V34.916Z" fill="white"/>
    <path d="M259.034 45.052C260.84 45.052 262.478 44.1 263.276 42.63L262.408 42.14C261.792 43.33 260.49 44.1 259.034 44.1C257.816 44.1 256.808 43.708 256.038 42.91C255.268 42.112 254.876 41.146 254.876 39.984C254.876 38.822 255.268 37.856 256.038 37.058C256.808 36.26 257.816 35.868 259.034 35.868C260.49 35.868 261.792 36.638 262.408 37.828L263.276 37.324C262.45 35.854 260.84 34.916 259.034 34.916C257.55 34.916 256.318 35.406 255.352 36.386C254.386 37.366 253.896 38.57 253.896 39.984C253.896 41.398 254.386 42.602 255.352 43.582C256.318 44.562 257.55 45.052 259.034 45.052Z" fill="white"/>
    <path d="M269.676 41.552C269.676 43.33 268.752 44.156 267.408 44.156C266.19 44.156 265.504 43.428 265.504 42.182V37.884H264.58V42.182C264.58 43.932 265.63 45.052 267.324 45.052C268.374 45.052 269.158 44.632 269.676 43.792V44.884H270.6V37.884H269.676V41.552Z" fill="white"/>
    <path d="M273.479 44.884V34.664H272.555V44.884H273.479Z" fill="white"/>
    <path d="M279.15 37.884H277.134V35.924L276.21 36.204V37.884H274.74V38.78H276.21V43.022C276.21 44.646 277.19 45.178 279.15 44.884V44.072C277.806 44.128 277.134 44.226 277.134 43.022V38.78H279.15V37.884Z" fill="white"/>
    <path d="M285.618 41.552C285.618 43.33 284.694 44.156 283.35 44.156C282.132 44.156 281.446 43.428 281.446 42.182V37.884H280.522V42.182C280.522 43.932 281.572 45.052 283.266 45.052C284.316 45.052 285.1 44.632 285.618 43.792V44.884H286.542V37.884H285.618V41.552Z" fill="white"/>
    <path d="M289.42 37.884H288.496V44.884H289.42V40.992C289.42 39.382 290.358 38.668 291.632 38.668V37.772C290.582 37.772 289.854 38.192 289.42 39.046V37.884Z" fill="white"/>
    <path d="M295.709 37.716C294.631 37.716 293.763 38.066 293.077 38.766C292.391 39.466 292.055 40.334 292.055 41.384C292.055 42.448 292.405 43.33 293.091 44.016C293.777 44.702 294.673 45.052 295.779 45.052C297.137 45.052 298.243 44.436 298.859 43.442L298.047 42.966C297.655 43.68 296.857 44.156 295.793 44.156C294.295 44.156 293.189 43.26 293.007 41.846H299.153C299.167 41.664 299.181 41.51 299.181 41.412C299.181 40.418 298.859 39.55 298.215 38.822C297.585 38.08 296.745 37.716 295.709 37.716ZM295.709 38.612C296.339 38.612 296.899 38.822 297.375 39.228C297.851 39.634 298.131 40.208 298.229 40.95H293.007C293.189 39.564 294.253 38.612 295.709 38.612Z" fill="white"/>
    <path d="M310.17 39.256C309.526 38.234 308.588 37.716 307.342 37.716C306.348 37.716 305.494 38.066 304.78 38.78C304.08 39.494 303.73 40.362 303.73 41.384C303.73 42.406 304.08 43.274 304.78 43.988C305.494 44.702 306.348 45.052 307.342 45.052C308.588 45.052 309.526 44.534 310.17 43.512V44.884H311.094V37.884H310.17V39.256ZM305.452 43.358C304.92 42.812 304.654 42.154 304.654 41.384C304.654 40.614 304.92 39.956 305.452 39.424C305.984 38.878 306.642 38.612 307.412 38.612C308.182 38.612 308.84 38.878 309.372 39.424C309.904 39.956 310.17 40.614 310.17 41.384C310.17 42.154 309.904 42.812 309.372 43.358C308.84 43.89 308.182 44.156 307.412 44.156C306.642 44.156 305.984 43.89 305.452 43.358Z" fill="white"/>
    <path d="M316.327 37.716C315.277 37.716 314.493 38.136 313.975 38.976V37.884H313.051V44.884H313.975V41.216C313.975 39.438 314.899 38.612 316.243 38.612C317.461 38.612 318.147 39.34 318.147 40.586V44.884H319.071V40.586C319.071 38.836 318.021 37.716 316.327 37.716Z" fill="white"/>
    <path d="M326.878 39.256C326.234 38.234 325.295 37.716 324.049 37.716C323.055 37.716 322.202 38.066 321.488 38.78C320.788 39.494 320.438 40.362 320.438 41.384C320.438 42.406 320.788 43.274 321.488 43.988C322.202 44.702 323.055 45.052 324.049 45.052C325.295 45.052 326.234 44.534 326.878 43.512V44.884H327.802V35.084H326.878V39.256ZM322.16 43.358C321.628 42.812 321.361 42.154 321.361 41.384C321.361 40.614 321.628 39.956 322.16 39.424C322.692 38.878 323.35 38.612 324.12 38.612C324.89 38.612 325.547 38.878 326.079 39.424C326.611 39.956 326.878 40.614 326.878 41.384C326.878 42.154 326.611 42.812 326.079 43.358C325.547 43.89 324.89 44.156 324.12 44.156C323.35 44.156 322.692 43.89 322.16 43.358Z" fill="white"/>
    <path d="M332.558 35.084V36.008H335.568V44.884H336.548V36.008H339.558V35.084H332.558Z" fill="white"/>
    <path d="M345.427 44.002C346.141 43.288 346.505 42.42 346.505 41.384C346.505 40.348 346.141 39.48 345.427 38.78C344.713 38.066 343.845 37.716 342.823 37.716C341.801 37.716 340.919 38.066 340.205 38.78C339.491 39.48 339.141 40.348 339.141 41.384C339.141 42.42 339.491 43.288 340.205 44.002C340.919 44.702 341.801 45.052 342.823 45.052C343.845 45.052 344.713 44.702 345.427 44.002ZM340.863 43.358C340.331 42.812 340.065 42.154 340.065 41.384C340.065 40.614 340.331 39.956 340.863 39.424C341.395 38.878 342.053 38.612 342.823 38.612C343.593 38.612 344.251 38.878 344.783 39.424C345.315 39.956 345.581 40.614 345.581 41.384C345.581 42.154 345.315 42.812 344.783 43.358C344.251 43.89 343.593 44.156 342.823 44.156C342.053 44.156 341.395 43.89 340.863 43.358Z" fill="white"/>
    <path d="M352.979 41.552C352.979 43.33 352.055 44.156 350.711 44.156C349.493 44.156 348.807 43.428 348.807 42.182V37.884H347.883V42.182C347.883 43.932 348.933 45.052 350.627 45.052C351.677 45.052 352.461 44.632 352.979 43.792V44.884H353.903V37.884H352.979V41.552Z" fill="white"/>
    <path d="M356.781 37.884H355.858V44.884H356.781V40.992C356.781 39.382 357.719 38.668 358.993 38.668V37.772C357.943 37.772 357.215 38.192 356.781 39.046V37.884Z" fill="white"/>
    <path d="M361.198 36.204C361.464 35.938 361.464 35.518 361.198 35.252C360.932 34.986 360.512 34.986 360.246 35.252C359.98 35.518 359.98 35.938 360.246 36.204C360.512 36.47 360.932 36.47 361.198 36.204ZM361.184 44.884V37.884H360.26V44.884H361.184Z" fill="white"/>
    <path d="M363.873 39.718C363.873 39.004 364.545 38.612 365.343 38.612C366.197 38.612 366.757 38.934 367.023 39.592L367.793 39.144C367.387 38.262 366.477 37.716 365.343 37.716C364.657 37.716 364.083 37.912 363.621 38.29C363.173 38.668 362.949 39.144 362.949 39.718C362.949 41.23 364.419 41.552 365.595 41.846C366.393 42.056 367.037 42.406 367.037 43.036C367.037 43.806 366.337 44.156 365.427 44.156C364.489 44.156 363.775 43.708 363.509 42.98L362.725 43.442C363.103 44.394 364.083 45.052 365.427 45.052C366.169 45.052 366.785 44.87 367.247 44.492C367.723 44.114 367.961 43.638 367.961 43.036C367.961 41.524 366.491 41.202 365.315 40.908C364.517 40.698 363.873 40.348 363.873 39.718Z" fill="white"/>
    <path d="M376.964 37.716C375.956 37.716 375.2 38.136 374.696 38.99C374.29 38.136 373.576 37.716 372.568 37.716C371.644 37.716 370.93 38.108 370.426 38.906V37.884H369.502V44.884H370.426V41.006C370.426 39.382 371.322 38.612 372.442 38.612C373.45 38.612 374.08 39.284 374.08 40.516V44.884H375.004V41.006C375.004 39.368 375.788 38.612 376.95 38.612C377.972 38.612 378.658 39.298 378.658 40.516V44.884H379.582V40.516C379.582 38.794 378.532 37.716 376.964 37.716Z" fill="white"/>
    <path d="M83.1075 9.34239C83.0422 10.1739 82.9933 10.9728 82.9606 11.7391C82.9443 12.5054 82.9361 13.0924 82.9361 13.5C82.9361 13.8587 82.9443 14.2011 82.9606 14.5272C82.9769 14.8533 82.9933 15.1304 83.0096 15.3587H82.4464C82.1852 13.9891 81.8506 12.9049 81.4425 12.106C81.0507 11.3071 80.5774 10.7446 80.0224 10.4185C79.4673 10.0761 78.8144 9.90489 78.0635 9.90489H77.5004V23.8696C77.5004 24.5217 77.5656 25.0109 77.6962 25.337C77.8431 25.663 78.1043 25.8832 78.4798 25.9973C78.8552 26.0951 79.4021 26.1522 80.1203 26.1685V26.6576C79.6143 26.6413 78.9368 26.625 78.088 26.6087C77.2555 26.5924 76.3822 26.5842 75.4681 26.5842C74.5703 26.5842 73.7214 26.5924 72.9216 26.6087C72.1217 26.625 71.4769 26.6413 70.9872 26.6576V26.1685C71.7218 26.1522 72.2768 26.0951 72.6522 25.9973C73.0277 25.8832 73.2807 25.663 73.4113 25.337C73.5419 25.0109 73.6072 24.5217 73.6072 23.8696V9.90489H73.0685C72.3176 9.90489 71.6647 10.0761 71.1097 10.4185C70.5546 10.7446 70.0813 11.3071 69.6895 12.106C69.2977 12.8886 68.9549 13.9728 68.6611 15.3587H68.0979C68.1306 15.1304 68.1469 14.8533 68.1469 14.5272C68.1632 14.2011 68.1714 13.8587 68.1714 13.5C68.1714 13.0924 68.1551 12.5054 68.1224 11.7391C68.1061 10.9728 68.0653 10.1739 68 9.34239C68.7509 9.3587 69.5671 9.375 70.4485 9.39131C71.3463 9.40761 72.2441 9.41576 73.1419 9.41576C74.0397 9.41576 74.8478 9.41576 75.566 9.41576C76.3006 9.41576 77.1086 9.41576 77.9901 9.41576C78.8879 9.41576 79.7857 9.40761 80.6835 9.39131C81.5813 9.375 82.3893 9.3587 83.1075 9.34239Z" fill="white"/>
    <path d="M93.3021 9.29348L99.252 24.6033C99.4806 25.1902 99.7336 25.5978 100.011 25.8261C100.305 26.038 100.566 26.1522 100.795 26.1685V26.6576C100.305 26.625 99.7254 26.6087 99.0561 26.6087C98.4032 26.5924 97.7421 26.5842 97.0728 26.5842C96.3219 26.5842 95.6119 26.5924 94.9426 26.6087C94.2733 26.6087 93.7428 26.625 93.351 26.6576V26.1685C94.1835 26.1359 94.7059 25.9973 94.9181 25.7527C95.1466 25.4918 95.0977 24.9457 94.7712 24.1141L90.6087 12.7418L91.0494 12.106L87.3276 21.7908C86.8706 22.9973 86.642 23.9103 86.642 24.5299C86.6584 25.1495 86.8624 25.5734 87.2542 25.8016C87.6459 26.0136 88.1683 26.1359 88.8212 26.1685V26.6576C88.2826 26.625 87.7684 26.6087 87.2787 26.6087C86.7889 26.5924 86.2911 26.5842 85.785 26.5842C85.4259 26.5842 85.0831 26.5924 84.7566 26.6087C84.4465 26.6087 84.169 26.625 83.9241 26.6576V26.1685C84.2669 26.1033 84.6179 25.8832 84.977 25.5082C85.3361 25.1332 85.6871 24.4973 86.0299 23.6005L91.6126 9.29348C91.8738 9.30978 92.1513 9.31794 92.4451 9.31794C92.7552 9.31794 93.0409 9.30978 93.3021 9.29348ZM95.016 19.6141V20.1033H87.7194L87.9642 19.6141H95.016Z" fill="white"/>
    <path d="M102.936 9.34239C103.344 9.3587 103.891 9.375 104.577 9.39131C105.279 9.40761 105.972 9.41576 106.658 9.41576C107.441 9.41576 108.201 9.40761 108.935 9.39131C109.67 9.375 110.192 9.36685 110.502 9.36685C112.526 9.36685 114.036 9.72554 115.032 10.4429C116.044 11.1603 116.55 12.0815 116.55 13.2065C116.55 13.7772 116.379 14.356 116.036 14.9429C115.693 15.5299 115.163 16.0516 114.444 16.5082C113.726 16.9647 112.796 17.2989 111.653 17.5109V17.5598C113.187 17.6739 114.403 17.9511 115.301 18.3913C116.199 18.8315 116.844 19.3614 117.236 19.981C117.627 20.6005 117.823 21.2446 117.823 21.913C117.823 23.4457 117.219 24.6196 116.011 25.4348C114.82 26.25 113.171 26.6576 111.065 26.6576C110.674 26.6576 110.102 26.6495 109.351 26.6332C108.617 26.6005 107.735 26.5842 106.707 26.5842C105.989 26.5842 105.279 26.5924 104.577 26.6087C103.891 26.6087 103.344 26.625 102.936 26.6576V26.1685C103.458 26.1359 103.85 26.0707 104.111 25.9728C104.373 25.875 104.544 25.6793 104.626 25.3859C104.724 25.0924 104.773 24.6522 104.773 24.0652V11.9348C104.773 11.3315 104.724 10.8913 104.626 10.6141C104.544 10.3207 104.364 10.125 104.087 10.0272C103.826 9.91304 103.442 9.84783 102.936 9.83152V9.34239ZM110.184 9.83152C109.547 9.83152 109.131 9.97011 108.935 10.2473C108.756 10.5245 108.666 11.087 108.666 11.9348V24.0652C108.666 24.913 108.772 25.4674 108.984 25.7283C109.196 25.9728 109.653 26.0951 110.355 26.0951C111.531 26.0951 112.388 25.7283 112.926 24.9946C113.481 24.2446 113.759 23.1848 113.759 21.8152C113.759 20.5598 113.44 19.5897 112.804 18.9049C112.183 18.2201 111.147 17.8777 109.694 17.8777H107.613C107.613 17.8777 107.613 17.8125 107.613 17.6821C107.613 17.5353 107.613 17.462 107.613 17.462H109.719C110.486 17.462 111.073 17.2826 111.482 16.9239C111.89 16.5489 112.175 16.0598 112.339 15.4565C112.502 14.837 112.583 14.1766 112.583 13.4755C112.583 12.269 112.396 11.3641 112.02 10.7609C111.645 10.1413 111.033 9.83152 110.184 9.83152Z" fill="white"/>
    <path d="M129.189 9.29348L135.139 24.6033C135.368 25.1902 135.621 25.5978 135.899 25.8261C136.192 26.038 136.454 26.1522 136.682 26.1685V26.6576C136.192 26.625 135.613 26.6087 134.944 26.6087C134.291 26.5924 133.63 26.5842 132.96 26.5842C132.209 26.5842 131.499 26.5924 130.83 26.6087C130.161 26.6087 129.63 26.625 129.238 26.6576V26.1685C130.071 26.1359 130.593 25.9973 130.806 25.7527C131.034 25.4918 130.985 24.9457 130.659 24.1141L126.496 12.7418L126.937 12.106L123.215 21.7908C122.758 22.9973 122.529 23.9103 122.529 24.5299C122.546 25.1495 122.75 25.5734 123.142 25.8016C123.533 26.0136 124.056 26.1359 124.709 26.1685V26.6576C124.17 26.625 123.656 26.6087 123.166 26.6087C122.676 26.5924 122.179 26.5842 121.672 26.5842C121.313 26.5842 120.971 26.5924 120.644 26.6087C120.334 26.6087 120.056 26.625 119.812 26.6576V26.1685C120.154 26.1033 120.505 25.8832 120.864 25.5082C121.224 25.1332 121.575 24.4973 121.917 23.6005L127.5 9.29348C127.761 9.30978 128.039 9.31794 128.333 9.31794C128.643 9.31794 128.928 9.30978 129.189 9.29348ZM130.903 19.6141V20.1033H123.607L123.852 19.6141H130.903Z" fill="white"/>
    <path d="M138.824 9.34239C139.232 9.3587 139.778 9.375 140.464 9.39131C141.166 9.40761 141.86 9.41576 142.545 9.41576C143.329 9.41576 144.088 9.40761 144.822 9.39131C145.557 9.375 146.079 9.36685 146.39 9.36685C148.659 9.36685 150.356 9.74185 151.483 10.4918C152.609 11.2255 153.172 12.269 153.172 13.6223C153.172 14.1766 153.058 14.7391 152.829 15.3098C152.601 15.8641 152.209 16.3859 151.654 16.875C151.115 17.3478 150.373 17.731 149.426 18.0245C148.479 18.3016 147.287 18.4402 145.851 18.4402H143.5V17.9511H145.606C146.569 17.9511 147.296 17.7717 147.785 17.413C148.291 17.038 148.634 16.5489 148.814 15.9457C149.01 15.3261 149.107 14.6413 149.107 13.8913C149.107 12.6033 148.879 11.6087 148.422 10.9076C147.965 10.1902 147.181 9.83152 146.071 9.83152C145.435 9.83152 145.018 9.97011 144.822 10.2473C144.643 10.5245 144.553 11.087 144.553 11.9348V24.0652C144.553 24.6522 144.594 25.0924 144.676 25.3859C144.774 25.6793 144.953 25.875 145.214 25.9728C145.475 26.0707 145.867 26.1359 146.39 26.1685V26.6576C145.949 26.625 145.394 26.6087 144.725 26.6087C144.055 26.5924 143.378 26.5842 142.692 26.5842C141.909 26.5842 141.166 26.5924 140.464 26.6087C139.778 26.6087 139.232 26.625 138.824 26.6576V26.1685C139.346 26.1359 139.738 26.0707 139.999 25.9728C140.26 25.875 140.431 25.6793 140.513 25.3859C140.611 25.0924 140.66 24.6522 140.66 24.0652V11.9348C140.66 11.3315 140.611 10.8913 140.513 10.6141C140.431 10.3207 140.252 10.125 139.974 10.0272C139.713 9.91304 139.33 9.84783 138.824 9.83152V9.34239ZM143.451 18.0245C144.153 18.0408 144.757 18.0734 145.263 18.1223C145.786 18.1712 146.243 18.2201 146.634 18.269C147.026 18.3016 147.377 18.3261 147.687 18.3424C149.173 18.4728 150.266 18.7908 150.968 19.2962C151.687 19.8016 152.152 20.5598 152.364 21.5707L152.927 24.0897C153.074 24.7418 153.229 25.1984 153.392 25.4592C153.556 25.7201 153.792 25.8505 154.102 25.8505C154.315 25.8342 154.486 25.7853 154.617 25.7038C154.764 25.606 154.919 25.4674 155.082 25.288L155.425 25.5815C154.984 26.087 154.511 26.4457 154.005 26.6576C153.499 26.8859 152.886 27 152.168 27C151.287 27 150.56 26.8125 149.989 26.4375C149.418 26.0625 149.042 25.3696 148.863 24.3587L148.422 21.913C148.308 21.2283 148.169 20.6332 148.006 20.1277C147.842 19.606 147.614 19.1984 147.32 18.9049C147.043 18.5951 146.651 18.4402 146.145 18.4402H143.5L143.451 18.0245Z" fill="white"/>
    <path d="M157.736 9.34239C158.144 9.3587 158.691 9.375 159.376 9.39131C160.078 9.40761 160.772 9.41576 161.457 9.41576C162.241 9.41576 163 9.40761 163.735 9.39131C164.469 9.375 164.992 9.36685 165.302 9.36685C167.571 9.36685 169.268 9.74185 170.395 10.4918C171.521 11.2255 172.084 12.269 172.084 13.6223C172.084 14.1766 171.97 14.7391 171.741 15.3098C171.513 15.8641 171.121 16.3859 170.566 16.875C170.027 17.3478 169.285 17.731 168.338 18.0245C167.391 18.3016 166.199 18.4402 164.763 18.4402H162.412V17.9511H164.518C165.481 17.9511 166.208 17.7717 166.697 17.413C167.203 17.038 167.546 16.5489 167.726 15.9457C167.922 15.3261 168.02 14.6413 168.02 13.8913C168.02 12.6033 167.791 11.6087 167.334 10.9076C166.877 10.1902 166.093 9.83152 164.983 9.83152C164.347 9.83152 163.931 9.97011 163.735 10.2473C163.555 10.5245 163.465 11.087 163.465 11.9348V24.0652C163.465 24.6522 163.506 25.0924 163.588 25.3859C163.686 25.6793 163.865 25.875 164.126 25.9728C164.388 26.0707 164.779 26.1359 165.302 26.1685V26.6576C164.861 26.625 164.306 26.6087 163.637 26.6087C162.967 26.5924 162.29 26.5842 161.604 26.5842C160.821 26.5842 160.078 26.5924 159.376 26.6087C158.691 26.6087 158.144 26.625 157.736 26.6576V26.1685C158.258 26.1359 158.65 26.0707 158.911 25.9728C159.172 25.875 159.344 25.6793 159.425 25.3859C159.523 25.0924 159.572 24.6522 159.572 24.0652V11.9348C159.572 11.3315 159.523 10.8913 159.425 10.6141C159.344 10.3207 159.164 10.125 158.887 10.0272C158.625 9.91304 158.242 9.84783 157.736 9.83152V9.34239ZM162.363 18.0245C163.065 18.0408 163.669 18.0734 164.175 18.1223C164.698 18.1712 165.155 18.2201 165.547 18.269C165.938 18.3016 166.289 18.3261 166.599 18.3424C168.085 18.4728 169.179 18.7908 169.88 19.2962C170.599 19.8016 171.064 20.5598 171.276 21.5707L171.839 24.0897C171.986 24.7418 172.141 25.1984 172.305 25.4592C172.468 25.7201 172.704 25.8505 173.015 25.8505C173.227 25.8342 173.398 25.7853 173.529 25.7038C173.676 25.606 173.831 25.4674 173.994 25.288L174.337 25.5815C173.896 26.087 173.423 26.4457 172.917 26.6576C172.411 26.8859 171.799 27 171.08 27C170.199 27 169.472 26.8125 168.901 26.4375C168.33 26.0625 167.954 25.3696 167.775 24.3587L167.334 21.913C167.22 21.2283 167.081 20.6332 166.918 20.1277C166.754 19.606 166.526 19.1984 166.232 18.9049C165.955 18.5951 165.563 18.4402 165.057 18.4402H162.412L162.363 18.0245Z" fill="white"/>
    <path d="M192.173 9.34239V9.83152C191.651 9.89674 191.251 10.0353 190.974 10.2473C190.712 10.4429 190.541 10.7609 190.459 11.2011C190.378 11.6413 190.337 12.2609 190.337 13.0598V19.5408C190.337 20.6005 190.263 21.5707 190.117 22.4511C189.97 23.3315 189.708 24.0897 189.333 24.7255C188.909 25.4266 188.288 25.981 187.472 26.3886C186.656 26.7962 185.619 27 184.362 27C183.612 27 182.844 26.9103 182.061 26.731C181.277 26.5679 180.575 26.25 179.955 25.7772C179.433 25.337 179.033 24.8397 178.755 24.2853C178.478 23.731 178.29 23.0788 178.192 22.3288C178.094 21.5625 178.045 20.6576 178.045 19.6141V11.9348C178.045 11.3315 177.996 10.8913 177.898 10.6141C177.817 10.3207 177.645 10.125 177.384 10.0272C177.123 9.91304 176.731 9.84783 176.209 9.83152V9.34239C176.617 9.3587 177.164 9.375 177.849 9.39131C178.551 9.40761 179.278 9.41576 180.029 9.41576C180.779 9.41576 181.498 9.40761 182.183 9.39131C182.885 9.375 183.465 9.3587 183.922 9.34239V9.83152C183.367 9.84783 182.942 9.91304 182.648 10.0272C182.371 10.125 182.183 10.3207 182.085 10.6141C181.987 10.8913 181.938 11.3315 181.938 11.9348V21.1549C181.938 22.2473 182.036 23.1685 182.232 23.9185C182.428 24.6522 182.771 25.2065 183.261 25.5815C183.767 25.9565 184.452 26.144 185.317 26.144C186.46 26.144 187.35 25.875 187.986 25.337C188.639 24.7989 189.096 24.0571 189.357 23.1114C189.635 22.1495 189.774 21.0489 189.774 19.8098V13.3533C189.774 12.4565 189.717 11.7717 189.602 11.2989C189.488 10.8098 189.26 10.4592 188.917 10.2473C188.59 10.0353 188.084 9.89674 187.399 9.83152V9.34239C187.709 9.3587 188.117 9.375 188.623 9.39131C189.129 9.40761 189.602 9.41576 190.043 9.41576C190.435 9.41576 190.818 9.40761 191.194 9.39131C191.586 9.375 191.912 9.3587 192.173 9.34239Z" fill="white"/>
    <path d="M211.454 9.34239V9.80707C210.932 9.9212 210.369 10.1495 209.765 10.4918C209.177 10.8342 208.557 11.3886 207.904 12.1549L203.301 17.6332L204.721 15.6033L210.548 24.6766C210.777 25.0516 211.022 25.3533 211.283 25.5815C211.544 25.8098 211.887 26.0054 212.311 26.1685V26.6576C211.74 26.625 211.103 26.6087 210.402 26.6087C209.7 26.5924 209.063 26.5842 208.492 26.5842C208.149 26.5842 207.733 26.5924 207.243 26.6087C206.753 26.6087 206.133 26.625 205.382 26.6576V26.1685C206.051 26.1359 206.451 26.0462 206.582 25.8995C206.729 25.7364 206.672 25.4592 206.41 25.0679L202.86 19.3207C202.632 18.9457 202.427 18.6685 202.248 18.4891C202.068 18.2935 201.889 18.163 201.709 18.0978C201.53 18.0163 201.293 17.9674 200.999 17.9511V17.4375C201.717 17.4212 202.354 17.2255 202.909 16.8505C203.48 16.4755 204.101 15.9049 204.77 15.1386L206.215 13.4022C206.835 12.6685 207.194 12.0408 207.292 11.519C207.406 10.981 207.3 10.5652 206.974 10.2717C206.663 9.97826 206.182 9.82337 205.529 9.80707V9.34239C206.133 9.3587 206.704 9.375 207.243 9.39131C207.798 9.40761 208.435 9.41576 209.153 9.41576C210.1 9.41576 210.867 9.39131 211.454 9.34239ZM202.982 9.34239V9.83152C202.46 9.84783 202.06 9.91304 201.783 10.0272C201.522 10.125 201.35 10.3207 201.269 10.6141C201.187 10.8913 201.146 11.3315 201.146 11.9348V24.0652C201.146 24.6522 201.187 25.0924 201.269 25.3859C201.366 25.6793 201.546 25.875 201.807 25.9728C202.068 26.0707 202.46 26.1359 202.982 26.1685V26.6576C202.542 26.625 201.987 26.6087 201.317 26.6087C200.648 26.5924 199.971 26.5842 199.285 26.5842C198.502 26.5842 197.759 26.5924 197.057 26.6087C196.371 26.6087 195.825 26.625 195.416 26.6576V26.1685C195.939 26.1359 196.331 26.0707 196.592 25.9728C196.853 25.875 197.024 25.6793 197.106 25.3859C197.204 25.0924 197.253 24.6522 197.253 24.0652V11.9348C197.253 11.3315 197.204 10.8913 197.106 10.6141C197.024 10.3207 196.845 10.125 196.567 10.0272C196.306 9.91304 195.923 9.84783 195.416 9.83152V9.34239C195.825 9.3587 196.371 9.375 197.057 9.39131C197.759 9.40761 198.502 9.41576 199.285 9.41576C199.971 9.41576 200.648 9.40761 201.317 9.39131C201.987 9.375 202.542 9.3587 202.982 9.34239Z" fill="white"/>
    <path d="M235.095 9.34239V9.83152L226.721 26.0951H229.268C229.823 26.0951 230.378 26.0054 230.933 25.8261C231.504 25.6467 232.026 25.3533 232.5 24.9457C232.989 24.538 233.406 24 233.748 23.3315C234.091 22.6467 234.32 21.7989 234.434 20.788H234.997C234.948 21.3424 234.924 22.0598 234.924 22.9402C234.924 23.3152 234.932 23.8451 234.948 24.5299C234.965 25.2147 235.014 25.9239 235.095 26.6576C234.197 26.625 233.177 26.6087 232.034 26.6087C230.908 26.5924 229.896 26.5842 228.998 26.5842C227.937 26.5842 226.827 26.5924 225.668 26.6087C224.509 26.6087 223.424 26.625 222.412 26.6576V26.1685L230.81 9.90489H228.166C227.35 9.90489 226.599 10.0598 225.913 10.3696C225.228 10.663 224.656 11.1766 224.199 11.9103C223.742 12.6277 223.432 13.6304 223.269 14.9185H222.706C222.738 14.6902 222.754 14.413 222.754 14.087C222.771 13.7609 222.779 13.4185 222.779 13.0598C222.779 12.6848 222.763 12.1549 222.73 11.4701C222.714 10.7853 222.673 10.0761 222.608 9.34239C223.424 9.375 224.338 9.39946 225.35 9.41576C226.378 9.41576 227.301 9.41576 228.117 9.41576C229.21 9.41576 230.378 9.41576 231.618 9.41576C232.859 9.39946 234.018 9.375 235.095 9.34239Z" fill="white"/>
    <path d="M246.544 9.34239V9.83152C246.021 9.84783 245.621 9.91304 245.344 10.0272C245.083 10.125 244.911 10.3207 244.83 10.6141C244.748 10.8913 244.707 11.3315 244.707 11.9348V24.0652C244.707 24.6522 244.748 25.0924 244.83 25.3859C244.928 25.6793 245.107 25.875 245.368 25.9728C245.629 26.0707 246.021 26.1359 246.544 26.1685V26.6576C246.103 26.625 245.548 26.6087 244.879 26.6087C244.209 26.5924 243.532 26.5842 242.846 26.5842C242.046 26.5842 241.304 26.5924 240.618 26.6087C239.949 26.6087 239.402 26.625 238.978 26.6576V26.1685C239.5 26.1359 239.892 26.0707 240.153 25.9728C240.414 25.875 240.585 25.6793 240.667 25.3859C240.765 25.0924 240.814 24.6522 240.814 24.0652V11.9348C240.814 11.3315 240.765 10.8913 240.667 10.6141C240.585 10.3207 240.406 10.125 240.128 10.0272C239.867 9.91304 239.484 9.84783 238.978 9.83152V9.34239C239.402 9.3587 239.949 9.375 240.618 9.39131C241.304 9.40761 242.046 9.41576 242.846 9.41576C243.532 9.41576 244.209 9.40761 244.879 9.39131C245.548 9.375 246.103 9.3587 246.544 9.34239Z" fill="white"/>
    <path d="M264.417 9.31794V9.80707C264.058 9.95381 263.691 10.2473 263.316 10.6875C262.94 11.1114 262.524 11.7636 262.067 12.644L257.439 21.7908H256.288L250.559 11.2011C250.265 10.6467 249.996 10.2799 249.751 10.1005C249.522 9.9212 249.318 9.83152 249.139 9.83152V9.31794C249.579 9.36685 250.028 9.39946 250.485 9.41576C250.959 9.43207 251.473 9.44022 252.028 9.44022C252.746 9.44022 253.521 9.43207 254.354 9.41576C255.186 9.38315 255.945 9.35054 256.631 9.31794V9.83152C256.223 9.83152 255.856 9.86413 255.529 9.92935C255.203 9.99457 254.974 10.1168 254.844 10.2962C254.713 10.4592 254.746 10.7283 254.942 11.1033L258.81 18.538L258.051 19.5163L260.573 14.4538C261.177 13.2799 261.495 12.3587 261.528 11.6902C261.577 11.0217 261.414 10.5489 261.038 10.2717C260.679 9.97826 260.165 9.82337 259.496 9.80707V9.31794C260.051 9.33424 260.573 9.35054 261.063 9.36685C261.553 9.38315 262.051 9.39131 262.557 9.39131C262.916 9.39131 263.25 9.38315 263.56 9.36685C263.887 9.35054 264.173 9.33424 264.417 9.31794ZM259.178 17.9266V24.0652C259.178 24.6522 259.218 25.0924 259.3 25.3859C259.398 25.6793 259.577 25.875 259.839 25.9728C260.1 26.0707 260.492 26.1359 261.014 26.1685V26.6576C260.573 26.625 260.002 26.6087 259.3 26.6087C258.614 26.5924 257.929 26.5842 257.243 26.5842C256.476 26.5842 255.75 26.5924 255.064 26.6087C254.378 26.6087 253.84 26.625 253.448 26.6576V26.1685C253.97 26.1359 254.362 26.0707 254.623 25.9728C254.884 25.875 255.056 25.6793 255.137 25.3859C255.235 25.0924 255.284 24.6522 255.284 24.0652V19.0516L257.415 20.5679L259.178 17.9266Z" fill="white"/>
    <path d="M275.289 9C277.019 9 278.529 9.35054 279.818 10.0516C281.124 10.7527 282.136 11.7636 282.855 13.0842C283.573 14.3886 283.932 15.9783 283.932 17.8533C283.932 19.6793 283.565 21.2772 282.83 22.6467C282.096 24.0163 281.067 25.0842 279.745 25.8505C278.439 26.6168 276.945 27 275.264 27C273.534 27 272.016 26.6495 270.71 25.9484C269.42 25.2473 268.416 24.2364 267.698 22.9158C266.98 21.5951 266.621 20.0054 266.621 18.1467C266.621 16.3207 266.988 14.7228 267.723 13.3533C268.473 11.9837 269.494 10.9158 270.783 10.1495C272.089 9.38315 273.591 9 275.289 9ZM275.191 9.44022C274.277 9.44022 273.477 9.80707 272.791 10.5408C272.122 11.2745 271.599 12.2853 271.224 13.5734C270.865 14.8614 270.685 16.3533 270.685 18.0489C270.685 19.7772 270.889 21.2853 271.297 22.5734C271.722 23.8451 272.285 24.8315 272.987 25.5326C273.705 26.2174 274.497 26.5598 275.362 26.5598C276.276 26.5598 277.068 26.1929 277.737 25.4592C278.423 24.7255 278.945 23.7147 279.304 22.4266C279.68 21.1223 279.867 19.6304 279.867 17.9511C279.867 16.2065 279.655 14.6984 279.231 13.4266C278.823 12.1549 278.259 11.1766 277.541 10.4918C276.839 9.79076 276.056 9.44022 275.191 9.44022Z" fill="white"/>
    <path d="M287.584 9.34239C287.992 9.3587 288.539 9.375 289.225 9.39131C289.927 9.40761 290.62 9.41576 291.306 9.41576C292.089 9.41576 292.848 9.40761 293.583 9.39131C294.318 9.375 294.84 9.36685 295.15 9.36685C297.419 9.36685 299.117 9.74185 300.243 10.4918C301.369 11.2255 301.933 12.269 301.933 13.6223C301.933 14.1766 301.818 14.7391 301.59 15.3098C301.361 15.8641 300.969 16.3859 300.414 16.875C299.876 17.3478 299.133 17.731 298.186 18.0245C297.24 18.3016 296.048 18.4402 294.611 18.4402H292.261V17.9511H294.367C295.33 17.9511 296.056 17.7717 296.546 17.413C297.052 17.038 297.395 16.5489 297.574 15.9457C297.77 15.3261 297.868 14.6413 297.868 13.8913C297.868 12.6033 297.639 11.6087 297.182 10.9076C296.725 10.1902 295.942 9.83152 294.832 9.83152C294.195 9.83152 293.779 9.97011 293.583 10.2473C293.403 10.5245 293.314 11.087 293.314 11.9348V24.0652C293.314 24.6522 293.355 25.0924 293.436 25.3859C293.534 25.6793 293.714 25.875 293.975 25.9728C294.236 26.0707 294.628 26.1359 295.15 26.1685V26.6576C294.709 26.625 294.154 26.6087 293.485 26.6087C292.816 26.5924 292.138 26.5842 291.453 26.5842C290.669 26.5842 289.927 26.5924 289.225 26.6087C288.539 26.6087 287.992 26.625 287.584 26.6576V26.1685C288.106 26.1359 288.498 26.0707 288.759 25.9728C289.021 25.875 289.192 25.6793 289.274 25.3859C289.372 25.0924 289.42 24.6522 289.42 24.0652V11.9348C289.42 11.3315 289.372 10.8913 289.274 10.6141C289.192 10.3207 289.012 10.125 288.735 10.0272C288.474 9.91304 288.09 9.84783 287.584 9.83152V9.34239ZM292.212 18.0245C292.914 18.0408 293.518 18.0734 294.024 18.1223C294.546 18.1712 295.003 18.2201 295.395 18.269C295.787 18.3016 296.138 18.3261 296.448 18.3424C297.933 18.4728 299.027 18.7908 299.729 19.2962C300.447 19.8016 300.912 20.5598 301.125 21.5707L301.688 24.0897C301.835 24.7418 301.99 25.1984 302.153 25.4592C302.316 25.7201 302.553 25.8505 302.863 25.8505C303.075 25.8342 303.247 25.7853 303.377 25.7038C303.524 25.606 303.679 25.4674 303.842 25.288L304.185 25.5815C303.744 26.087 303.271 26.4457 302.765 26.6576C302.259 26.8859 301.647 27 300.929 27C300.047 27 299.321 26.8125 298.749 26.4375C298.178 26.0625 297.803 25.3696 297.623 24.3587L297.182 21.913C297.068 21.2283 296.929 20.6332 296.766 20.1277C296.603 19.606 296.374 19.1984 296.081 18.9049C295.803 18.5951 295.411 18.4402 294.905 18.4402H292.261L292.212 18.0245Z" fill="white"/>
    <path d="M314.674 9.29348L320.624 24.6033C320.853 25.1902 321.106 25.5978 321.383 25.8261C321.677 26.038 321.938 26.1522 322.167 26.1685V26.6576C321.677 26.625 321.098 26.6087 320.428 26.6087C319.775 26.5924 319.114 26.5842 318.445 26.5842C317.694 26.5842 316.984 26.5924 316.315 26.6087C315.646 26.6087 315.115 26.625 314.723 26.6576V26.1685C315.556 26.1359 316.078 25.9973 316.29 25.7527C316.519 25.4918 316.47 24.9457 316.143 24.1141L311.981 12.7418L312.422 12.106L308.7 21.7908C308.243 22.9973 308.014 23.9103 308.014 24.5299C308.031 25.1495 308.235 25.5734 308.626 25.8016C309.018 26.0136 309.541 26.1359 310.194 26.1685V26.6576C309.655 26.625 309.141 26.6087 308.651 26.6087C308.161 26.5924 307.663 26.5842 307.157 26.5842C306.798 26.5842 306.455 26.5924 306.129 26.6087C305.819 26.6087 305.541 26.625 305.296 26.6576V26.1685C305.639 26.1033 305.99 25.8832 306.349 25.5082C306.708 25.1332 307.059 24.4973 307.402 23.6005L312.985 9.29348C313.246 9.30978 313.524 9.31794 313.817 9.31794C314.128 9.31794 314.413 9.30978 314.674 9.29348ZM316.388 19.6141V20.1033H309.092L309.337 19.6141H316.388Z" fill="white"/>
    <path d="M338 9.34239C337.935 10.1739 337.886 10.9728 337.853 11.7391C337.837 12.5054 337.829 13.0924 337.829 13.5C337.829 13.8587 337.837 14.2011 337.853 14.5272C337.869 14.8533 337.886 15.1304 337.902 15.3587H337.339C337.078 13.9891 336.743 12.9049 336.335 12.106C335.943 11.3071 335.47 10.7446 334.915 10.4185C334.36 10.0761 333.707 9.90489 332.956 9.90489H332.393V23.8696C332.393 24.5217 332.458 25.0109 332.589 25.337C332.736 25.663 332.997 25.8832 333.372 25.9973C333.748 26.0951 334.295 26.1522 335.013 26.1685V26.6576C334.507 26.6413 333.829 26.625 332.98 26.6087C332.148 26.5924 331.275 26.5842 330.361 26.5842C329.463 26.5842 328.614 26.5924 327.814 26.6087C327.014 26.625 326.369 26.6413 325.88 26.6576V26.1685C326.614 26.1522 327.169 26.0951 327.545 25.9973C327.92 25.8832 328.173 25.663 328.304 25.337C328.434 25.0109 328.5 24.5217 328.5 23.8696V9.90489H327.961C327.21 9.90489 326.557 10.0761 326.002 10.4185C325.447 10.7446 324.974 11.3071 324.582 12.106C324.19 12.8886 323.847 13.9728 323.554 15.3587H322.99C323.023 15.1304 323.039 14.8533 323.039 14.5272C323.056 14.2011 323.064 13.8587 323.064 13.5C323.064 13.0924 323.048 12.5054 323.015 11.7391C322.999 10.9728 322.958 10.1739 322.892 9.34239C323.643 9.3587 324.46 9.375 325.341 9.39131C326.239 9.40761 327.137 9.41576 328.034 9.41576C328.932 9.41576 329.74 9.41576 330.458 9.41576C331.193 9.41576 332.001 9.41576 332.883 9.41576C333.78 9.41576 334.678 9.40761 335.576 9.39131C336.474 9.375 337.282 9.3587 338 9.34239Z" fill="white"/>
</svg>
