<svg width="248" height="44" viewBox="0 0 248 44" fill="none" xmlns="http://www.w3.org/2000/svg">
<path d="M21.7477 3.72775C18.1837 3.72735 14.6996 4.78384 11.736 6.76361C8.77243 8.74338 6.4625 11.5575 5.09832 14.8501C3.73415 18.1427 3.37702 21.7659 4.07208 25.2615C4.76714 28.7571 6.48317 31.9681 9.00318 34.4884C11.5232 37.0087 14.734 38.7251 18.2295 39.4205C21.725 40.116 25.3482 39.7592 28.641 38.3954C31.9337 37.0316 34.7481 34.722 36.7282 31.7587C38.7084 28.7953 39.7652 25.3114 39.7652 21.7473C39.7652 16.9686 37.867 12.3856 34.4881 9.00628C31.1093 5.62702 26.5264 3.72829 21.7477 3.72775Z" fill="#00AFCA"/>
<path d="M30.1138 23.4714C31.0064 23.5649 32.1734 24.1993 33.0293 23.5344C31.8095 23.3149 30.6059 22.6866 29.4815 22.2658C30.6343 21.79 32.1592 22.7558 33.1696 21.7473C31.9274 21.7209 30.6445 21.2899 29.4673 21.0479C30.5327 20.3994 32.1897 21.115 33.0293 19.9602C31.7973 20.129 30.4635 19.9033 29.262 19.8504C30.2135 19.0372 31.9619 19.4885 32.6105 18.2239C31.4211 18.5858 30.0671 18.5696 28.8736 18.7058C29.6869 17.7583 31.4821 17.9271 31.9233 16.569C30.8031 17.1098 29.4653 17.309 28.3064 17.6282C28.9611 16.5649 30.7624 16.451 30.986 15.0401C29.9695 15.7517 28.6744 16.1562 27.5806 16.6523C28.0604 15.4995 29.817 15.1051 29.817 13.6779C28.9204 14.5379 27.7086 15.1397 26.7063 15.8025C26.9991 14.5826 28.6784 13.9239 28.4548 12.5129C27.7046 13.5051 26.6006 14.2878 25.7142 15.099C25.8138 13.8547 27.3671 12.9358 26.934 11.5776C26.3485 12.6715 25.3807 13.6108 24.6325 14.5582C24.537 13.3139 25.9256 12.1632 25.2791 10.8986C24.8724 12.0737 24.0592 13.1594 23.4716 14.2044C23.1829 12.9846 24.3743 11.6366 23.5346 10.4798C23.3171 11.6996 22.6889 12.9032 22.268 14.0276C21.7923 12.8748 22.758 11.3499 21.7496 10.3395C21.7231 11.5817 21.2921 12.8646 21.0502 14.0418C20.4016 12.9764 21.1173 11.3194 19.9624 10.4798C20.1312 11.7118 19.9055 13.0476 19.8527 14.2471C19.0394 13.2956 19.4908 11.5472 18.2262 10.8986C18.586 12.088 18.5718 13.442 18.708 14.6355C17.7606 13.8222 17.9293 12.027 16.5712 11.5858C17.112 12.704 17.3113 14.0438 17.6305 15.2007C16.557 14.5297 16.435 12.7284 15.0321 12.5048C15.7417 13.5213 16.1483 14.8164 16.6444 15.9102C15.4916 15.4304 15.0972 13.6738 13.6699 13.6738C14.5299 14.5704 15.1317 15.7822 15.7945 16.7845C14.5747 16.4917 13.9159 14.8144 12.505 15.036C13.4951 15.7862 14.2799 16.8902 15.0911 17.7766C13.8468 17.677 12.9278 16.1237 11.5697 16.5568C12.6635 17.1423 13.6028 18.1101 14.5503 18.8583C13.306 18.9538 12.1553 17.5652 10.8907 18.2117C12.0658 18.6184 13.1515 19.4316 14.1965 20.0212C12.9766 20.3099 11.6287 19.1165 10.4718 19.9562C11.6917 20.1737 12.8953 20.8019 14.0196 21.2248C12.8668 21.6985 11.342 20.7328 10.3315 21.7433C11.5738 21.7677 12.8567 22.2007 14.0339 22.4406C12.9685 23.0892 11.3115 22.3735 10.4718 23.5304C11.7039 23.3596 13.0376 23.5853 14.2392 23.6402C13.2877 24.4534 11.5392 24 10.8907 25.2667C12.08 24.9068 13.4341 24.921 14.6275 24.7848C13.8143 25.7323 12.019 25.5635 11.5778 26.9216C12.6961 26.3808 14.0359 26.1836 15.1927 25.8624C14.5381 26.9257 12.7367 27.0396 12.5131 28.4505C13.5296 27.741 14.8247 27.3364 15.9186 26.8383C15.4387 27.9911 13.6821 28.3855 13.6821 29.8127C14.5787 28.9527 15.7905 28.3509 16.7928 27.6881C16.5 28.908 14.8207 29.5667 15.0443 30.9777C15.7945 29.9876 16.8985 29.2028 17.785 28.3916C17.6854 29.6359 16.132 30.5548 16.5651 31.915C17.1506 30.8191 18.1184 29.8717 18.8666 28.9324C18.9622 30.1767 17.5735 31.3274 18.2201 32.592C18.6267 31.4189 19.4399 30.3312 20.0275 29.2862C20.3162 30.506 19.1248 31.854 19.9645 33.0108C20.182 31.791 20.8103 30.5874 21.2311 29.463C21.7069 30.6179 20.7411 32.1407 21.7516 33.1511C21.776 31.9089 22.207 30.626 22.449 29.4488C23.0975 30.5142 22.3819 32.1712 23.5367 33.0108C23.3679 31.7788 23.5936 30.445 23.6485 29.2455C24.4618 30.195 24.0084 31.9435 25.275 32.592C24.9151 31.4026 24.9294 30.0486 24.7932 28.8551C25.7406 29.6684 25.5718 31.4636 26.93 31.9048C26.3892 30.7846 26.1899 29.4468 25.8707 28.2879C26.934 28.9426 27.0479 30.7439 28.4589 30.9676C27.7493 29.951 27.3427 28.6559 26.8466 27.5621C27.9994 28.0419 28.3938 29.7985 29.8211 29.7985C28.9611 28.9039 28.3592 27.6902 27.6965 26.6878C28.9163 26.9806 29.5751 28.66 30.986 28.4363C29.9959 27.6861 29.2111 26.5821 28.3999 25.6957C29.6442 25.7953 30.5632 27.3486 31.9233 26.9155C30.8275 26.33 29.88 25.3622 28.9407 24.614C30.185 24.5185 31.3357 25.9071 32.6003 25.2606C31.4272 24.8539 30.3395 24.0407 29.2945 23.4531C29.5607 23.3801 29.8416 23.3801 30.1077 23.4531M26.0557 24.3843L24.169 23.571L23.4086 25.4802L22.6563 23.5914L20.7696 24.4046L21.5828 22.5199L19.6758 21.7595L21.5828 20.9991L20.7696 19.1124L22.6563 19.9257L23.4147 18.0166L24.1751 19.9236L26.0618 19.1104L25.2486 20.9971L27.1556 21.7575L25.2486 22.5179L26.0557 24.3843ZM23.2764 15.7354C20.0051 15.7354 17.1771 18.2829 17.1771 21.7148C17.1771 25.1467 20.0519 27.6922 23.2764 27.6922C24.8304 27.6929 26.3286 27.1128 27.4769 26.0657C26.3729 27.8487 23.6139 29.1296 22.0383 29.1296H20.9079C20.3727 29.0582 19.8425 28.9543 19.32 28.8185C18.2139 28.4795 17.2005 27.891 16.3577 27.0985C15.022 25.8786 14.0583 23.6158 14.0583 22.1946V21.2228C14.0583 20.5803 14.4283 19.3178 14.6438 18.8034C14.9645 18.0157 15.43 17.295 16.0162 16.6788C17.7321 14.9018 19.688 14.2919 21.4751 14.2919C22.963 14.2851 24.4178 14.7304 25.6471 15.5687C26.257 15.9753 27.0885 16.7276 27.4911 17.3863C26.3494 16.3167 24.8409 15.7258 23.2764 15.7354Z" fill="white"/>
<path d="M5.79144 22.7842C5.63331 22.6315 5.52418 22.4352 5.47793 22.2203C5.43168 22.0054 5.45039 21.7816 5.5317 21.5773C5.613 21.3731 5.75322 21.1977 5.93451 21.0733C6.1158 20.949 6.32998 20.8814 6.54979 20.8792C6.69559 20.8754 6.84069 20.9006 6.97664 20.9534C7.11259 21.0063 7.23667 21.0856 7.34168 21.1868C7.44669 21.288 7.53051 21.4091 7.58828 21.543C7.64605 21.677 7.67661 21.821 7.67817 21.9669C7.68196 22.113 7.65658 22.2584 7.60351 22.3947C7.55044 22.5309 7.47075 22.6551 7.3691 22.7602C7.26744 22.8653 7.14587 22.949 7.01148 23.0065C6.87708 23.0641 6.73257 23.0942 6.58639 23.0953C6.43965 23.1005 6.2934 23.0756 6.15666 23.0221C6.01993 22.9686 5.89562 22.8877 5.79144 22.7842ZM6.06591 21.5033C5.96922 21.602 5.90441 21.7274 5.87987 21.8633C5.85534 21.9993 5.87222 22.1394 5.92832 22.2657C5.98442 22.3919 6.07716 22.4984 6.1945 22.5712C6.31184 22.6441 6.44837 22.6801 6.58639 22.6744C6.67916 22.676 6.77131 22.6589 6.85726 22.6239C6.94322 22.589 7.02121 22.537 7.08654 22.4711C7.15025 22.406 7.20006 22.3287 7.23292 22.2437C7.26577 22.1588 7.28099 22.0681 7.27765 21.977C7.27889 21.8864 7.26148 21.7965 7.22651 21.7129C7.19153 21.6294 7.13973 21.5538 7.07434 21.4911C7.00756 21.4263 6.92816 21.3758 6.84107 21.343C6.75398 21.3101 6.66107 21.2955 6.56809 21.3C6.47561 21.2983 6.38375 21.3154 6.29811 21.3504C6.21247 21.3854 6.13484 21.4374 6.06997 21.5033" fill="white"/>
<path d="M5.76916 24.7502L6.43399 24.2074L6.38317 23.8923L5.65124 24.0082L5.58618 23.6015L7.6925 23.2579L7.82668 24.0996C7.84264 24.192 7.8397 24.2867 7.81803 24.3779C7.79636 24.4691 7.75643 24.555 7.70063 24.6303C7.6471 24.7064 7.57852 24.7708 7.49914 24.8194C7.41977 24.868 7.33127 24.8998 7.23911 24.9129C7.10995 24.9342 6.97737 24.9157 6.85892 24.86C6.73695 24.8048 6.63326 24.716 6.56005 24.6039L5.83829 25.1975L5.76916 24.7502ZM7.37126 23.7337L6.7471 23.8333L6.81622 24.2623C6.82204 24.3006 6.83615 24.3372 6.85757 24.3695C6.87899 24.4018 6.9072 24.4291 6.94024 24.4493C7.00867 24.4959 7.09273 24.5134 7.17405 24.4981C7.25466 24.4856 7.32741 24.4427 7.37736 24.3782C7.40187 24.3485 7.41979 24.3139 7.42995 24.2768C7.44012 24.2396 7.44229 24.2007 7.43632 24.1627L7.37126 23.7337Z" fill="white"/>
<path d="M7.64379 27.2693L7.48724 27.3161C7.35798 27.3624 7.22044 27.381 7.08351 27.3709C6.94658 27.3607 6.81331 27.322 6.69229 27.2571C6.57113 27.1893 6.46481 27.0978 6.3796 26.9881C6.29439 26.8785 6.23203 26.7529 6.19621 26.6187C6.14715 26.4755 6.12762 26.3239 6.1388 26.1729C6.14999 26.0219 6.19164 25.8748 6.26127 25.7404C6.32746 25.61 6.41971 25.4945 6.53232 25.4011C6.64492 25.3077 6.77549 25.2385 6.91593 25.1976C7.05555 25.1541 7.20241 25.1388 7.34798 25.1525C7.49356 25.1663 7.63495 25.2088 7.76396 25.2777C7.89296 25.3465 8.007 25.4403 8.09945 25.5536C8.1919 25.6669 8.26093 25.7974 8.30252 25.9376C8.36061 26.1189 8.3718 26.312 8.33505 26.4988C8.30115 26.675 8.22118 26.8392 8.10328 26.9745L7.79831 26.6919C7.86982 26.6119 7.91706 26.5132 7.93453 26.4073C7.95666 26.2899 7.94826 26.1688 7.91013 26.0555C7.88581 25.9662 7.84327 25.8829 7.78519 25.8108C7.72711 25.7387 7.65474 25.6795 7.57263 25.6367C7.48993 25.5936 7.39926 25.5679 7.30624 25.5613C7.21321 25.5546 7.11981 25.5672 7.03182 25.5981C6.94447 25.6233 6.86327 25.6663 6.7933 25.7244C6.72333 25.7825 6.6661 25.8544 6.6252 25.9356C6.58179 26.0223 6.55651 26.117 6.55092 26.2138C6.54533 26.3106 6.55953 26.4076 6.59267 26.4988C6.62899 26.6369 6.7071 26.7605 6.81631 26.8525C6.914 26.9332 7.03726 26.9765 7.16397 26.9745L6.97286 26.3646L7.32866 26.2548L7.64379 27.2693Z" fill="white"/>
<path d="M7.32244 29.2557L7.61115 28.9669L7.23298 28.1761L6.82636 28.2269L6.62305 27.8203L8.87168 27.5763L9.11566 28.0419L7.50542 29.6501L7.32244 29.2557ZM7.64774 28.1313L7.90595 28.6721L8.56061 28.0236L7.64774 28.1313Z" fill="white"/>
<path d="M10.1748 29.8392L10.4065 30.1909L8.62349 31.364L8.44864 31.0977L9.03418 29.6155L7.94442 30.3332L7.71265 29.9815L9.4957 28.8084L9.67054 29.0747L9.08907 30.5548L10.1748 29.8392Z" fill="white"/>
<path d="M10.6184 30.4335L8.95605 31.7729L9.22011 32.1006L10.8824 30.7612L10.6184 30.4335Z" fill="white"/>
<path d="M10.1404 32.5351L10.7646 33.1918L10.4718 33.4703L9.48169 32.4273L9.72566 32.1955L11.3481 31.8763L10.7524 31.2501L11.0431 30.9716L12.0089 31.9861L11.769 32.2138L10.1404 32.5351Z" fill="white"/>
<path d="M11.8908 34.678L12.0291 34.2938L11.3521 33.7367L11.0085 33.9542L10.6567 33.6655L12.5902 32.4965L12.9969 32.8259L12.2243 34.9545L11.8908 34.678ZM11.7079 33.5212L12.1653 33.9014L12.4804 33.0332L11.7079 33.5212Z" fill="white"/>
<path d="M14.7434 34.0274L14.5239 34.3649L14.042 34.0518L13.0986 35.5055L12.7449 35.2778L13.6882 33.8241L13.2064 33.511L13.426 33.1735L14.7434 34.0274Z" fill="white"/>
<path d="M14.9035 34.0907L13.894 35.9718L14.2649 36.1708L15.2743 34.2897L14.9035 34.0907Z" fill="white"/>
<path d="M16.5081 36.8575C16.306 36.9424 16.0834 36.9657 15.8681 36.9243C15.6529 36.8829 15.4548 36.7787 15.2987 36.6248C15.1426 36.471 15.0355 36.2744 14.9909 36.0598C14.9464 35.8452 14.9664 35.6222 15.0484 35.4189C15.1303 35.2157 15.2707 35.0412 15.4516 34.9176C15.6326 34.794 15.8461 34.7266 16.0653 34.7242C16.2844 34.7217 16.4994 34.7841 16.6831 34.9036C16.8669 35.0231 17.0111 35.1943 17.0977 35.3957C17.2107 35.668 17.2122 35.9738 17.1019 36.2472C16.9917 36.5206 16.7784 36.7398 16.5081 36.8575ZM15.4305 36.1134C15.5063 36.2797 15.6431 36.4106 15.8125 36.4791C15.982 36.5475 16.1713 36.5484 16.3414 36.4814C16.4266 36.4447 16.5034 36.391 16.567 36.3235C16.6306 36.256 16.6798 36.1762 16.7114 36.089C16.7481 36.0036 16.767 35.9116 16.767 35.8186C16.767 35.7256 16.7481 35.6336 16.7114 35.5482C16.636 35.3815 16.4992 35.2505 16.3295 35.1823C16.1597 35.1141 15.9703 35.1141 15.8005 35.1822C15.6316 35.2609 15.4988 35.4009 15.429 35.5737C15.3592 35.7465 15.3575 35.9394 15.4244 36.1134" fill="white"/>
<path d="M18.8786 35.5746L19.2893 35.6722L18.7973 37.7501L18.4842 37.6748L17.8946 36.1947L17.5957 37.4654L17.1851 37.3678L17.6771 35.29L17.9881 35.3632L18.5798 36.8412L18.8786 35.5746Z" fill="white"/>
<path d="M22.0241 37.7317C21.8908 37.8572 21.7286 37.9478 21.552 37.9956C21.3753 38.0433 21.1896 38.0467 21.0113 38.0055C20.833 37.9643 20.6676 37.8797 20.5298 37.7592C20.392 37.6388 20.2861 37.4862 20.2214 37.315C20.1567 37.1438 20.1353 36.9593 20.159 36.7778C20.1828 36.5963 20.2509 36.4235 20.3574 36.2747C20.4639 36.1259 20.6055 36.0057 20.7696 35.9247C20.9337 35.8437 21.1153 35.8044 21.2982 35.8104C21.5174 35.8186 21.7292 35.8912 21.9073 36.0192C22.0853 36.1472 22.2216 36.3249 22.2991 36.5301C22.3766 36.7352 22.3918 36.9587 22.3429 37.1724C22.294 37.3862 22.1831 37.5807 22.0241 37.7317ZM20.7554 37.4064C20.835 37.4904 20.9341 37.5534 21.0439 37.5899C21.1537 37.6264 21.2708 37.6352 21.3848 37.6156C21.4989 37.5961 21.6063 37.5486 21.6976 37.4776C21.789 37.4066 21.8614 37.3141 21.9084 37.2084C21.9555 37.1027 21.9757 36.9871 21.9674 36.8717C21.9591 36.7563 21.9224 36.6447 21.8606 36.5469C21.7989 36.449 21.714 36.3679 21.6134 36.3108C21.5128 36.2536 21.3997 36.2221 21.284 36.2191C21.1932 36.214 21.1023 36.2277 21.017 36.2592C20.9317 36.2906 20.8537 36.3393 20.7879 36.4021C20.7219 36.4665 20.6699 36.5438 20.6349 36.6291C20.5999 36.7144 20.5828 36.806 20.5846 36.8982C20.5789 36.9907 20.592 37.0835 20.6231 37.1708C20.6542 37.2582 20.7027 37.3383 20.7655 37.4064" fill="white"/>
<path d="M23.9045 36.1195L23.0546 36.2049L23.1054 36.7091L23.9309 36.6258L23.9716 37.0263L23.1461 37.1096L23.2295 37.929L22.8106 37.9717L22.5972 35.8471L23.8638 35.719L23.9045 36.1195Z" fill="white"/>
<path d="M26.1572 35.1802L26.2609 35.5706L25.7038 35.719L26.149 37.3923L25.7424 37.5L25.2972 35.8268L24.7421 35.9752L24.6384 35.5848L26.1572 35.1802Z" fill="white"/>
<path d="M27.8386 36.8595C27.6463 36.9454 27.429 36.957 27.2287 36.8921C27.1353 36.8582 27.0505 36.8042 26.9802 36.7339C26.9099 36.6637 26.856 36.5788 26.8221 36.4854L26.269 35.1395L26.6574 34.983L27.1819 36.2842C27.1984 36.3289 27.2236 36.3699 27.2561 36.4048C27.2885 36.4397 27.3276 36.4678 27.371 36.4875C27.4758 36.5133 27.5861 36.5054 27.6861 36.4649C27.7861 36.4244 27.8708 36.3533 27.9281 36.2618C27.9465 36.2173 27.956 36.1697 27.956 36.1215C27.956 36.0734 27.9465 36.0257 27.9281 35.9812L27.4015 34.68L27.7919 34.5215L28.3306 35.8531C28.3739 35.945 28.3964 36.0454 28.3964 36.1469C28.3964 36.2485 28.3739 36.3488 28.3306 36.4407C28.2299 36.6306 28.0616 36.7757 27.8589 36.8473" fill="white"/>
<path d="M30.0995 35.6925L29.3594 35.2595L29.0809 35.416L29.4469 36.0605L29.0789 36.2638L28.0237 34.4096L28.7678 33.9888C28.8488 33.9417 28.9385 33.9117 29.0315 33.9005C29.1245 33.8893 29.2188 33.8972 29.3086 33.9237C29.3986 33.9469 29.4829 33.9885 29.556 34.0459C29.6291 34.1033 29.6896 34.1752 29.7335 34.2571C29.7986 34.3705 29.8277 34.501 29.8169 34.6312C29.8077 34.765 29.7604 34.8934 29.6807 35.0013L30.4939 35.4689L30.0995 35.6925ZM28.5909 34.5458L28.9 35.0948L29.2781 34.8813C29.3118 34.8623 29.341 34.8364 29.3638 34.8052C29.3866 34.7739 29.4025 34.7382 29.4103 34.7003C29.4285 34.6193 29.4154 34.5343 29.3737 34.4625C29.3349 34.3902 29.2691 34.3361 29.1907 34.312C29.1542 34.2991 29.1153 34.2942 29.0766 34.2977C29.038 34.3012 29.0006 34.313 28.9671 34.3324L28.5909 34.5458Z" fill="white"/>
<path d="M32.1795 34.2389L31.7891 34.5276L30.5814 34.1799L31.1771 34.983L30.8396 35.2331L29.5669 33.5212L29.9044 33.2691L30.4655 34.0234L30.492 32.8319L30.8803 32.5432L30.8661 33.8465L32.1795 34.2389Z" fill="white"/>
<path d="M31.3059 32.1304L30.9922 32.4109L32.4154 34.0021L32.7291 33.7216L31.3059 32.1304Z" fill="white"/>
<path d="M33.8469 32.655C33.7506 32.7673 33.632 32.8584 33.4987 32.9224C33.3653 32.9865 33.2201 33.0221 33.0723 33.0271C32.7782 33.032 32.4934 32.9241 32.2764 32.7256C32.0593 32.5271 31.9265 32.253 31.9053 31.9597C31.9004 31.7184 31.9716 31.4817 32.1088 31.2832C32.246 31.0846 32.4423 30.9343 32.6697 30.8537C32.8396 30.7947 33.0222 30.7828 33.1983 30.8191L33.1089 31.2257C33.004 31.2 32.8939 31.2049 32.7917 31.24C32.6833 31.2786 32.5862 31.3435 32.5091 31.429C32.4435 31.4945 32.3924 31.5731 32.3591 31.6596C32.3258 31.7461 32.3111 31.8387 32.316 31.9312C32.3357 32.1159 32.4223 32.287 32.5593 32.4124C32.6963 32.5378 32.8744 32.6089 33.0601 32.6123C33.1525 32.6081 33.243 32.5848 33.3259 32.5439C33.4089 32.503 33.4824 32.4453 33.5419 32.3744C33.6229 32.2955 33.683 32.1977 33.7168 32.0898C33.7435 31.9858 33.7393 31.8763 33.7046 31.7747L34.1112 31.6486C34.1625 31.8205 34.1674 32.0029 34.1254 32.1772C34.0819 32.3599 33.9915 32.5281 33.8632 32.6652" fill="white"/>
<path d="M35.6113 30.3027C35.5167 30.4666 35.375 30.5984 35.2047 30.6809C35.0522 30.7537 34.8796 30.773 34.7147 30.7358L34.7269 30.3291C34.831 30.3531 34.9401 30.342 35.0371 30.2975C35.1342 30.253 35.2139 30.1776 35.2636 30.0831C35.3175 30.0094 35.346 29.9203 35.345 29.829C35.342 29.7959 35.3309 29.7641 35.3127 29.7363C35.2945 29.7084 35.2698 29.6855 35.2407 29.6695C35.2116 29.6534 35.1791 29.6447 35.1458 29.6442C35.1126 29.6436 35.0798 29.6512 35.0502 29.6663C34.9397 29.732 34.8373 29.8105 34.7452 29.9001C34.6803 29.9578 34.6124 30.0121 34.5419 30.0628C34.4778 30.1053 34.4097 30.1414 34.3386 30.1706C34.2645 30.2004 34.1842 30.2116 34.1048 30.2031C34.0171 30.1908 33.9332 30.1596 33.8588 30.1116C33.7825 30.0684 33.7173 30.008 33.6683 29.9354C33.6192 29.8627 33.5877 29.7797 33.5762 29.6928C33.5504 29.5138 33.5909 29.3316 33.69 29.1804C33.7727 29.0415 33.8943 28.9298 34.0397 28.8592C34.1831 28.7927 34.3422 28.7674 34.4992 28.786L34.487 29.1926C34.4003 29.1759 34.3105 29.1864 34.23 29.2228C34.1495 29.2593 34.0823 29.3197 34.0377 29.3959C33.9962 29.4554 33.9755 29.5268 33.9787 29.5992C33.9833 29.6293 33.9947 29.658 34.0118 29.6831C34.029 29.7082 34.0516 29.7291 34.0779 29.7443C34.1043 29.7595 34.1337 29.7687 34.164 29.771C34.1944 29.7733 34.2248 29.7688 34.2532 29.7578C34.3588 29.7054 34.4555 29.6368 34.5399 29.5545L34.6578 29.4529C34.6842 29.4305 34.7228 29.402 34.7737 29.3654C34.8131 29.3346 34.8553 29.3074 34.8997 29.2841C34.9343 29.2699 34.977 29.2536 35.0278 29.2373C35.0723 29.222 35.119 29.2144 35.1661 29.215C35.2143 29.2161 35.2621 29.2236 35.3084 29.2373C35.3633 29.2535 35.416 29.2767 35.4649 29.3065C35.5427 29.3512 35.6089 29.4134 35.6583 29.4882C35.7078 29.5631 35.739 29.6484 35.7496 29.7375C35.7679 29.9381 35.7154 30.1388 35.6011 30.3047" fill="white"/>
<path d="M34.8264 27.1148L35.1904 27.2897L34.9423 27.8081L36.5038 28.5563L36.3228 28.9365L34.7594 28.1883L34.5133 28.7068L34.1494 28.5319L34.8264 27.1148Z" fill="white"/>
<path d="M37.3009 26.4947H36.8943L36.6097 27.3242L36.9309 27.5702L36.7825 27.9992L35.0076 26.5964L35.1784 26.1043L37.4412 26.0881L37.3009 26.4947ZM36.2844 27.0701L36.4877 26.5008H35.5626L36.2844 27.0701Z" fill="white"/>
<path d="M35.6948 24.0509L36.0892 24.1383L35.9631 24.6994L37.6547 25.0756L37.5632 25.4863L35.8716 25.1101L35.7476 25.6713L35.3552 25.5838L35.6948 24.0509Z" fill="white"/>
<path d="M37.4775 23.6666L37.5751 22.7721L37.9756 22.8168L37.8333 24.1282L35.7107 23.8984L35.851 22.6013L36.2515 22.644L36.1559 23.5243L36.6073 23.5731L36.6947 22.77L37.0892 22.8127L37.0017 23.6158L37.4775 23.6666Z" fill="white"/>
<path d="M38.0367 21.6233C38.0467 21.811 38 21.9973 37.9025 22.158C37.8147 22.3018 37.6806 22.4114 37.5223 22.4691L37.3068 22.1133C37.4073 22.0776 37.493 22.0095 37.5505 21.9196C37.6079 21.8298 37.6338 21.7234 37.624 21.6172C37.6295 21.5262 37.606 21.4358 37.5569 21.359C37.5378 21.3341 37.5131 21.314 37.4849 21.3003C37.4567 21.2865 37.4256 21.2795 37.3943 21.2797C37.3588 21.2799 37.324 21.2894 37.2933 21.3073C37.2626 21.3251 37.2371 21.3507 37.2194 21.3814C37.1616 21.497 37.1179 21.6192 37.0893 21.7453C37.0678 21.8277 37.0406 21.9086 37.008 21.9873C36.9787 22.0592 36.9412 22.1274 36.8961 22.1906C36.8511 22.2569 36.7894 22.3102 36.7172 22.3451C36.6374 22.3814 36.5508 22.4002 36.4631 22.4C36.3751 22.4041 36.2873 22.388 36.2065 22.3527C36.1258 22.3174 36.0543 22.2641 35.9975 22.1967C35.8797 22.0591 35.8154 21.8837 35.8165 21.7026C35.8117 21.5418 35.8533 21.3829 35.9365 21.2452C36.021 21.1105 36.1414 21.002 36.2842 20.9321L36.4875 21.2838C36.4066 21.3161 36.3376 21.3724 36.2896 21.4451C36.2416 21.5178 36.217 21.6034 36.2191 21.6904C36.217 21.7633 36.2392 21.8348 36.2821 21.8937C36.3005 21.9174 36.3244 21.9362 36.3516 21.9486C36.3789 21.961 36.4088 21.9666 36.4387 21.9649C36.4705 21.9655 36.502 21.958 36.5301 21.943C36.5582 21.9281 36.582 21.9062 36.5993 21.8795C36.6593 21.7785 36.7032 21.6687 36.7294 21.5542C36.7498 21.4891 36.764 21.4403 36.7741 21.4058L36.825 21.2675C36.842 21.221 36.8631 21.1761 36.888 21.1333C36.9124 21.0948 36.9396 21.0581 36.9693 21.0236C36.9981 20.9859 37.0332 20.9536 37.073 20.928C37.1151 20.9048 37.1594 20.8857 37.2052 20.8711C37.2598 20.8543 37.3168 20.8461 37.3739 20.8467C37.4633 20.8407 37.5529 20.8561 37.6352 20.8914C37.7176 20.9267 37.7904 20.9811 37.8476 21.05C37.9717 21.2087 38.0364 21.4057 38.0306 21.6071" fill="white"/>
<path d="M6.31411 15.585L6.6943 15.7151L6.50522 16.26L8.14188 16.8252L8.00566 17.2237L6.369 16.6585L6.18195 17.2013L5.80176 17.0691L6.31411 15.585Z" fill="white"/>
<path d="M6.57435 14.5115C6.58383 14.5368 6.58782 14.5638 6.58607 14.5908C6.58432 14.6178 6.57686 14.6441 6.56418 14.668C6.55283 14.6924 6.53674 14.7144 6.51685 14.7325C6.49695 14.7507 6.47365 14.7647 6.44829 14.7737C6.42321 14.7844 6.39624 14.7898 6.369 14.7898C6.34176 14.7898 6.3148 14.7844 6.28971 14.7737C6.26547 14.7619 6.24382 14.7454 6.22602 14.7252C6.20822 14.7049 6.19462 14.6814 6.18602 14.6558C6.1754 14.6307 6.16992 14.6038 6.16992 14.5765C6.16992 14.5493 6.1754 14.5223 6.18602 14.4972C6.19805 14.4728 6.21487 14.451 6.23547 14.4332C6.25608 14.4154 6.28006 14.4019 6.30598 14.3935C6.33276 14.383 6.36147 14.3783 6.39021 14.3797C6.41895 14.3811 6.44706 14.3886 6.47269 14.4017C6.49693 14.4135 6.51858 14.43 6.53638 14.4502C6.55418 14.4705 6.56778 14.494 6.57638 14.5196M6.83052 13.9951C6.83897 14.0207 6.84224 14.0477 6.84015 14.0746C6.83805 14.1014 6.83063 14.1276 6.81832 14.1516C6.8068 14.1761 6.79051 14.198 6.77039 14.2162C6.75028 14.2343 6.72675 14.2482 6.70118 14.2571C6.67562 14.266 6.64853 14.2697 6.62151 14.268C6.5945 14.2663 6.56809 14.2592 6.54385 14.2472C6.51961 14.2354 6.49796 14.2189 6.48016 14.1986C6.46236 14.1784 6.44876 14.1548 6.44016 14.1292C6.43112 14.1035 6.42736 14.0762 6.42911 14.0489C6.43086 14.0217 6.43807 13.995 6.45033 13.9707C6.46213 13.9464 6.47863 13.9248 6.49887 13.907C6.51912 13.8892 6.5427 13.8756 6.56825 13.867C6.59305 13.8566 6.61965 13.8513 6.64652 13.8513C6.67339 13.8513 6.7 13.8566 6.7248 13.867C6.74941 13.8785 6.77145 13.895 6.78961 13.9152C6.80777 13.9355 6.82168 13.9592 6.83052 13.9849M8.78232 15.4223C8.69682 15.6178 8.54073 15.7739 8.3452 15.8594C8.25155 15.8986 8.15031 15.9161 8.04896 15.9109C7.9476 15.9056 7.84873 15.8776 7.75966 15.8289L6.47269 15.2149L6.65567 14.8388L7.91621 15.4487C7.95863 15.4721 8.00527 15.4869 8.05344 15.4921C8.1016 15.4974 8.15032 15.493 8.19678 15.4792C8.29205 15.4283 8.36886 15.3486 8.4163 15.2515C8.46374 15.1544 8.47941 15.0449 8.46109 14.9384C8.44289 14.8924 8.41546 14.8507 8.38049 14.8157C8.34552 14.7807 8.30376 14.7533 8.25777 14.7351L6.99724 14.1252L7.18022 13.747L8.47125 14.3773C8.56395 14.4157 8.64691 14.4744 8.71408 14.5489C8.78126 14.6235 8.83096 14.7121 8.85958 14.8083C8.91065 15.0141 8.8831 15.2316 8.78232 15.4182" fill="white"/>
<path d="M9.90843 13.4257L9.05249 13.3851L8.87764 13.6494L9.48757 14.056L9.26393 14.4016L7.48901 13.2265L7.95867 12.5149C8.00914 12.436 8.07522 12.3682 8.15283 12.3158C8.23045 12.2633 8.31797 12.2273 8.41002 12.2099C8.50069 12.1893 8.59466 12.1877 8.68599 12.2052C8.77732 12.2227 8.86404 12.2589 8.94066 12.3116C9.05077 12.3834 9.13654 12.4869 9.18667 12.6084C9.23777 12.7318 9.25395 12.8668 9.23343 12.9988L10.1666 13.0476L9.90843 13.4257ZM8.04202 13.0923L8.5686 13.44L8.80851 13.0801C8.82967 13.0477 8.8437 13.0112 8.84966 12.973C8.85562 12.9348 8.85337 12.8958 8.84307 12.8585C8.83448 12.8169 8.81763 12.7775 8.79354 12.7426C8.76944 12.7077 8.73858 12.678 8.70279 12.6552C8.66941 12.6319 8.63175 12.6154 8.59197 12.6066C8.5522 12.5979 8.51109 12.5971 8.47101 12.6044C8.43251 12.6089 8.39553 12.622 8.36279 12.6428C8.33006 12.6635 8.30242 12.6914 8.28193 12.7243L8.04202 13.0923Z" fill="white"/>
<path d="M11.3582 11.6427L11.0431 12.0107L9.78862 11.9416L10.549 12.5902L10.2745 12.9114L8.6521 11.5228L8.92657 11.2036L9.6402 11.8135L9.40232 10.6465L9.71746 10.2785L9.99193 11.5533L11.3582 11.6427Z" fill="white"/>
<path d="M11.3114 8.84107C11.4163 8.75284 11.5385 8.6877 11.6702 8.64986C11.802 8.61203 11.9402 8.60236 12.0759 8.62149C12.3536 8.66453 12.6053 8.80969 12.7817 9.02854C12.958 9.2474 13.0464 9.5242 13.0294 9.80477C13.0191 9.94139 12.9801 10.0743 12.9149 10.1948C12.8498 10.3153 12.7599 10.4207 12.6512 10.5042L11.9905 11.0368L10.6506 9.37374L11.3114 8.84107ZM12.3991 10.1911C12.4657 10.1399 12.521 10.0756 12.5616 10.0022C12.6022 9.92872 12.6271 9.84767 12.635 9.7641C12.6446 9.58724 12.5848 9.4136 12.4682 9.28022C12.3631 9.13793 12.206 9.04293 12.0311 9.01591C11.9478 9.00427 11.863 9.01059 11.7824 9.03443C11.7017 9.05828 11.6271 9.0991 11.5635 9.15417L11.2321 9.42254L12.0657 10.4574L12.3991 10.1911Z" fill="white"/>
<path d="M13.8059 9.17858L14.5724 8.7069L14.7839 9.0505L13.6596 9.74176L12.5393 7.92415L13.6514 7.23898L13.8629 7.58258L13.1086 8.04613L13.3465 8.43243L14.0357 8.00954L14.2431 8.34704L13.5559 8.76992L13.8059 9.17858Z" fill="white"/>
<path d="M15.4631 8.71504L13.9199 7.07634L14.3347 6.88522L15.4956 8.15796L15.2801 6.45014L15.6969 6.25699L15.9368 8.49749L15.4631 8.71504Z" fill="white"/>
<path d="M17.0084 7.65373L17.783 7.40162L17.907 7.78385L16.7339 8.16811L16.0691 6.13905L16.4696 6.0069L17.0084 7.65373Z" fill="white"/>
<path d="M18.4134 7.25726L19.2937 7.06818L19.3791 7.46057L18.0881 7.73911L17.6367 5.65312L18.9135 5.37662L18.9989 5.77104L18.1328 5.95809L18.2304 6.40131L19.0192 6.23053L19.1026 6.61886L18.3137 6.78964L18.4134 7.25726Z" fill="white"/>
<path d="M20.8019 5.15912L20.8446 5.55964L20.2713 5.6186L20.4482 7.34066L20.0293 7.38539L19.8524 5.6613L19.2811 5.72026L19.2405 5.32177L20.8019 5.15912Z" fill="white"/>
<path d="M21.6357 6.88114L22.4489 6.89334L22.4428 7.29793L21.2087 7.2776L21.2433 5.14282L21.6642 5.14892L21.6357 6.88114Z" fill="white"/>
<path d="M23.0835 6.94211L23.9781 7.03157L23.9374 7.43412L22.624 7.29994L22.8416 5.17532L24.1387 5.30748L24.098 5.708L23.2197 5.61854L23.173 6.0699L23.976 6.15326L23.9354 6.54768L23.1323 6.46432L23.0835 6.94211Z" fill="white"/>
<path d="M25.3156 7.72285L25.0534 6.9096L24.7423 6.84047L24.5817 7.56427L24.175 7.47278L24.6386 5.38882L25.4722 5.57384C25.5636 5.59283 25.6502 5.63019 25.7267 5.68366C25.8033 5.73714 25.8682 5.8056 25.9174 5.88491C25.9688 5.9625 26.0036 6.04985 26.0197 6.1415C26.0358 6.23315 26.0328 6.32714 26.011 6.41759C25.9835 6.54602 25.9175 6.66303 25.8219 6.75305C25.7262 6.8454 25.6064 6.90883 25.4762 6.93603L25.7629 7.82451L25.3156 7.72285ZM24.9598 5.86254L24.8236 6.47248L25.2445 6.566C25.2823 6.57453 25.3215 6.57476 25.3594 6.56669C25.3973 6.55861 25.433 6.54243 25.4641 6.51924C25.5333 6.47165 25.5808 6.39853 25.5962 6.31593C25.6066 6.27631 25.6089 6.23501 25.6029 6.19449C25.597 6.15397 25.5829 6.11506 25.5616 6.08009C25.5434 6.046 25.518 6.01632 25.4871 5.99314C25.4562 5.96995 25.4205 5.95383 25.3827 5.9459L24.9598 5.86254Z" fill="white"/>
<path d="M26.6005 5.86252L27.0071 5.99061L26.3585 8.02373L25.9519 7.89565L26.6005 5.86252ZM26.8485 5.77713C26.8186 5.76789 26.7908 5.75278 26.7668 5.73269C26.7428 5.7126 26.723 5.68792 26.7086 5.6601C26.6942 5.63228 26.6855 5.60187 26.683 5.57065C26.6805 5.53943 26.6842 5.50802 26.694 5.47826C26.7027 5.4487 26.7175 5.42129 26.7374 5.39782C26.7574 5.37435 26.7821 5.35535 26.8099 5.34204C26.8658 5.314 26.9305 5.30894 26.9902 5.32793C27.0498 5.34692 27.0996 5.38847 27.1291 5.4437C27.1433 5.47104 27.1519 5.50097 27.1544 5.53171C27.1568 5.56245 27.1531 5.59336 27.1433 5.62261C27.1339 5.65236 27.1186 5.67992 27.0983 5.70366C27.0781 5.72741 27.0533 5.74686 27.0254 5.76087C26.9987 5.77587 26.9692 5.78507 26.9387 5.78787C26.9082 5.79068 26.8775 5.78702 26.8485 5.77713Z" fill="white"/>
<path d="M29.5568 7.08037L29.384 7.44227L28.8635 7.19626L28.1214 8.76177L27.7412 8.58082L28.4833 7.01531L27.9649 6.77134L28.1377 6.40741L29.5568 7.08037Z" fill="white"/>
<path d="M29.3657 8.97929L30.1321 9.45097L29.9207 9.79457L28.7964 9.10127L29.9146 7.28366L31.0267 7.96882L30.8153 8.31039L30.061 7.84684L29.8231 8.23516L30.5123 8.65805L30.305 8.99555L29.6157 8.57266L29.3657 8.97929Z" fill="white"/>
<path d="M31.6671 10.3842C31.6216 10.448 31.5635 10.5016 31.4963 10.5418C31.4291 10.5821 31.3544 10.608 31.2768 10.618C31.1095 10.6352 30.9413 10.5959 30.799 10.5062L30.7298 10.5916C30.7667 10.6365 30.7906 10.6907 30.799 10.7482C30.8033 10.777 30.8014 10.8065 30.7933 10.8346C30.7852 10.8627 30.7712 10.8887 30.7522 10.9108C30.6167 11.0789 30.3829 11.0145 30.0508 10.7177L30.2216 10.5001C30.3862 10.6465 30.4859 10.7034 30.5184 10.6546C30.5509 10.6058 30.5184 10.5631 30.4147 10.4757L30.5448 10.311C30.4305 10.1996 30.3489 10.059 30.309 9.90442C30.2723 9.76278 30.2787 9.61343 30.3273 9.47543L30.7339 9.53236C30.6979 9.63282 30.6965 9.74247 30.73 9.84381C30.7636 9.94514 30.8301 10.0323 30.9189 10.0915C30.986 10.1539 31.0717 10.1925 31.1629 10.2013C31.1962 10.2018 31.2291 10.1942 31.2588 10.1791C31.2885 10.1639 31.314 10.1417 31.3331 10.1144C31.3521 10.0871 31.3642 10.0555 31.3682 10.0224C31.3722 9.98937 31.368 9.95582 31.356 9.92475C31.3021 9.80701 31.2338 9.69639 31.1527 9.59538C31.1021 9.52587 31.0559 9.4532 31.0145 9.37784C30.9789 9.31328 30.9503 9.24512 30.9291 9.17453C30.9088 9.09723 30.9088 9.01598 30.9291 8.93868C30.9504 8.85292 30.9907 8.77302 31.047 8.70487C31.098 8.63342 31.165 8.57488 31.2427 8.53393C31.3204 8.49298 31.4065 8.47076 31.4943 8.46903C31.6746 8.46383 31.8507 8.52373 31.9904 8.63778C32.1188 8.73463 32.2163 8.86672 32.271 9.01798C32.322 9.16863 32.3304 9.33045 32.2953 9.48559L31.8887 9.42867C31.9145 9.34419 31.9137 9.25384 31.8864 9.16984C31.8591 9.08584 31.8067 9.01225 31.7362 8.95901C31.6793 8.91053 31.6077 8.8826 31.5329 8.87972C31.5032 8.88022 31.474 8.88721 31.4473 8.90021C31.4206 8.9132 31.3971 8.93189 31.3784 8.95495C31.3588 8.98026 31.3455 9.00984 31.3395 9.04128C31.3335 9.07273 31.335 9.10514 31.3438 9.1359C31.3851 9.24556 31.4427 9.34838 31.5146 9.44087L31.6021 9.56895C31.6204 9.59742 31.6468 9.64011 31.6773 9.69501C31.7032 9.73756 31.725 9.78249 31.7423 9.82919C31.7568 9.87172 31.7684 9.9152 31.7769 9.95931C31.7848 10.0064 31.7848 10.0545 31.7769 10.1016C31.7696 10.1491 31.7567 10.1955 31.7383 10.2399C31.717 10.2929 31.6875 10.3423 31.6508 10.3863" fill="white"/>
<path d="M32.6206 12.1693L32.2791 11.8278L32.4458 10.5815L31.7382 11.289L31.4414 10.9922L32.95 9.47952L33.2468 9.77839L32.582 10.4432L33.7653 10.2948L34.1089 10.6384L32.8158 10.8133L32.6206 12.1693Z" fill="white"/>
<path d="M34.3447 10.9454L34.6152 11.2686L32.9887 12.639L32.7 12.3116L34.3447 10.9454ZM34.5989 11.0084C34.5788 10.9843 34.5638 10.9564 34.5547 10.9263C34.5456 10.8963 34.5427 10.8647 34.546 10.8335C34.5537 10.7729 34.5848 10.7176 34.6327 10.6796C34.6805 10.6416 34.7414 10.6239 34.8022 10.6302C34.8331 10.6329 34.8633 10.6416 34.8908 10.6559C34.9184 10.6702 34.9429 10.6898 34.9628 10.7136C34.9828 10.7374 34.9977 10.7649 35.0068 10.7946C35.0159 10.8243 35.0189 10.8555 35.0157 10.8864C35.0098 10.9482 34.9799 11.0051 34.9323 11.045C34.8845 11.0853 34.8226 11.1052 34.7602 11.1003C34.6978 11.0953 34.6398 11.066 34.5989 11.0186" fill="white"/>
<path d="M33.7774 13.0151L34.2512 13.6779L33.9238 13.9117L33.2041 12.9073L34.9404 11.6651L35.1864 12.0066L33.7774 13.0151Z" fill="white"/>
<path d="M34.733 15.341L35.0055 15.038L34.5846 14.2675L34.178 14.3407L33.9604 13.934L36.1969 13.566L36.4449 14.0235L34.9363 15.7151L34.733 15.341ZM34.9912 14.1983L35.2799 14.7249L35.8899 14.0377L34.9912 14.1983Z" fill="white"/>
<path d="M37.4187 16.2193L37.0467 16.3718L36.8291 15.8371L35.225 16.4897L35.0664 16.1014L36.6705 15.4467L36.453 14.9161L36.8271 14.7656L37.4187 16.2193Z" fill="white"/>
<path d="M37.5213 16.5764L35.4841 17.2144L35.6099 17.6161L37.6471 16.978L37.5213 16.5764Z" fill="white"/>
<path d="M21.7473 39.8665C18.1631 39.8669 14.6592 38.8044 11.6789 36.8133C8.69858 34.8223 6.37562 31.9922 5.00382 28.6809C3.63201 25.3696 3.27298 21.7258 3.97213 18.2105C4.67127 14.6951 6.3972 11.466 8.93162 8.93159C11.466 6.39716 14.6951 4.67124 18.2105 3.9721C21.7258 3.27295 25.3696 3.63198 28.6809 5.00379C31.9922 6.37559 34.8223 8.69855 36.8134 11.6789C38.8044 14.6592 39.8669 18.1631 39.8665 21.7473C39.8611 26.5511 37.9504 31.1567 34.5536 34.5535C31.1567 37.9504 26.5512 39.8611 21.7473 39.8665ZM21.7473 3.82935C18.2034 3.82894 14.7389 4.87947 11.7921 6.84807C8.84523 8.81667 6.54832 11.6149 5.19185 14.889C3.83537 18.163 3.48025 21.7658 4.17138 25.2416C4.86252 28.7175 6.56888 31.9104 9.07466 34.4164C11.5804 36.9225 14.7731 38.6292 18.2489 39.3207C21.7247 40.0123 25.3275 39.6576 28.6017 38.3015C31.8759 36.9454 34.6744 34.6488 36.6433 31.7021C38.6123 28.7555 39.6632 25.2912 39.6632 21.7473C39.6583 16.997 37.7693 12.4426 34.4105 9.08345C31.0517 5.7243 26.4976 3.83473 21.7473 3.82935ZM21.7473 34.7898C19.1672 34.7902 16.6449 34.0254 14.4994 32.5922C12.3539 31.159 10.6816 29.1218 9.69409 26.7381C8.70652 24.3544 8.44803 21.7315 8.95129 19.2009C9.45455 16.6703 10.697 14.3458 12.5214 12.5214C14.3458 10.6969 16.6703 9.45452 19.2009 8.95126C21.7315 8.448 24.3545 8.70649 26.7381 9.69406C29.1218 10.6816 31.159 12.3539 32.5922 14.4994C34.0254 16.6448 34.7902 19.1671 34.7898 21.7473C34.7855 25.205 33.41 28.5199 30.965 30.9649C28.52 33.41 25.2051 34.7854 21.7473 34.7898ZM21.7473 8.91216C19.2075 8.91175 16.7245 9.66454 14.6125 11.0753C12.5006 12.4861 10.8543 14.4914 9.88212 16.8378C8.90988 19.1842 8.65529 21.7662 9.15055 24.2573C9.6458 26.7484 10.8686 29.0367 12.6644 30.8328C14.4602 32.6288 16.7483 33.852 19.2393 34.3477C21.7303 34.8433 24.3124 34.5891 26.6589 33.6173C29.0055 32.6454 31.0111 30.9995 32.4222 28.8878C33.8333 26.776 34.5865 24.2932 34.5865 21.7534C34.5827 18.3492 33.2289 15.0855 30.8219 12.6781C28.415 10.2708 25.1515 8.91646 21.7473 8.91216Z" fill="white"/>
<path d="M57.9405 17.7779C58.9648 17.7779 59.8588 17.9857 60.6222 18.4012C61.3953 18.8168 61.9945 19.4159 62.4197 20.1987C62.8449 20.9718 63.0575 21.9141 63.0575 23.0254C63.0575 24.1078 62.8401 25.0549 62.4052 25.8666C61.9703 26.6784 61.3615 27.3114 60.5787 27.7656C59.8056 28.2198 58.9214 28.4469 57.926 28.4469C56.9016 28.4469 56.0028 28.2392 55.2297 27.8236C54.4663 27.4081 53.8719 26.8089 53.4467 26.0261C53.0215 25.2433 52.8089 24.3011 52.8089 23.1994C52.8089 22.117 53.0263 21.1699 53.4612 20.3582C53.9057 19.5464 54.5097 18.9134 55.2732 18.4592C56.0463 18.005 56.9354 17.7779 57.9405 17.7779ZM57.8825 18.0388C57.3413 18.0388 56.8678 18.2562 56.4619 18.6911C56.0656 19.126 55.7564 19.7252 55.5341 20.4886C55.3215 21.2521 55.2152 22.1363 55.2152 23.1414C55.2152 24.1658 55.336 25.0597 55.5776 25.8232C55.8289 26.5769 56.1623 27.1616 56.5778 27.5772C57.003 27.9831 57.4718 28.186 57.9839 28.186C58.5251 28.186 58.9938 27.9686 59.3901 27.5337C59.7959 27.0988 60.1052 26.4996 60.3178 25.7362C60.5401 24.9631 60.6512 24.0788 60.6512 23.0834C60.6512 22.0494 60.5256 21.1554 60.2743 20.4017C60.0327 19.6479 59.6993 19.068 59.2741 18.6621C58.8585 18.2466 58.3947 18.0388 57.8825 18.0388ZM69.0149 20.5466C69.3242 20.5466 69.5755 20.6143 69.7687 20.7496C69.962 20.8752 70.1021 21.0395 70.1891 21.2424C70.2858 21.4454 70.3341 21.658 70.3341 21.8802C70.3341 22.2378 70.2278 22.5326 70.0152 22.7645C69.8122 22.9868 69.5416 23.0979 69.2034 23.0979C68.8652 23.0979 68.5994 23.0158 68.4061 22.8515C68.2225 22.6775 68.1307 22.4504 68.1307 22.1702C68.1307 21.8996 68.1887 21.6773 68.3046 21.5033C68.4303 21.3197 68.5849 21.1651 68.7685 21.0395C68.6332 21.0008 68.4979 21.0057 68.3626 21.054C68.1114 21.0926 67.8843 21.2134 67.6813 21.4164C67.488 21.6097 67.3334 21.8416 67.2174 22.1122C67.1015 22.3828 67.0435 22.6485 67.0435 22.9095V26.7509C67.0435 27.2148 67.1546 27.5289 67.3769 27.6931C67.6088 27.8574 67.9519 27.9396 68.4061 27.9396V28.244C68.1838 28.2343 67.8601 28.2247 67.4349 28.215C67.0097 28.1957 66.5651 28.186 66.1013 28.186C65.7147 28.186 65.3233 28.1957 64.9271 28.215C64.5309 28.2247 64.2313 28.2343 64.0283 28.244V27.9396C64.3666 27.9396 64.6033 27.8671 64.7386 27.7221C64.8836 27.5772 64.9561 27.3017 64.9561 26.8959V22.3296C64.9561 21.8947 64.8884 21.5758 64.7531 21.3729C64.6275 21.1603 64.3859 21.054 64.0283 21.054V20.7496C64.3376 20.7785 64.6372 20.793 64.9271 20.793C65.333 20.793 65.7099 20.7785 66.0578 20.7496C66.4153 20.7109 66.7439 20.6577 67.0435 20.5901V21.9382C67.1595 21.6773 67.3141 21.4405 67.5074 21.2279C67.7006 21.0153 67.9229 20.851 68.1742 20.7351C68.4254 20.6094 68.7057 20.5466 69.0149 20.5466ZM73.6072 30.9692C73.0081 30.9692 72.4717 30.9161 71.9982 30.8098C71.5343 30.7131 71.1671 30.5585 70.8965 30.3459C70.6356 30.143 70.5051 29.8917 70.5051 29.5921C70.5051 29.2925 70.6404 29.0219 70.911 28.7803C71.1816 28.5484 71.5826 28.3648 72.1141 28.2295L72.2446 28.4614C72.061 28.6064 71.9257 28.761 71.8387 28.9253C71.7614 29.0993 71.7228 29.278 71.7228 29.4617C71.7228 29.8675 71.9064 30.1768 72.2736 30.3894C72.6505 30.6117 73.1579 30.7228 73.7957 30.7228C74.2306 30.7228 74.6171 30.6648 74.9554 30.5489C75.3033 30.4329 75.5739 30.2589 75.7671 30.027C75.9701 29.7951 76.0716 29.51 76.0716 29.1717C76.0716 28.8818 75.9652 28.6354 75.7526 28.4324C75.54 28.2392 75.1148 28.1425 74.477 28.1425H73.5782C73.182 28.1425 72.8341 28.099 72.5345 28.0121C72.2446 27.9251 72.0175 27.7898 71.8532 27.6062C71.6889 27.4129 71.6068 27.1713 71.6068 26.8814C71.6068 26.4755 71.7662 26.1179 72.0852 25.8087C72.4041 25.4994 72.8776 25.2095 73.5058 24.9389L73.6507 25.0549C73.4671 25.1708 73.2932 25.2965 73.1289 25.4318C72.9742 25.5574 72.8969 25.7217 72.8969 25.9246C72.8969 26.2339 73.0902 26.3885 73.4768 26.3885H75.0568C75.8589 26.3885 76.5258 26.5383 77.0573 26.8379C77.5888 27.1278 77.8546 27.6158 77.8546 28.302C77.8546 28.7755 77.6999 29.2152 77.3907 29.6211C77.0911 30.027 76.6272 30.3507 75.9991 30.5923C75.3709 30.8436 74.5736 30.9692 73.6072 30.9692ZM73.7522 25.1563C72.9308 25.1563 72.2446 24.9727 71.6938 24.6055C71.1429 24.2286 70.8675 23.6439 70.8675 22.8515C70.8675 22.0494 71.1429 21.4647 71.6938 21.0975C72.2446 20.7302 72.9308 20.5466 73.7522 20.5466C74.5833 20.5466 75.2694 20.7302 75.8106 21.0975C76.3615 21.4647 76.6369 22.0494 76.6369 22.8515C76.6369 23.6439 76.3615 24.2286 75.8106 24.6055C75.2694 24.9727 74.5833 25.1563 73.7522 25.1563ZM73.7522 24.8954C74.0131 24.8954 74.2161 24.7505 74.361 24.4605C74.506 24.1609 74.5785 23.6246 74.5785 22.8515C74.5785 22.0784 74.506 21.5468 74.361 21.2569C74.2161 20.9573 74.0131 20.8075 73.7522 20.8075C73.5009 20.8075 73.298 20.9573 73.1434 21.2569C72.9984 21.5468 72.9259 22.0784 72.9259 22.8515C72.9259 23.6246 72.9984 24.1609 73.1434 24.4605C73.298 24.7505 73.5009 24.8954 73.7522 24.8954ZM76.0136 21.7933L75.7236 21.6918C75.8686 21.3149 76.1005 21.0008 76.4195 20.7496C76.748 20.4983 77.1008 20.3727 77.4777 20.3727C77.7869 20.3727 78.0188 20.4596 78.1735 20.6336C78.3378 20.7979 78.4199 21.0153 78.4199 21.2859C78.4199 21.5758 78.3426 21.7933 78.188 21.9382C78.0333 22.0735 77.8594 22.1412 77.6661 22.1412C77.5018 22.1412 77.3472 22.0832 77.2022 21.9672C77.0669 21.8513 76.9896 21.6773 76.9703 21.4454C76.951 21.2038 77.0331 20.8945 77.2167 20.5176L77.3182 20.6046C76.951 20.7399 76.6756 20.8993 76.4919 21.083C76.3083 21.2569 76.1489 21.4937 76.0136 21.7933ZM80.5794 28.3455C79.9319 28.3455 79.4632 28.1763 79.1732 27.8381C78.8833 27.4999 78.7384 27.0891 78.7384 26.6059C78.7384 26.1904 78.8302 25.8521 79.0138 25.5912C79.2071 25.3303 79.4535 25.1177 79.7531 24.9534C80.0527 24.7794 80.3667 24.6393 80.6953 24.533C81.0336 24.417 81.3525 24.3059 81.6521 24.1996C81.9613 24.0836 82.2077 23.9532 82.3914 23.8082C82.5846 23.6633 82.6813 23.4796 82.6813 23.2574V22.1267C82.6813 21.8754 82.6378 21.6531 82.5508 21.4599C82.4735 21.2569 82.3479 21.1023 82.1739 20.996C82.0096 20.8897 81.7922 20.8365 81.5216 20.8365C81.3283 20.8365 81.135 20.8655 80.9418 20.9235C80.7485 20.9718 80.589 21.0588 80.4634 21.1844C80.734 21.2811 80.9418 21.4309 81.0867 21.6338C81.2413 21.8271 81.3186 22.0494 81.3186 22.3006C81.3186 22.6292 81.2027 22.8901 80.9707 23.0834C80.7485 23.2767 80.4827 23.3733 80.1735 23.3733C79.8256 23.3733 79.5598 23.267 79.3762 23.0544C79.2022 22.8321 79.1153 22.5664 79.1153 22.2571C79.1153 21.9769 79.1829 21.7449 79.3182 21.5613C79.4632 21.3777 79.6613 21.2038 79.9125 21.0395C80.1831 20.8849 80.5069 20.7641 80.8838 20.6771C81.2703 20.5901 81.6859 20.5466 82.1304 20.5466C82.575 20.5466 82.976 20.5949 83.3336 20.6916C83.6912 20.7785 83.9907 20.9428 84.2323 21.1844C84.4546 21.4067 84.5996 21.6821 84.6672 22.0107C84.7349 22.3296 84.7687 22.7355 84.7687 23.2284V27.1713C84.7687 27.4032 84.7929 27.5675 84.8412 27.6641C84.8895 27.7608 84.9716 27.8091 85.0876 27.8091C85.1842 27.8091 85.2761 27.7849 85.363 27.7366C85.45 27.6883 85.5322 27.6303 85.6095 27.5627L85.7544 27.8091C85.5515 27.9831 85.3147 28.1184 85.0441 28.215C84.7832 28.302 84.4884 28.3455 84.1599 28.3455C83.58 28.3455 83.1935 28.2295 83.0002 27.9976C82.8166 27.756 82.7199 27.4805 82.7103 27.1713C82.4687 27.5675 82.1691 27.8623 81.8115 28.0555C81.4636 28.2488 81.0529 28.3455 80.5794 28.3455ZM81.6955 27.4177C81.8792 27.4177 82.0483 27.3742 82.2029 27.2873C82.3672 27.2003 82.5266 27.0457 82.6813 26.8234V23.8517C82.5653 24.045 82.401 24.2093 82.1884 24.3446C81.9855 24.4702 81.7729 24.6103 81.5506 24.7649C81.338 24.9099 81.1592 25.0984 81.0142 25.3303C80.8693 25.5622 80.7968 25.8715 80.7968 26.258C80.7968 26.6736 80.8838 26.9732 81.0577 27.1568C81.2317 27.3307 81.4443 27.4177 81.6955 27.4177ZM91.5612 20.5466C91.9671 20.5466 92.2957 20.5998 92.5469 20.7061C92.8079 20.8027 93.0108 20.938 93.1558 21.112C93.3104 21.2956 93.4215 21.5323 93.4892 21.8223C93.5665 22.1122 93.6051 22.5036 93.6051 22.9964V26.8959C93.6051 27.3017 93.6728 27.5772 93.8081 27.7221C93.953 27.8671 94.1946 27.9396 94.5329 27.9396V28.244C94.3493 28.2343 94.0738 28.2247 93.7066 28.215C93.3394 28.1957 92.977 28.186 92.6194 28.186C92.2522 28.186 91.8898 28.1957 91.5322 28.215C91.1843 28.2247 90.9185 28.2343 90.7349 28.244V27.9396C91.0249 27.9396 91.2278 27.8671 91.3438 27.7221C91.4597 27.5772 91.5177 27.3017 91.5177 26.8959V22.3876C91.5177 22.146 91.4936 21.9382 91.4452 21.7643C91.3969 21.5807 91.3099 21.4405 91.1843 21.3439C91.0587 21.2376 90.8702 21.1844 90.619 21.1844C90.2131 21.1844 89.87 21.3439 89.5897 21.6628C89.3192 21.9817 89.1839 22.3828 89.1839 22.866V26.8959C89.1839 27.3017 89.2418 27.5772 89.3578 27.7221C89.4834 27.8671 89.6864 27.9396 89.9666 27.9396V28.244C89.7927 28.2343 89.5366 28.2247 89.1984 28.215C88.8698 28.1957 88.5267 28.186 88.1691 28.186C87.8019 28.186 87.425 28.1957 87.0385 28.215C86.6519 28.2247 86.362 28.2343 86.1687 28.244V27.9396C86.5069 27.9396 86.7437 27.8671 86.879 27.7221C87.024 27.5772 87.0964 27.3017 87.0964 26.8959V22.3296C87.0964 21.8947 87.0288 21.5758 86.8935 21.3729C86.7679 21.1603 86.5263 21.054 86.1687 21.054V20.7496C86.4779 20.7785 86.7775 20.793 87.0674 20.793C87.4733 20.793 87.8502 20.7785 88.1981 20.7496C88.5557 20.7109 88.8843 20.6577 89.1839 20.5901V21.8947C89.4255 21.4019 89.754 21.054 90.1696 20.851C90.5851 20.6481 91.049 20.5466 91.5612 20.5466ZM96.9575 17.0096C97.3633 17.0096 97.6823 17.1111 97.9142 17.314C98.1558 17.5073 98.2766 17.7779 98.2766 18.1258C98.2766 18.4737 98.1558 18.7491 97.9142 18.9521C97.6823 19.1453 97.3633 19.242 96.9575 19.242C96.5516 19.242 96.2278 19.1453 95.9862 18.9521C95.7543 18.7491 95.6383 18.4737 95.6383 18.1258C95.6383 17.7779 95.7543 17.5073 95.9862 17.314C96.2278 17.1111 96.5516 17.0096 96.9575 17.0096ZM98.0881 20.5901V26.8959C98.0881 27.3017 98.1558 27.5772 98.2911 27.7221C98.436 27.8671 98.6776 27.9396 99.0159 27.9396V28.244C98.8419 28.2343 98.5713 28.2247 98.2041 28.215C97.8369 28.1957 97.4648 28.186 97.0879 28.186C96.711 28.186 96.3293 28.1957 95.9427 28.215C95.5562 28.2247 95.2663 28.2343 95.073 28.244V27.9396C95.4112 27.9396 95.648 27.8671 95.7833 27.7221C95.9282 27.5772 96.0007 27.3017 96.0007 26.8959V22.3296C96.0007 21.8947 95.9331 21.5758 95.7978 21.3729C95.6721 21.1603 95.4305 21.054 95.073 21.054V20.7496C95.3822 20.7785 95.6818 20.793 95.9717 20.793C96.3776 20.793 96.7545 20.7785 97.1024 20.7496C97.46 20.7109 97.7886 20.6577 98.0881 20.5901ZM105.734 20.6771L102.11 28.0265H102.864C103.24 28.0265 103.593 27.9492 103.922 27.7946C104.26 27.6303 104.54 27.3597 104.763 26.9828C104.994 26.6059 105.135 26.0889 105.183 25.4318H105.487C105.487 26.1372 105.492 26.7171 105.502 27.1713C105.511 27.6158 105.526 27.9927 105.545 28.302C105.11 28.2826 104.656 28.2681 104.183 28.2585C103.709 28.2488 103.236 28.244 102.762 28.244C102.269 28.244 101.762 28.2488 101.24 28.2585C100.718 28.2778 100.22 28.2971 99.7469 28.3165L103.371 20.967H102.559C102.173 20.967 101.815 21.0491 101.486 21.2134C101.168 21.3681 100.902 21.6386 100.689 22.0252C100.486 22.4021 100.356 22.9143 100.298 23.5618H99.9933C99.9933 22.8466 99.9885 22.2668 99.9788 21.8223C99.9692 21.3777 99.9547 21.0008 99.9354 20.6916C100.38 20.7109 100.839 20.7254 101.312 20.7351C101.786 20.7447 102.255 20.7496 102.719 20.7496C103.221 20.7496 103.728 20.7447 104.241 20.7351C104.763 20.7157 105.26 20.6964 105.734 20.6771ZM108.425 28.3455C107.777 28.3455 107.308 28.1763 107.019 27.8381C106.729 27.4999 106.584 27.0891 106.584 26.6059C106.584 26.1904 106.676 25.8521 106.859 25.5912C107.052 25.3303 107.299 25.1177 107.598 24.9534C107.898 24.7794 108.212 24.6393 108.541 24.533C108.879 24.417 109.198 24.3059 109.497 24.1996C109.807 24.0836 110.053 23.9532 110.237 23.8082C110.43 23.6633 110.527 23.4796 110.527 23.2574V22.1267C110.527 21.8754 110.483 21.6531 110.396 21.4599C110.319 21.2569 110.193 21.1023 110.019 20.996C109.855 20.8897 109.638 20.8365 109.367 20.8365C109.174 20.8365 108.98 20.8655 108.787 20.9235C108.594 20.9718 108.434 21.0588 108.309 21.1844C108.579 21.2811 108.787 21.4309 108.932 21.6338C109.087 21.8271 109.164 22.0494 109.164 22.3006C109.164 22.6292 109.048 22.8901 108.816 23.0834C108.594 23.2767 108.328 23.3733 108.019 23.3733C107.671 23.3733 107.405 23.267 107.222 23.0544C107.048 22.8321 106.961 22.5664 106.961 22.2571C106.961 21.9769 107.028 21.7449 107.164 21.5613C107.308 21.3777 107.507 21.2038 107.758 21.0395C108.028 20.8849 108.352 20.7641 108.729 20.6771C109.116 20.5901 109.531 20.5466 109.976 20.5466C110.42 20.5466 110.821 20.5949 111.179 20.6916C111.536 20.7785 111.836 20.9428 112.078 21.1844C112.3 21.4067 112.445 21.6821 112.513 22.0107C112.58 22.3296 112.614 22.7355 112.614 23.2284V27.1713C112.614 27.4032 112.638 27.5675 112.687 27.6641C112.735 27.7608 112.817 27.8091 112.933 27.8091C113.03 27.8091 113.121 27.7849 113.208 27.7366C113.295 27.6883 113.377 27.6303 113.455 27.5627L113.6 27.8091C113.397 27.9831 113.16 28.1184 112.889 28.215C112.629 28.302 112.334 28.3455 112.005 28.3455C111.425 28.3455 111.039 28.2295 110.846 27.9976C110.662 27.756 110.565 27.4805 110.556 27.1713C110.314 27.5675 110.014 27.8623 109.657 28.0555C109.309 28.2488 108.898 28.3455 108.425 28.3455ZM109.541 27.4177C109.724 27.4177 109.894 27.3742 110.048 27.2873C110.213 27.2003 110.372 27.0457 110.527 26.8234V23.8517C110.411 24.045 110.246 24.2093 110.034 24.3446C109.831 24.4702 109.618 24.6103 109.396 24.7649C109.183 24.9099 109.005 25.0984 108.86 25.3303C108.715 25.5622 108.642 25.8715 108.642 26.258C108.642 26.6736 108.729 26.9732 108.903 27.1568C109.077 27.3307 109.29 27.4177 109.541 27.4177ZM116.957 18.3722V20.7496H118.667V21.0395H116.957V26.8959C116.957 27.1858 117.01 27.3936 117.116 27.5192C117.222 27.6352 117.382 27.6931 117.595 27.6931C117.768 27.6931 117.942 27.6303 118.116 27.5047C118.29 27.3694 118.445 27.1423 118.58 26.8234L118.827 26.9538C118.672 27.3887 118.435 27.7463 118.116 28.0265C117.807 28.3068 117.382 28.4469 116.841 28.4469C116.522 28.4469 116.242 28.4034 116 28.3165C115.758 28.2392 115.555 28.1184 115.391 27.9541C115.179 27.7415 115.038 27.4805 114.971 27.1713C114.903 26.8524 114.869 26.4417 114.869 25.9391V21.0395H113.652V20.7496H114.869V18.8361C115.275 18.8361 115.647 18.8023 115.985 18.7346C116.333 18.6573 116.657 18.5365 116.957 18.3722ZM120.995 17.0096C121.401 17.0096 121.72 17.1111 121.951 17.314C122.193 17.5073 122.314 17.7779 122.314 18.1258C122.314 18.4737 122.193 18.7491 121.951 18.9521C121.72 19.1453 121.401 19.242 120.995 19.242C120.589 19.242 120.265 19.1453 120.024 18.9521C119.792 18.7491 119.676 18.4737 119.676 18.1258C119.676 17.7779 119.792 17.5073 120.024 17.314C120.265 17.1111 120.589 17.0096 120.995 17.0096ZM122.125 20.5901V26.8959C122.125 27.3017 122.193 27.5772 122.328 27.7221C122.473 27.8671 122.715 27.9396 123.053 27.9396V28.244C122.879 28.2343 122.609 28.2247 122.241 28.215C121.874 28.1957 121.502 28.186 121.125 28.186C120.748 28.186 120.367 28.1957 119.98 28.215C119.593 28.2247 119.304 28.2343 119.11 28.244V27.9396C119.449 27.9396 119.685 27.8671 119.821 27.7221C119.966 27.5772 120.038 27.3017 120.038 26.8959V22.3296C120.038 21.8947 119.97 21.5758 119.835 21.3729C119.709 21.1603 119.468 21.054 119.11 21.054V20.7496C119.42 20.7785 119.719 20.793 120.009 20.793C120.415 20.793 120.792 20.7785 121.14 20.7496C121.497 20.7109 121.826 20.6577 122.125 20.5901ZM127.423 20.5466C128.128 20.5466 128.747 20.6771 129.278 20.938C129.81 21.1989 130.225 21.6193 130.525 22.1992C130.824 22.779 130.974 23.5473 130.974 24.504C130.974 25.4608 130.824 26.229 130.525 26.8089C130.225 27.3791 129.81 27.7946 129.278 28.0555C128.747 28.3165 128.128 28.4469 127.423 28.4469C126.737 28.4469 126.123 28.3165 125.582 28.0555C125.05 27.7946 124.63 27.3791 124.321 26.8089C124.021 26.229 123.871 25.4608 123.871 24.504C123.871 23.5473 124.021 22.779 124.321 22.1992C124.63 21.6193 125.05 21.1989 125.582 20.938C126.123 20.6771 126.737 20.5466 127.423 20.5466ZM127.423 20.8365C127.036 20.8365 126.712 21.1265 126.451 21.7063C126.191 22.2765 126.06 23.209 126.06 24.504C126.06 25.799 126.191 26.7316 126.451 27.3017C126.712 27.8719 127.036 28.157 127.423 28.157C127.819 28.157 128.143 27.8719 128.394 27.3017C128.655 26.7316 128.785 25.799 128.785 24.504C128.785 23.209 128.655 22.2765 128.394 21.7063C128.143 21.1265 127.819 20.8365 127.423 20.8365ZM137.272 20.5466C137.678 20.5466 138.006 20.5998 138.257 20.7061C138.518 20.8027 138.721 20.938 138.866 21.112C139.021 21.2956 139.132 21.5323 139.2 21.8223C139.277 22.1122 139.316 22.5036 139.316 22.9964V26.8959C139.316 27.3017 139.383 27.5772 139.519 27.7221C139.664 27.8671 139.905 27.9396 140.243 27.9396V28.244C140.06 28.2343 139.784 28.2247 139.417 28.215C139.05 28.1957 138.688 28.186 138.33 28.186C137.963 28.186 137.6 28.1957 137.243 28.215C136.895 28.2247 136.629 28.2343 136.445 28.244V27.9396C136.735 27.9396 136.938 27.8671 137.054 27.7221C137.17 27.5772 137.228 27.3017 137.228 26.8959V22.3876C137.228 22.146 137.204 21.9382 137.156 21.7643C137.107 21.5807 137.02 21.4405 136.895 21.3439C136.769 21.2376 136.581 21.1844 136.329 21.1844C135.924 21.1844 135.581 21.3439 135.3 21.6628C135.03 21.9817 134.894 22.3828 134.894 22.866V26.8959C134.894 27.3017 134.952 27.5772 135.068 27.7221C135.194 27.8671 135.397 27.9396 135.677 27.9396V28.244C135.503 28.2343 135.247 28.2247 134.909 28.215C134.58 28.1957 134.237 28.186 133.88 28.186C133.512 28.186 133.136 28.1957 132.749 28.215C132.362 28.2247 132.072 28.2343 131.879 28.244V27.9396C132.217 27.9396 132.454 27.8671 132.59 27.7221C132.734 27.5772 132.807 27.3017 132.807 26.8959V22.3296C132.807 21.8947 132.739 21.5758 132.604 21.3729C132.478 21.1603 132.237 21.054 131.879 21.054V20.7496C132.188 20.7785 132.488 20.793 132.778 20.793C133.184 20.793 133.561 20.7785 133.909 20.7496C134.266 20.7109 134.595 20.6577 134.894 20.5901V21.8947C135.136 21.4019 135.465 21.054 135.88 20.851C136.296 20.6481 136.76 20.5466 137.272 20.5466ZM147.907 20.5466C148.612 20.5466 149.231 20.6771 149.762 20.938C150.294 21.1989 150.709 21.6193 151.009 22.1992C151.309 22.779 151.458 23.5473 151.458 24.504C151.458 25.4608 151.309 26.229 151.009 26.8089C150.709 27.3791 150.294 27.7946 149.762 28.0555C149.231 28.3165 148.612 28.4469 147.907 28.4469C147.221 28.4469 146.607 28.3165 146.066 28.0555C145.534 27.7946 145.114 27.3791 144.805 26.8089C144.505 26.229 144.355 25.4608 144.355 24.504C144.355 23.5473 144.505 22.779 144.805 22.1992C145.114 21.6193 145.534 21.1989 146.066 20.938C146.607 20.6771 147.221 20.5466 147.907 20.5466ZM147.907 20.8365C147.52 20.8365 147.196 21.1265 146.936 21.7063C146.675 22.2765 146.544 23.209 146.544 24.504C146.544 25.799 146.675 26.7316 146.936 27.3017C147.196 27.8719 147.52 28.157 147.907 28.157C148.303 28.157 148.627 27.8719 148.878 27.3017C149.139 26.7316 149.269 25.799 149.269 24.504C149.269 23.209 149.139 22.2765 148.878 21.7063C148.627 21.1265 148.303 20.8365 147.907 20.8365ZM156.19 16.9081C156.528 16.9081 156.823 16.9516 157.074 17.0386C157.326 17.1256 157.548 17.2415 157.741 17.3865C157.877 17.4928 157.993 17.6426 158.089 17.8359C158.186 18.0195 158.234 18.2321 158.234 18.4737C158.234 18.7346 158.138 18.9665 157.944 19.1695C157.761 19.3724 157.514 19.4739 157.205 19.4739C156.886 19.4739 156.62 19.3821 156.408 19.1985C156.205 19.0149 156.103 18.7636 156.103 18.4447C156.103 18.1934 156.176 17.9712 156.321 17.7779C156.466 17.5846 156.678 17.4493 156.959 17.372C156.93 17.314 156.872 17.2657 156.785 17.227C156.698 17.1884 156.582 17.169 156.437 17.169C156.243 17.169 156.084 17.2029 155.958 17.2705C155.833 17.3382 155.731 17.43 155.654 17.5459C155.548 17.6909 155.475 17.9035 155.436 18.1838C155.398 18.4544 155.378 18.8747 155.378 19.4449V20.7641H156.93V21.054H155.378V26.7509C155.378 27.2244 155.499 27.5433 155.741 27.7076C155.982 27.8623 156.316 27.9396 156.741 27.9396V28.244C156.49 28.2343 156.137 28.2247 155.683 28.215C155.229 28.1957 154.75 28.186 154.248 28.186C153.881 28.186 153.518 28.1957 153.161 28.215C152.813 28.2247 152.547 28.2343 152.363 28.244V27.9396C152.702 27.9396 152.938 27.8671 153.074 27.7221C153.219 27.5772 153.291 27.3017 153.291 26.8959V21.054H152.305V20.7641H153.291C153.291 19.904 153.359 19.2516 153.494 18.8071C153.629 18.3529 153.866 17.9615 154.204 17.6329C154.417 17.43 154.697 17.2609 155.045 17.1256C155.403 16.9806 155.784 16.9081 156.19 16.9081ZM169.462 17.9808C169.423 18.4737 169.394 18.9472 169.375 19.4014C169.365 19.8556 169.36 20.2035 169.36 20.4451C169.36 20.6577 169.365 20.8607 169.375 21.054C169.384 21.2473 169.394 21.4115 169.404 21.5468H169.07C168.916 20.7351 168.718 20.0924 168.476 19.6189C168.244 19.1453 167.964 18.8119 167.635 18.6186C167.307 18.4157 166.92 18.3142 166.475 18.3142H166.142V26.5914C166.142 26.978 166.181 27.2679 166.258 27.4612C166.345 27.6545 166.5 27.7849 166.722 27.8526C166.944 27.9106 167.268 27.9444 167.693 27.9541V28.244C167.394 28.2343 166.993 28.2247 166.49 28.215C165.997 28.2053 165.48 28.2005 164.939 28.2005C164.407 28.2005 163.905 28.2053 163.431 28.215C162.958 28.2247 162.576 28.2343 162.286 28.244V27.9541C162.721 27.9444 163.05 27.9106 163.272 27.8526C163.494 27.7849 163.644 27.6545 163.721 27.4612C163.799 27.2679 163.837 26.978 163.837 26.5914V18.3142H163.518C163.074 18.3142 162.687 18.4157 162.359 18.6186C162.03 18.8119 161.75 19.1453 161.518 19.6189C161.286 20.0827 161.083 20.7254 160.909 21.5468H160.576C160.595 21.4115 160.605 21.2473 160.605 21.054C160.614 20.8607 160.619 20.6577 160.619 20.4451C160.619 20.2035 160.609 19.8556 160.59 19.4014C160.58 18.9472 160.556 18.4737 160.518 17.9808C160.962 17.9905 161.445 18.0002 161.967 18.0098C162.499 18.0195 163.03 18.0243 163.562 18.0243C164.093 18.0243 164.572 18.0243 164.997 18.0243C165.432 18.0243 165.91 18.0243 166.432 18.0243C166.964 18.0243 167.495 18.0195 168.027 18.0098C168.558 18.0002 169.036 17.9905 169.462 17.9808ZM176.74 20.5901V26.6639C176.74 27.0988 176.807 27.4225 176.943 27.6352C177.078 27.8381 177.32 27.9396 177.667 27.9396V28.244C177.368 28.215 177.068 28.2005 176.769 28.2005C176.363 28.2005 175.986 28.215 175.638 28.244C175.29 28.273 174.962 28.3261 174.652 28.4034V27.0988C174.42 27.582 174.097 27.9299 173.681 28.1425C173.275 28.3455 172.821 28.4469 172.318 28.4469C171.913 28.4469 171.584 28.3938 171.333 28.2875C171.081 28.1812 170.883 28.0459 170.738 27.8816C170.574 27.698 170.458 27.4564 170.39 27.1568C170.323 26.8572 170.289 26.4706 170.289 25.9971V22.3296C170.289 21.8947 170.221 21.5758 170.086 21.3729C169.96 21.1603 169.719 21.054 169.361 21.054V20.7496C169.67 20.7785 169.97 20.793 170.26 20.793C170.666 20.793 171.043 20.7785 171.391 20.7496C171.748 20.7109 172.077 20.6577 172.376 20.5901V26.5914C172.376 26.833 172.396 27.0457 172.434 27.2293C172.483 27.4129 172.57 27.5578 172.695 27.6641C172.821 27.7608 173.005 27.8091 173.246 27.8091C173.633 27.8091 173.961 27.6497 174.232 27.3307C174.512 27.0022 174.652 26.6011 174.652 26.1276V22.3296C174.652 21.8947 174.585 21.5758 174.449 21.3729C174.324 21.1603 174.082 21.054 173.725 21.054V20.7496C174.034 20.7785 174.333 20.793 174.623 20.793C175.029 20.793 175.406 20.7785 175.754 20.7496C176.112 20.7109 176.44 20.6577 176.74 20.5901ZM183.298 20.5466C183.608 20.5466 183.859 20.6143 184.052 20.7496C184.245 20.8752 184.386 21.0395 184.473 21.2424C184.569 21.4454 184.617 21.658 184.617 21.8802C184.617 22.2378 184.511 22.5326 184.299 22.7645C184.096 22.9868 183.825 23.0979 183.487 23.0979C183.149 23.0979 182.883 23.0158 182.689 22.8515C182.506 22.6775 182.414 22.4504 182.414 22.1702C182.414 21.8996 182.472 21.6773 182.588 21.5033C182.714 21.3197 182.868 21.1651 183.052 21.0395C182.917 21.0008 182.781 21.0057 182.646 21.054C182.395 21.0926 182.168 21.2134 181.965 21.4164C181.771 21.6097 181.617 21.8416 181.501 22.1122C181.385 22.3828 181.327 22.6485 181.327 22.9095V26.7509C181.327 27.2148 181.438 27.5289 181.66 27.6931C181.892 27.8574 182.235 27.9396 182.689 27.9396V28.244C182.467 28.2343 182.143 28.2247 181.718 28.215C181.293 28.1957 180.849 28.186 180.385 28.186C179.998 28.186 179.607 28.1957 179.21 28.215C178.814 28.2247 178.515 28.2343 178.312 28.244V27.9396C178.65 27.9396 178.887 27.8671 179.022 27.7221C179.167 27.5772 179.239 27.3017 179.239 26.8959V22.3296C179.239 21.8947 179.172 21.5758 179.037 21.3729C178.911 21.1603 178.669 21.054 178.312 21.054V20.7496C178.621 20.7785 178.921 20.793 179.21 20.793C179.616 20.793 179.993 20.7785 180.341 20.7496C180.699 20.7109 181.027 20.6577 181.327 20.5901V21.9382C181.443 21.6773 181.597 21.4405 181.791 21.2279C181.984 21.0153 182.206 20.851 182.458 20.7351C182.709 20.6094 182.989 20.5466 183.298 20.5466ZM187.639 16.8936V26.8959C187.639 27.3017 187.702 27.5772 187.827 27.7221C187.963 27.8671 188.19 27.9396 188.509 27.9396V28.244C188.325 28.2343 188.054 28.2247 187.697 28.215C187.349 28.1957 186.991 28.186 186.624 28.186C186.247 28.186 185.866 28.1957 185.479 28.215C185.102 28.2247 184.817 28.2343 184.624 28.244V27.9396C184.962 27.9396 185.199 27.8671 185.334 27.7221C185.479 27.5772 185.551 27.3017 185.551 26.8959V18.6331C185.551 18.1983 185.484 17.8794 185.348 17.6764C185.223 17.4638 184.981 17.3575 184.624 17.3575V17.0531C184.933 17.0821 185.233 17.0966 185.522 17.0966C185.919 17.0966 186.296 17.0821 186.653 17.0531C187.011 17.0144 187.339 16.9613 187.639 16.8936ZM192.365 20.7496V21.0395C192.065 21.0975 191.765 21.2231 191.466 21.4164C191.166 21.6097 190.862 21.8561 190.553 22.1557L189.436 23.3153L189.581 23.0399L192.06 27.1858C192.166 27.3597 192.278 27.5144 192.394 27.6497C192.51 27.7849 192.65 27.8816 192.814 27.9396V28.244C192.669 28.2343 192.452 28.2247 192.162 28.215C191.872 28.1957 191.582 28.186 191.292 28.186C190.934 28.186 190.577 28.1957 190.219 28.215C189.862 28.2247 189.596 28.2343 189.422 28.244V27.9396C189.615 27.9396 189.746 27.8961 189.813 27.8091C189.881 27.7125 189.871 27.5917 189.784 27.4467L188.349 24.8519C188.233 24.6683 188.117 24.5523 188.001 24.504C187.895 24.446 187.75 24.4122 187.566 24.4025V24.1271C187.769 24.1078 187.943 24.074 188.088 24.0257C188.243 23.9773 188.383 23.8855 188.509 23.7502L189.61 22.6775C189.939 22.3683 190.103 22.0929 190.103 21.8513C190.103 21.6097 189.997 21.4164 189.784 21.2714C189.581 21.1265 189.311 21.0491 188.972 21.0395V20.7496C189.243 20.7592 189.538 20.7689 189.857 20.7785C190.176 20.7882 190.446 20.793 190.669 20.793C190.862 20.793 191.065 20.793 191.277 20.793C191.5 20.7834 191.707 20.7785 191.901 20.7785C192.094 20.7689 192.249 20.7592 192.365 20.7496ZM195.06 17.0096C195.466 17.0096 195.785 17.1111 196.017 17.314C196.259 17.5073 196.379 17.7779 196.379 18.1258C196.379 18.4737 196.259 18.7491 196.017 18.9521C195.785 19.1453 195.466 19.242 195.06 19.242C194.654 19.242 194.331 19.1453 194.089 18.9521C193.857 18.7491 193.741 18.4737 193.741 18.1258C193.741 17.7779 193.857 17.5073 194.089 17.314C194.331 17.1111 194.654 17.0096 195.06 17.0096ZM196.191 20.5901V26.8959C196.191 27.3017 196.259 27.5772 196.394 27.7221C196.539 27.8671 196.78 27.9396 197.119 27.9396V28.244C196.945 28.2343 196.674 28.2247 196.307 28.215C195.94 28.1957 195.568 28.186 195.191 28.186C194.814 28.186 194.432 28.1957 194.046 28.215C193.659 28.2247 193.369 28.2343 193.176 28.244V27.9396C193.514 27.9396 193.751 27.8671 193.886 27.7221C194.031 27.5772 194.103 27.3017 194.103 26.8959V22.3296C194.103 21.8947 194.036 21.5758 193.901 21.3729C193.775 21.1603 193.533 21.054 193.176 21.054V20.7496C193.485 20.7785 193.785 20.793 194.075 20.793C194.48 20.793 194.857 20.7785 195.205 20.7496C195.563 20.7109 195.891 20.6577 196.191 20.5901ZM201.517 20.5466C201.894 20.5466 202.237 20.5901 202.546 20.6771C202.865 20.7544 203.126 20.8559 203.329 20.9815C203.58 21.1361 203.774 21.3294 203.909 21.5613C204.054 21.7836 204.126 22.0445 204.126 22.3441C204.126 22.6824 204.02 22.9626 203.808 23.1849C203.595 23.3975 203.32 23.5038 202.981 23.5038C202.643 23.5038 202.372 23.4072 202.17 23.2139C201.967 23.0206 201.865 22.7597 201.865 22.4311C201.865 22.1218 201.962 21.8657 202.155 21.6628C202.348 21.4502 202.571 21.3101 202.822 21.2424C202.745 21.1458 202.629 21.0636 202.474 20.996C202.319 20.9283 202.145 20.8945 201.952 20.8945C201.652 20.8945 201.387 20.9815 201.155 21.1554C200.933 21.3294 200.744 21.571 200.589 21.8802C200.435 22.1895 200.314 22.5519 200.227 22.9674C200.15 23.383 200.111 23.8372 200.111 24.3301C200.111 25.0742 200.203 25.6589 200.387 26.0841C200.58 26.5093 200.821 26.8089 201.111 26.9828C201.411 27.1568 201.72 27.2438 202.039 27.2438C202.31 27.2438 202.619 27.1713 202.967 27.0263C203.315 26.8717 203.638 26.5528 203.938 26.0696L204.184 26.1566C204.078 26.5141 203.904 26.8717 203.663 27.2293C203.421 27.5868 203.107 27.8816 202.72 28.1135C202.334 28.3358 201.86 28.4469 201.3 28.4469C200.672 28.4469 200.101 28.3116 199.589 28.041C199.087 27.7608 198.681 27.3356 198.372 26.7654C198.072 26.1856 197.922 25.4414 197.922 24.533C197.922 23.6633 198.077 22.9336 198.386 22.3441C198.705 21.7449 199.135 21.2956 199.676 20.996C200.217 20.6964 200.831 20.5466 201.517 20.5466ZM211.193 20.5466C211.599 20.5466 211.952 20.5998 212.251 20.7061C212.561 20.8027 212.783 20.8993 212.918 20.996C213.247 21.2183 213.45 21.0733 213.527 20.5611H213.831C213.812 20.8317 213.798 21.1651 213.788 21.5613C213.778 21.9479 213.773 22.4649 213.773 23.1124H213.469C213.421 22.7548 213.329 22.4021 213.194 22.0542C213.058 21.7063 212.86 21.4212 212.599 21.1989C212.348 20.9767 212.019 20.8655 211.614 20.8655C211.333 20.8655 211.097 20.9477 210.903 21.112C210.71 21.2666 210.613 21.4937 210.613 21.7933C210.613 22.0832 210.7 22.3393 210.874 22.5616C211.048 22.7742 211.27 22.9819 211.541 23.1849C211.821 23.3782 212.111 23.5859 212.411 23.8082C212.894 24.1658 213.3 24.5282 213.628 24.8954C213.967 25.253 214.136 25.7217 214.136 26.3015C214.136 26.7364 214.01 27.1181 213.759 27.4467C213.508 27.7656 213.174 28.0121 212.759 28.186C212.353 28.36 211.899 28.4469 211.396 28.4469C211.106 28.4469 210.845 28.4179 210.613 28.36C210.391 28.302 210.198 28.2295 210.033 28.1425C209.908 28.0845 209.787 28.0314 209.671 27.9831C209.565 27.9251 209.463 27.8768 209.367 27.8381C209.27 27.8091 209.183 27.8429 209.106 27.9396C209.038 28.0362 208.985 28.1715 208.946 28.3455H208.642C208.661 28.0362 208.676 27.6593 208.685 27.2148C208.695 26.7702 208.7 26.1807 208.7 25.4463H209.004C209.062 25.9681 209.169 26.432 209.323 26.8379C209.478 27.2341 209.686 27.5482 209.946 27.7801C210.217 28.0024 210.555 28.1135 210.961 28.1135C211.212 28.1135 211.444 28.0362 211.657 27.8816C211.87 27.7173 211.976 27.4515 211.976 27.0843C211.976 26.6591 211.836 26.3064 211.556 26.0261C211.285 25.7458 210.937 25.4414 210.512 25.1129C210.203 24.8616 209.908 24.6152 209.628 24.3736C209.357 24.1223 209.135 23.8517 208.961 23.5618C208.787 23.2622 208.7 22.924 208.7 22.5471C208.7 22.1122 208.816 21.7449 209.048 21.4454C209.28 21.1458 209.584 20.9235 209.961 20.7785C210.348 20.6239 210.758 20.5466 211.193 20.5466ZM217.962 18.3722V20.7496H219.672V21.0395H217.962V26.8959C217.962 27.1858 218.015 27.3936 218.121 27.5192C218.227 27.6352 218.387 27.6931 218.599 27.6931C218.773 27.6931 218.947 27.6303 219.121 27.5047C219.295 27.3694 219.45 27.1423 219.585 26.8234L219.832 26.9538C219.677 27.3887 219.44 27.7463 219.121 28.0265C218.812 28.3068 218.387 28.4469 217.846 28.4469C217.527 28.4469 217.246 28.4034 217.005 28.3165C216.763 28.2392 216.56 28.1184 216.396 27.9541C216.183 27.7415 216.043 27.4805 215.976 27.1713C215.908 26.8524 215.874 26.4417 215.874 25.9391V21.0395H214.656V20.7496H215.874V18.8361C216.28 18.8361 216.652 18.8023 216.99 18.7346C217.338 18.6573 217.662 18.5365 217.962 18.3722ZM222.029 28.3455C221.381 28.3455 220.912 28.1763 220.622 27.8381C220.333 27.4999 220.188 27.0891 220.188 26.6059C220.188 26.1904 220.279 25.8521 220.463 25.5912C220.656 25.3303 220.903 25.1177 221.202 24.9534C221.502 24.7794 221.816 24.6393 222.145 24.533C222.483 24.417 222.802 24.3059 223.101 24.1996C223.411 24.0836 223.657 23.9532 223.841 23.8082C224.034 23.6633 224.13 23.4796 224.13 23.2574V22.1267C224.13 21.8754 224.087 21.6531 224 21.4599C223.923 21.2569 223.797 21.1023 223.623 20.996C223.459 20.8897 223.241 20.8365 222.971 20.8365C222.778 20.8365 222.584 20.8655 222.391 20.9235C222.198 20.9718 222.038 21.0588 221.913 21.1844C222.183 21.2811 222.391 21.4309 222.536 21.6338C222.691 21.8271 222.768 22.0494 222.768 22.3006C222.768 22.6292 222.652 22.8901 222.42 23.0834C222.198 23.2767 221.932 23.3733 221.623 23.3733C221.275 23.3733 221.009 23.267 220.825 23.0544C220.651 22.8321 220.564 22.5664 220.564 22.2571C220.564 21.9769 220.632 21.7449 220.767 21.5613C220.912 21.3777 221.11 21.2038 221.362 21.0395C221.632 20.8849 221.956 20.7641 222.333 20.6771C222.72 20.5901 223.135 20.5466 223.58 20.5466C224.024 20.5466 224.425 20.5949 224.783 20.6916C225.14 20.7785 225.44 20.9428 225.682 21.1844C225.904 21.4067 226.049 21.6821 226.116 22.0107C226.184 22.3296 226.218 22.7355 226.218 23.2284V27.1713C226.218 27.4032 226.242 27.5675 226.29 27.6641C226.339 27.7608 226.421 27.8091 226.537 27.8091C226.633 27.8091 226.725 27.7849 226.812 27.7366C226.899 27.6883 226.981 27.6303 227.059 27.5627L227.204 27.8091C227.001 27.9831 226.764 28.1184 226.493 28.215C226.232 28.302 225.938 28.3455 225.609 28.3455C225.029 28.3455 224.643 28.2295 224.449 27.9976C224.266 27.756 224.169 27.4805 224.159 27.1713C223.918 27.5675 223.618 27.8623 223.261 28.0555C222.913 28.2488 222.502 28.3455 222.029 28.3455ZM223.145 27.4177C223.328 27.4177 223.497 27.3742 223.652 27.2873C223.816 27.2003 223.976 27.0457 224.13 26.8234V23.8517C224.015 24.045 223.85 24.2093 223.638 24.3446C223.435 24.4702 223.222 24.6103 223 24.7649C222.787 24.9099 222.608 25.0984 222.463 25.3303C222.318 25.5622 222.246 25.8715 222.246 26.258C222.246 26.6736 222.333 26.9732 222.507 27.1568C222.681 27.3307 222.894 27.4177 223.145 27.4177ZM230.561 18.3722V20.7496H232.271V21.0395H230.561V26.8959C230.561 27.1858 230.614 27.3936 230.72 27.5192C230.826 27.6352 230.986 27.6931 231.198 27.6931C231.372 27.6931 231.546 27.6303 231.72 27.5047C231.894 27.3694 232.049 27.1423 232.184 26.8234L232.431 26.9538C232.276 27.3887 232.039 27.7463 231.72 28.0265C231.411 28.3068 230.986 28.4469 230.445 28.4469C230.126 28.4469 229.845 28.4034 229.604 28.3165C229.362 28.2392 229.159 28.1184 228.995 27.9541C228.782 27.7415 228.642 27.4805 228.575 27.1713C228.507 26.8524 228.473 26.4417 228.473 25.9391V21.0395H227.256V20.7496H228.473V18.8361C228.879 18.8361 229.251 18.8023 229.589 18.7346C229.937 18.6573 230.261 18.5365 230.561 18.3722ZM236.398 20.5466C237.248 20.5466 237.915 20.7979 238.398 21.3004C238.881 21.8029 239.123 22.6244 239.123 23.7647H234.354L234.325 23.4893H237.296C237.306 23.0158 237.277 22.5809 237.209 22.1847C237.142 21.7788 237.035 21.455 236.89 21.2134C236.745 20.9718 236.552 20.851 236.311 20.851C235.972 20.851 235.682 21.0636 235.441 21.4889C235.209 21.9141 235.069 22.6195 235.02 23.6053L235.064 23.6922C235.054 23.8082 235.045 23.929 235.035 24.0546C235.035 24.1803 235.035 24.3107 235.035 24.446C235.035 25.1129 235.127 25.654 235.31 26.0696C235.504 26.4851 235.745 26.7896 236.035 26.9828C236.325 27.1665 236.62 27.2583 236.919 27.2583C237.209 27.2583 237.523 27.1858 237.862 27.0408C238.21 26.8959 238.533 26.5818 238.833 26.0986L239.094 26.1856C238.978 26.5528 238.794 26.9104 238.543 27.2583C238.292 27.6062 237.973 27.8913 237.586 28.1135C237.2 28.3358 236.736 28.4469 236.195 28.4469C235.537 28.4469 234.958 28.3068 234.455 28.0265C233.953 27.7463 233.556 27.3211 233.266 26.7509C232.986 26.1807 232.846 25.4559 232.846 24.5765C232.846 23.6777 232.996 22.9288 233.295 22.3296C233.605 21.7305 234.025 21.2859 234.557 20.996C235.098 20.6964 235.711 20.5466 236.398 20.5466ZM242.832 20.5466C243.238 20.5466 243.591 20.5998 243.891 20.7061C244.2 20.8027 244.422 20.8993 244.557 20.996C244.886 21.2183 245.089 21.0733 245.166 20.5611H245.471C245.451 20.8317 245.437 21.1651 245.427 21.5613C245.417 21.9479 245.413 22.4649 245.413 23.1124H245.108C245.06 22.7548 244.968 22.4021 244.833 22.0542C244.698 21.7063 244.499 21.4212 244.238 21.1989C243.987 20.9767 243.659 20.8655 243.253 20.8655C242.972 20.8655 242.736 20.9477 242.542 21.112C242.349 21.2666 242.253 21.4937 242.253 21.7933C242.253 22.0832 242.339 22.3393 242.513 22.5616C242.687 22.7742 242.91 22.9819 243.18 23.1849C243.461 23.3782 243.75 23.5859 244.05 23.8082C244.533 24.1658 244.939 24.5282 245.268 24.8954C245.606 25.253 245.775 25.7217 245.775 26.3015C245.775 26.7364 245.649 27.1181 245.398 27.4467C245.147 27.7656 244.813 28.0121 244.398 28.186C243.992 28.36 243.538 28.4469 243.035 28.4469C242.745 28.4469 242.484 28.4179 242.253 28.36C242.03 28.302 241.837 28.2295 241.673 28.1425C241.547 28.0845 241.426 28.0314 241.31 27.9831C241.204 27.9251 241.102 27.8768 241.006 27.8381C240.909 27.8091 240.822 27.8429 240.745 27.9396C240.677 28.0362 240.624 28.1715 240.585 28.3455H240.281C240.3 28.0362 240.315 27.6593 240.325 27.2148C240.334 26.7702 240.339 26.1807 240.339 25.4463H240.643C240.701 25.9681 240.808 26.432 240.962 26.8379C241.117 27.2341 241.325 27.5482 241.586 27.7801C241.856 28.0024 242.195 28.1135 242.6 28.1135C242.852 28.1135 243.084 28.0362 243.296 27.8816C243.509 27.7173 243.615 27.4515 243.615 27.0843C243.615 26.6591 243.475 26.3064 243.195 26.0261C242.924 25.7458 242.576 25.4414 242.151 25.1129C241.842 24.8616 241.547 24.6152 241.267 24.3736C240.996 24.1223 240.774 23.8517 240.6 23.5618C240.426 23.2622 240.339 22.924 240.339 22.5471C240.339 22.1122 240.455 21.7449 240.687 21.4454C240.919 21.1458 241.223 20.9235 241.6 20.7785C241.987 20.6239 242.397 20.5466 242.832 20.5466Z" fill="white"/>
</svg>
