<svg width="16" height="16" viewBox="0 0 16 16" fill="none" xmlns="http://www.w3.org/2000/svg">
<path d="M15.6676 11.9984L10.0155 1.60856C9.10743 0.0797811 6.89378 0.0777498 5.98446 1.60856L0.332715 11.9984C-0.595597 13.5606 0.528309 15.5388 2.34778 15.5388H13.652C15.47 15.5388 16.5959 13.5622 15.6676 11.9984Z" fill="#F7B610"/>
<path d="M8 13.6638C7.48319 13.6638 7.0625 13.2431 7.0625 12.7263C7.0625 12.2095 7.48319 11.7888 8 11.7888C8.51681 11.7888 8.9375 12.2095 8.9375 12.7263C8.9375 13.2431 8.51681 13.6638 8 13.6638ZM8.9375 9.91378C8.9375 10.4306 8.51681 10.8513 8 10.8513C7.48319 10.8513 7.0625 10.4306 7.0625 9.91378V5.22628C7.0625 4.70947 7.48319 4.28878 8 4.28878C8.51681 4.28878 8.9375 4.70947 8.9375 5.22628V9.91378Z" fill="white"/>
</svg>
