<svg width="24" height="24" viewBox="0 0 24 24" fill="none" xmlns="http://www.w3.org/2000/svg">
<rect width="23.9999" height="24" rx="12" fill="#E6855C"/>
<path d="M14.5099 7.59115V8.31855C14.5099 8.98702 14.2529 9.59654 13.8326 10.0538L16.1126 10.9435V15.939L16.703 16.3326C17.6632 15.2053 18.187 13.7888 18.187 12.2917C18.187 10.624 17.5375 9.05609 16.3583 7.87686C15.7497 7.2683 15.0375 6.80127 14.2616 6.49136C14.4228 6.83056 14.5099 7.20547 14.5099 7.59115Z" fill="white"/>
<path d="M7.77438 15.939V10.9434L10.0543 10.0537C9.63403 9.59651 9.37705 8.987 9.37705 8.31852V7.59115C9.37705 7.20547 9.46414 6.83056 9.62528 6.49139C8.84942 6.8013 8.13723 7.26833 7.52867 7.87687C6.34944 9.05609 5.7 10.624 5.7 12.2917C5.7 13.7888 6.22371 15.2053 7.18394 16.3326L7.77438 15.939Z" fill="white"/>
<path d="M16.7379 17.9199C16.7379 17.5579 16.5581 17.2219 16.257 17.0211L15.593 16.5785C15.593 16.5785 13.9988 17.8794 11.9434 17.8794C9.8881 17.8794 8.29391 16.5785 8.29391 16.5785L7.62992 17.0211C7.32875 17.2219 7.14894 17.5579 7.14894 17.9199C7.14894 18.5155 7.6335 19 8.22907 19H15.6578C16.2534 19 16.7379 18.5154 16.7379 17.9199Z" fill="white"/>
<path d="M8.59469 15.7686L8.85262 15.9749C9.61948 16.5884 10.5586 16.9599 11.5333 17.0418V15.7413C11.0268 15.6838 10.5347 15.5207 10.0913 15.2604L9.88879 15.1416V12.6116H10.7091V14.6612C11.094 14.8472 11.5164 14.9447 11.9435 14.9447C12.3706 14.9447 12.793 14.8472 13.1778 14.6612V12.6116H13.9981V15.1416L13.7956 15.2605C13.3522 15.5208 12.8602 15.6838 12.3537 15.7413V17.0418C13.3284 16.9599 14.2675 16.5884 15.0344 15.9749L15.2923 15.7686V11.5039L13.0558 10.6311C12.7191 10.7938 12.3418 10.885 11.9435 10.885C11.5452 10.885 11.1678 10.7938 10.8311 10.6311L8.59472 11.5039L8.59469 15.7686Z" fill="white"/>
<path d="M10.1973 7.59115V8.31855C10.1973 9.28135 10.9806 10.0647 11.9435 10.0647C12.9063 10.0647 13.6895 9.28138 13.6895 8.31855V7.59115C13.6895 7.02111 13.4097 6.4855 12.9409 6.15839L12.7654 6.03597V5.82204C12.7655 5.36876 12.3967 5 11.9435 5C11.4902 5 11.1214 5.36876 11.1214 5.82201V6.03592L10.946 6.15834C10.4772 6.4855 10.1973 7.02111 10.1973 7.59115Z" fill="white"/>
</svg>
