<svg width="24" height="24" viewBox="0 0 24 24" fill="none" xmlns="http://www.w3.org/2000/svg">
<rect width="23.9999" height="24" rx="12" fill="#4CAD6B"/>
<path d="M11.9999 19C11.4761 19 11.0383 18.6244 10.9418 18.1283C10.4951 17.9967 10.1681 17.5829 10.1681 17.0941C10.1681 16.6551 10.4352 16.2715 10.8189 16.1048V11.654H9.25346C9.08797 12.0399 8.70371 12.3087 8.26227 12.3087C7.7735 12.3087 7.35968 11.9817 7.22805 11.5349C6.73198 11.4384 6.35641 11.0007 6.35641 10.4768C6.35641 9.95296 6.73201 9.51519 7.22805 9.4187C7.35968 8.97198 7.77353 8.64498 8.26227 8.64498C8.69882 8.64498 9.08177 8.91051 9.24963 9.29188H10.8189V7.89513C10.4352 7.72844 10.1681 7.34484 10.1681 6.90586C10.1681 6.41709 10.4951 6.00327 10.9418 5.87164C11.0383 5.37562 11.4761 5 11.9999 5C12.5238 5 12.9616 5.37562 13.0581 5.87164C13.5048 6.00327 13.8318 6.41712 13.8318 6.90586C13.8318 7.34484 13.5647 7.72844 13.181 7.89513V9.29188H14.7503C14.9181 8.91051 15.3011 8.64498 15.7376 8.64498C16.2264 8.64498 16.6402 8.97195 16.7718 9.4187C17.2679 9.51519 17.6435 9.95296 17.6435 10.4768C17.6435 11.0007 17.2679 11.4384 16.7718 11.5349C16.6402 11.9817 16.2264 12.3087 15.7376 12.3087C15.2962 12.3087 14.9119 12.0399 14.7464 11.654H13.181V16.1048C13.5647 16.2715 13.8318 16.6551 13.8318 17.0941C13.8318 17.5829 13.5048 17.9967 13.0581 18.1283C12.9616 18.6244 12.5238 19 11.9999 19Z" fill="white"/>
</svg>
