<svg width="24" height="24" viewBox="0 0 24 24" fill="none" xmlns="http://www.w3.org/2000/svg">
<rect width="23.9999" height="24" rx="12" fill="#4392E0"/>
<path d="M12.0125 19C10.1394 19 8.37841 18.2706 7.05392 16.9461C5.72942 15.6216 5 13.8606 5 11.9875C5 10.1143 5.72942 8.35337 7.05392 7.02887C8.21954 5.86325 9.76501 5.14325 11.4057 5.00156C11.605 4.98422 11.788 5.11339 11.8386 5.30708C11.8893 5.5008 11.7929 5.70282 11.6104 5.78536C11.0632 6.033 10.5688 6.37553 10.1409 6.80346C8.19565 8.7487 8.19565 11.9138 10.1409 13.8591C12.0861 15.8043 15.2513 15.8043 17.1965 13.8591C17.6244 13.4312 17.9669 12.9367 18.2146 12.3895C18.2971 12.2071 18.4991 12.1107 18.6929 12.1614C18.8866 12.212 19.0156 12.3948 18.9984 12.5943C18.8567 14.235 18.1367 15.7805 16.9711 16.9461C15.6466 18.2706 13.8856 19 12.0125 19Z" fill="white"/>
<path d="M16.34 9.62504C16.2916 9.47628 16.1631 9.36784 16.0083 9.34535L14.5806 9.1379L13.9421 7.8442C13.8729 7.70393 13.73 7.61514 13.5736 7.61514C13.4172 7.61514 13.2743 7.70396 13.2051 7.8442L12.5666 9.1379L11.1389 9.34535C10.8106 9.3822 10.6673 9.82355 10.9112 10.0463L11.9443 11.0533L11.7004 12.4752C11.6339 12.7988 12.0094 13.0716 12.2966 12.9084L13.5736 12.2371L14.8506 12.9084C15.1373 13.0716 15.5134 12.7988 15.4468 12.4752L15.2029 11.0533L16.236 10.0463C16.348 9.93711 16.3883 9.7738 16.34 9.62504Z" fill="white"/>
</svg>
