<svg width="76" height="77" viewBox="0 0 76 77" fill="none" xmlns="http://www.w3.org/2000/svg">
<rect x="0.101562" y="0.500244" width="75.5085" height="75.5085" rx="37.7542" fill="url(#paint0_radial_376_58)"/>
<path d="M57.7645 42.3684C59.8892 42.5913 62.6673 44.1031 64.7049 42.5186C61.801 41.9953 58.9358 40.498 56.2593 39.495C59.0035 38.3612 62.6334 40.6628 65.0388 38.2594C62.0817 38.1964 59.0277 37.1692 56.2254 36.5926C58.7615 35.0469 62.706 36.7525 64.7049 34.0003C61.7719 34.4024 58.597 33.8646 55.7366 33.7386C58.0017 31.8004 62.164 32.8761 63.7079 29.8622C60.8766 30.7247 57.6532 30.686 54.8122 31.0106C56.7482 28.7526 61.0217 29.1548 62.072 25.918C59.4052 27.2069 56.2206 27.6818 53.4619 28.4425C55.0203 25.9083 59.3084 25.637 59.8408 22.2742C57.4209 23.9702 54.3379 24.9344 51.7341 26.1167C52.8763 23.3693 57.0579 22.4293 57.0579 19.0278C54.9235 21.0774 52.039 22.5117 49.6529 24.0913C50.3499 21.184 54.3476 19.6141 53.8152 16.2513C52.0293 18.6159 49.4013 20.4814 47.2911 22.4148C47.5282 19.4493 51.2259 17.2592 50.195 14.0224C48.8011 16.6293 46.4973 18.8679 44.7163 21.1259C44.4888 18.1604 47.7944 15.4179 46.2553 12.404C45.2874 15.2047 43.3514 17.7922 41.9527 20.2828C41.2655 17.3755 44.1016 14.1629 42.1028 11.4059C41.5849 14.3131 40.0894 17.1817 39.0875 19.8612C37.955 17.1138 40.2539 13.4797 37.8534 11.0715C37.7904 14.0321 36.7644 17.0896 36.1884 19.8951C34.6445 17.3561 36.3482 13.407 33.5991 11.4059C34.0008 14.3422 33.4636 17.5257 33.3378 20.3845C31.4018 18.1168 32.4763 13.9497 29.4659 12.404C30.3225 15.2386 30.2887 18.4657 30.6129 21.31C28.3576 19.3718 28.7593 15.0933 25.5262 14.0418C26.8136 16.7068 27.288 19.9 28.0478 22.657C25.4924 21.058 25.202 16.765 21.8625 16.232C23.5516 18.6547 24.5196 21.7412 25.7005 24.3481C22.9563 23.2046 22.0174 19.0181 18.6198 19.0181C20.667 21.1549 22.0996 24.0428 23.6774 26.4317C20.7735 25.7339 19.2054 21.7364 15.8465 22.2646C18.2035 24.0525 20.0717 26.6836 22.0028 28.7962C19.0408 28.5588 16.8532 24.8569 13.6202 25.889C16.224 27.2845 18.4601 29.5909 20.7154 31.374C17.7534 31.6018 15.0141 28.2923 12.0037 29.8332C14.8011 30.8023 17.3856 32.7404 19.8733 34.1456C16.9694 34.8337 13.7606 31.9894 11.0067 33.9906C13.9106 34.509 16.7758 36.0063 19.4522 37.0141C16.708 38.1431 13.0781 35.8415 10.6727 38.2497C13.6299 38.3079 16.6838 39.34 19.4861 39.9117C16.95 41.4574 13.0055 39.7518 11.0067 42.5089C13.9396 42.1019 17.1146 42.6397 19.9749 42.7706C17.7099 44.7087 13.5476 43.6282 12.0037 46.6469C14.835 45.7893 18.0583 45.8232 20.8993 45.4986C18.9634 47.7565 14.6898 47.3544 13.6396 50.5911C16.3015 49.3022 19.4909 48.8322 22.2448 48.0666C20.6864 50.6008 16.3983 50.8722 15.8659 54.2349C18.2858 52.5439 21.3688 51.5796 23.9727 50.3925C22.8304 53.1398 18.6488 54.0799 18.6488 57.4814C20.7832 55.4318 23.6677 53.9975 26.0538 52.4179C25.3569 55.3252 21.3591 56.8951 21.8915 60.2578C23.6774 57.8981 26.3055 56.0277 28.4156 54.0944C28.1785 57.0598 24.4808 59.25 25.5117 62.4916C26.9056 59.8799 29.2094 57.6219 30.9904 55.3833C31.2179 58.3487 27.9123 61.0913 29.4514 64.1051C30.4193 61.3093 32.3553 58.717 33.754 56.2264C34.4413 59.1337 31.6051 62.3462 33.604 65.1033C34.1218 62.196 35.6173 59.3275 36.6192 56.648C37.7517 59.4002 35.4528 63.0294 37.8582 65.4376C37.9163 62.4771 38.9423 59.4196 39.5183 56.614C41.0622 59.1531 39.3586 63.1021 42.1076 65.1033C41.7059 62.1669 42.2431 58.9883 42.3738 56.1295C44.3097 58.3923 43.2304 62.5594 46.2457 64.1051C45.389 61.2705 45.4229 58.0435 45.0986 55.1992C47.354 57.1374 46.9523 61.4159 50.1853 62.4674C48.8979 59.7975 48.4236 56.6092 47.6637 53.8473C50.195 55.4075 50.466 59.7006 53.8249 60.2336C52.1358 57.8109 51.1678 54.7243 49.9869 52.1175C52.7311 53.261 53.67 57.4475 57.0676 57.4475C55.0203 55.3155 53.5877 52.4227 52.0099 50.0339C54.9139 50.7317 56.482 54.734 59.8408 54.201C57.4838 52.413 55.6156 49.7819 53.6845 47.6693C56.6465 47.9067 58.8341 51.6087 62.072 50.5766C59.4633 49.1811 57.2079 46.8747 54.9719 45.0915C57.9339 44.8638 60.6733 48.1732 63.6837 46.6324C60.8911 45.6633 58.3017 43.7251 55.8141 42.3248C56.4477 42.1508 57.1164 42.1508 57.75 42.3248M48.1042 44.544L43.6128 42.6058L41.8027 47.1557L40.0119 42.6543L35.5205 44.5924L37.4565 40.1007L32.9167 38.2885L37.4565 36.4763L35.5205 31.9797L40.0119 33.9179L41.8172 29.368L43.6273 33.913L48.1187 31.9749L46.1827 36.4715L50.7225 38.2837L46.1827 40.0959L48.1042 44.544ZM41.4881 23.9314C33.7008 23.9314 26.9685 30.0028 26.9685 38.1819C26.9685 46.361 33.8121 52.4276 41.4881 52.4276C45.1874 52.4293 48.7538 51.0467 51.4872 48.5512C48.8592 52.8007 42.2915 55.8533 38.5406 55.8533H35.8497C34.5758 55.6831 33.3135 55.4355 32.0697 55.112C29.4368 54.3039 27.0242 52.9015 25.0181 51.0127C21.8383 48.1054 19.5442 42.7124 19.5442 39.3254V37.0093C19.5442 35.4781 20.425 32.4691 20.9381 31.2432C21.7015 29.3659 22.8096 27.6484 24.205 26.1797C28.2898 21.9448 32.9457 20.4911 37.2 20.4911C40.7419 20.475 44.2051 21.5362 47.1314 23.5341C48.5833 24.5032 50.5628 26.296 51.5211 27.8659C48.8033 25.3167 45.2123 23.9085 41.4881 23.9314Z" fill="white"/>
<defs>
<radialGradient id="paint0_radial_376_58" cx="0" cy="0" r="1" gradientUnits="userSpaceOnUse" gradientTransform="translate(20.1585 81.8243) rotate(-90) scale(74.8345 69.602)">
<stop stop-color="#D0A90E"/>
<stop offset="0.1" stop-color="#FACB13"/>
<stop offset="0.5" stop-color="#FF543E"/>
<stop offset="1" stop-color="#C837AB"/>
</radialGradient>
</defs>
</svg>
