<svg width="40" height="40" viewBox="0 0 40 40" fill="none" xmlns="http://www.w3.org/2000/svg">
<path d="M19.9998 32.2499C23.3887 29.1388 25.9026 26.3121 27.5415 23.7699C29.1804 21.2277 29.9998 18.971 29.9998 16.9999C29.9998 13.9721 29.0343 11.4933 27.1032 9.56325C25.1721 7.63325 22.8043 6.6677 19.9998 6.66659C17.1943 6.66659 14.8259 7.63214 12.8948 9.56325C10.9637 11.4944 9.99873 13.9733 9.99984 16.9999C9.99984 18.9721 10.8193 21.2294 12.4582 23.7716C14.0971 26.3138 16.6109 29.1399 19.9998 32.2499ZM19.9998 36.6666C15.5276 32.861 12.1876 29.3266 9.97984 26.0633C7.77206 22.7999 6.66762 19.7788 6.6665 16.9999C6.6665 12.8333 8.00706 9.51381 10.6882 7.04158C13.3693 4.56936 16.4732 3.33325 19.9998 3.33325C23.5276 3.33325 26.6321 4.56936 29.3132 7.04158C31.9943 9.51381 33.3343 12.8333 33.3332 16.9999C33.3332 19.7777 32.2287 22.7988 30.0198 26.0633C27.8109 29.3277 24.4709 32.8621 19.9998 36.6666Z" fill="#07091C"/>
<path d="M25.493 17.385C26.0792 17.4465 26.8457 17.8636 27.4079 17.4265C26.6066 17.2821 25.8161 16.869 25.0777 16.5922C25.8348 16.2794 26.8363 16.9144 27.5 16.2513C26.6841 16.234 25.8415 15.9505 25.0683 15.7914C25.768 15.365 26.8564 15.8356 27.4079 15.0762C26.5986 15.1872 25.7226 15.0388 24.9335 15.004C25.5584 14.4693 26.7068 14.766 27.1328 13.9345C26.3516 14.1725 25.4623 14.1618 24.6784 14.2513C25.2125 13.6283 26.3917 13.7393 26.6814 12.8463C25.9457 13.2019 25.067 13.3329 24.3058 13.5428C24.7358 12.8436 25.9189 12.7687 26.0658 11.8409C25.3982 12.3088 24.5475 12.5749 23.8291 12.9011C24.1443 12.143 25.298 11.8837 25.298 10.9452C24.7091 11.5107 23.9132 11.9064 23.2549 12.3422C23.4472 11.5401 24.5502 11.107 24.4033 10.1791C23.9106 10.8316 23.1855 11.3463 22.6033 11.8797C22.6687 11.0615 23.6889 10.4572 23.4045 9.56417C23.0199 10.2834 22.3843 10.9011 21.8929 11.5241C21.8301 10.7059 22.7421 9.9492 22.3175 9.11765C22.0504 9.89037 21.5163 10.6043 21.1304 11.2914C20.9408 10.4893 21.7233 9.60294 21.1718 8.84225C21.0289 9.64438 20.6163 10.4358 20.3398 11.1751C20.0274 10.4171 20.6617 9.41444 19.9993 8.75C19.982 9.56684 19.6989 10.4104 19.54 11.1845C19.114 10.484 19.584 9.39438 18.8256 8.84225C18.9364 9.65241 18.7882 10.5307 18.7534 11.3195C18.2193 10.6939 18.5158 9.54412 17.6852 9.11765C17.9215 9.89973 17.9122 10.7901 18.0016 11.5749C17.3794 11.0401 17.4902 9.85963 16.5982 9.56952C16.9534 10.3048 17.0843 11.1858 17.2939 11.9465C16.5888 11.5053 16.5087 10.3209 15.5873 10.1738C16.0534 10.8422 16.3204 11.6939 16.6463 12.4131C15.8891 12.0976 15.6301 10.9425 14.6926 10.9425C15.2575 11.5321 15.6528 12.3289 16.0881 12.988C15.2869 12.7955 14.8542 11.6925 13.9275 11.8382C14.5778 12.3316 15.0933 13.0575 15.6261 13.6404C14.8088 13.5749 14.2052 12.5535 13.3132 12.8382C14.0316 13.2233 14.6486 13.8596 15.2709 14.3516C14.4536 14.4144 13.6978 13.5013 12.8672 13.9265C13.6391 14.1938 14.3521 14.7286 15.0385 15.1163C14.2373 15.3061 13.352 14.5214 12.5921 15.0735C13.3933 15.2166 14.1839 15.6297 14.9223 15.9078C14.1652 16.2193 13.1637 15.5842 12.5 16.2487C13.3159 16.2647 14.1585 16.5495 14.9317 16.7072C14.232 17.1337 13.1436 16.6631 12.5921 17.4238C13.4014 17.3115 14.2774 17.4599 15.0665 17.496C14.4416 18.0307 13.2932 17.7326 12.8672 18.5655C13.6484 18.3289 14.5377 18.3382 15.3216 18.2487C14.7875 18.8717 13.6083 18.7607 13.3186 19.6537C14.053 19.2981 14.933 19.1685 15.6928 18.9572C15.2628 19.6564 14.0797 19.7313 13.9328 20.6591C14.6005 20.1925 15.4511 19.9265 16.1695 19.5989C15.8544 20.357 14.7007 20.6163 14.7007 21.5548C15.2895 20.9893 16.0854 20.5936 16.7437 20.1578C16.5515 20.9599 15.4485 21.393 15.5953 22.3209C16.0881 21.6698 16.8132 21.1537 17.3954 20.6203C17.33 21.4385 16.3098 22.0428 16.5942 22.9372C16.9788 22.2166 17.6144 21.5936 18.1058 20.9759C18.1686 21.7941 17.2565 22.5508 17.6812 23.3824C17.9482 22.611 18.4824 21.8957 18.8683 21.2086C19.0579 22.0107 18.2754 22.8971 18.8269 23.6578C18.9698 22.8556 19.3824 22.0642 19.6588 21.3249C19.9713 22.0842 19.337 23.0856 20.0007 23.75C20.0167 22.9332 20.2998 22.0896 20.4587 21.3155C20.8847 22.016 20.4146 23.1056 21.1731 23.6578C21.0623 22.8476 21.2105 21.9706 21.2465 21.1818C21.7807 21.8062 21.4829 22.9559 22.3148 23.3824C22.0785 22.6003 22.0878 21.7099 21.9984 20.9251C22.6206 21.4599 22.5098 22.6404 23.4018 22.9305C23.0466 22.1938 22.9157 21.3142 22.7061 20.5521C23.4045 20.9826 23.4793 22.1671 24.406 22.3142C23.94 21.6457 23.6729 20.7941 23.3471 20.0749C24.1042 20.3904 24.3633 21.5455 25.3007 21.5455C24.7358 20.9572 24.3406 20.1591 23.9052 19.5C24.7064 19.6925 25.1391 20.7968 26.0658 20.6497C25.4155 20.1564 24.9001 19.4305 24.3673 18.8476C25.1845 18.9131 25.7881 19.9345 26.6814 19.6497C25.9617 19.2647 25.3394 18.6283 24.7225 18.1364C25.5397 18.0735 26.2955 18.9866 27.1261 18.5615C26.3556 18.2941 25.6412 17.7594 24.9548 17.373C25.1296 17.325 25.3141 17.325 25.489 17.373M22.8276 17.9853L21.5884 17.4505L21.089 18.7059L20.5949 17.4639L19.3557 17.9987L19.8898 16.7594L18.6373 16.2594L19.8898 15.7594L19.3557 14.5187L20.5949 15.0535L21.093 13.7981L21.5924 15.0521L22.8316 14.5174L22.2975 15.758L23.55 16.258L22.2975 16.758L22.8276 17.9853ZM21.0022 12.2981C18.8536 12.2981 16.9961 13.9733 16.9961 16.2299C16.9961 18.4866 18.8843 20.1604 21.0022 20.1604C22.0228 20.1609 23.0068 19.7794 23.761 19.0909C23.0359 20.2634 21.2238 21.1056 20.189 21.1056H19.4465C19.095 21.0586 18.7468 20.9903 18.4036 20.9011C17.6771 20.6781 17.0115 20.2912 16.458 19.7701C15.5807 18.9679 14.9477 17.4799 14.9477 16.5455V15.9064C14.9477 15.484 15.1907 14.6537 15.3323 14.3155C15.5429 13.7975 15.8486 13.3237 16.2336 12.9184C17.3607 11.75 18.6453 11.3489 19.8191 11.3489C20.7963 11.3445 21.7518 11.6373 22.5592 12.1885C22.9598 12.4559 23.506 12.9505 23.7704 13.3837C23.0205 12.6803 22.0297 12.2918 21.0022 12.2981Z" fill="#07091C"/>
</svg>
