<svg width="48" height="44" viewBox="0 0 48 44" fill="none" xmlns="http://www.w3.org/2000/svg">
<g filter="url(#filter0_d_50_18848)">
<rect x="12" y="8" width="24" height="24" rx="12" fill="#E6855C"/>
<path d="M26.5099 15.5911V16.3185C26.5099 16.987 26.2529 17.5965 25.8326 18.0537L28.1126 18.9435V23.939L28.703 24.3326C29.6633 23.2053 30.187 21.7888 30.187 20.2917C30.187 18.624 29.5375 17.0561 28.3583 15.8769C27.7497 15.2683 27.0375 14.8013 26.2616 14.4913C26.4228 14.8305 26.5099 15.2055 26.5099 15.5911Z" fill="white"/>
<path d="M19.7744 23.9389V18.9434L22.0543 18.0537C21.634 17.5965 21.3771 16.987 21.3771 16.3185V15.5911C21.3771 15.2055 21.4642 14.8306 21.6253 14.4914C20.8494 14.8013 20.1372 15.2683 19.5287 15.8769C18.3495 17.0561 17.7 18.624 17.7 20.2917C17.7 21.7888 18.2237 23.2053 19.184 24.3326L19.7744 23.9389Z" fill="white"/>
<path d="M28.7379 25.9199C28.7379 25.5579 28.5582 25.2219 28.257 25.0211L27.593 24.5785C27.593 24.5785 25.9988 25.8794 23.9435 25.8794C21.8881 25.8794 20.2939 24.5785 20.2939 24.5785L19.6299 25.0211C19.3288 25.2219 19.149 25.5579 19.149 25.9199C19.149 26.5155 19.6335 27 20.2291 27H27.6578C28.2534 27 28.7379 26.5154 28.7379 25.9199Z" fill="white"/>
<path d="M20.5947 23.7686L20.8526 23.9749C21.6195 24.5884 22.5586 24.9599 23.5333 25.0418V23.7413C23.0268 23.6838 22.5347 23.5207 22.0913 23.2604L21.8888 23.1416V20.6116H22.7091V22.6612C23.094 22.8472 23.5164 22.9447 23.9435 22.9447C24.3706 22.9447 24.793 22.8472 25.1778 22.6612V20.6116H25.9982V23.1416L25.7956 23.2605C25.3522 23.5208 24.8602 23.6838 24.3537 23.7413V25.0418C25.3284 24.9599 26.2675 24.5884 27.0344 23.9749L27.2923 23.7686V19.5039L25.0559 18.6311C24.7191 18.7938 24.3418 18.885 23.9435 18.885C23.5452 18.885 23.1679 18.7938 22.8311 18.6311L20.5947 19.5039L20.5947 23.7686Z" fill="white"/>
<path d="M22.1974 15.5911V16.3185C22.1974 17.2813 22.9806 18.0647 23.9435 18.0647C24.9063 18.0647 25.6896 17.2814 25.6896 16.3185V15.5911C25.6896 15.0211 25.4097 14.4855 24.9409 14.1584L24.7655 14.036V13.822C24.7655 13.3688 24.3967 13 23.9435 13C23.4902 13 23.1215 13.3688 23.1215 13.822V14.0359L22.946 14.1583C22.4772 14.4855 22.1974 15.0211 22.1974 15.5911Z" fill="white"/>
</g>
<defs>
<filter id="filter0_d_50_18848" x="0" y="0" width="48" height="48" filterUnits="userSpaceOnUse" color-interpolation-filters="sRGB">
<feFlood flood-opacity="0" result="BackgroundImageFix"/>
<feColorMatrix in="SourceAlpha" type="matrix" values="0 0 0 0 0 0 0 0 0 0 0 0 0 0 0 0 0 0 127 0" result="hardAlpha"/>
<feOffset dy="4"/>
<feGaussianBlur stdDeviation="6"/>
<feComposite in2="hardAlpha" operator="out"/>
<feColorMatrix type="matrix" values="0 0 0 0 0.901961 0 0 0 0 0.521569 0 0 0 0 0.360784 0 0 0 0.3 0"/>
<feBlend mode="normal" in2="BackgroundImageFix" result="effect1_dropShadow_50_18848"/>
<feBlend mode="normal" in="SourceGraphic" in2="effect1_dropShadow_50_18848" result="shape"/>
</filter>
</defs>
</svg>
