<svg width="48" height="48" viewBox="0 0 48 48" fill="none" xmlns="http://www.w3.org/2000/svg">
<g filter="url(#filter0_d_50_18847)">
<rect x="12" y="8" width="24" height="24" rx="12" fill="#4CAD6B"/>
<path d="M23.9999 27C23.4761 27 23.0383 26.6244 22.9418 26.1283C22.4951 25.9967 22.1681 25.5829 22.1681 25.0941C22.1681 24.6551 22.4352 24.2715 22.8189 24.1048V19.654H21.2535C21.088 20.0399 20.7037 20.3087 20.2623 20.3087C19.7735 20.3087 19.3597 19.9817 19.2281 19.5349C18.732 19.4384 18.3564 19.0007 18.3564 18.4768C18.3564 17.953 18.732 17.5152 19.2281 17.4187C19.3597 16.972 19.7735 16.645 20.2623 16.645C20.6988 16.645 21.0818 16.9105 21.2496 17.2919H22.8189V15.8951C22.4352 15.7284 22.1681 15.3448 22.1681 14.9059C22.1681 14.4171 22.4951 14.0033 22.9418 13.8716C23.0383 13.3756 23.4761 13 23.9999 13C24.5238 13 24.9616 13.3756 25.0581 13.8716C25.5048 14.0033 25.8318 14.4171 25.8318 14.9059C25.8318 15.3448 25.5647 15.7284 25.181 15.8951V17.2919H26.7503C26.9181 16.9105 27.3011 16.645 27.7376 16.645C28.2264 16.645 28.6402 16.972 28.7718 17.4187C29.2679 17.5152 29.6435 17.953 29.6435 18.4768C29.6435 19.0007 29.2679 19.4384 28.7718 19.5349C28.6402 19.9817 28.2264 20.3087 27.7376 20.3087C27.2962 20.3087 26.9119 20.0399 26.7464 19.654H25.181V24.1048C25.5647 24.2715 25.8318 24.6551 25.8318 25.0941C25.8318 25.5829 25.5048 25.9967 25.0581 26.1283C24.9616 26.6244 24.5238 27 23.9999 27Z" fill="white"/>
</g>
<defs>
<filter id="filter0_d_50_18847" x="0" y="0" width="48" height="48" filterUnits="userSpaceOnUse" color-interpolation-filters="sRGB">
<feFlood flood-opacity="0" result="BackgroundImageFix"/>
<feColorMatrix in="SourceAlpha" type="matrix" values="0 0 0 0 0 0 0 0 0 0 0 0 0 0 0 0 0 0 127 0" result="hardAlpha"/>
<feOffset dy="4"/>
<feGaussianBlur stdDeviation="6"/>
<feComposite in2="hardAlpha" operator="out"/>
<feColorMatrix type="matrix" values="0 0 0 0 0.298039 0 0 0 0 0.678431 0 0 0 0 0.419608 0 0 0 0.3 0"/>
<feBlend mode="normal" in2="BackgroundImageFix" result="effect1_dropShadow_50_18847"/>
<feBlend mode="normal" in="SourceGraphic" in2="effect1_dropShadow_50_18847" result="shape"/>
</filter>
</defs>
</svg>
