<svg width="48" height="48" viewBox="0 0 48 48" fill="none" xmlns="http://www.w3.org/2000/svg">
<g filter="url(#filter0_d_50_18849)">
<rect x="12" y="8" width="23.9999" height="24" rx="12" fill="#4392E0"/>
<path d="M24.0125 27C22.1394 27 20.3784 26.2706 19.0539 24.9461C17.7294 23.6216 17 21.8606 17 19.9875C17 18.1143 17.7294 16.3534 19.0539 15.0289C20.2195 13.8632 21.765 13.1432 23.4057 13.0016C23.605 12.9842 23.788 13.1134 23.8386 13.3071C23.8893 13.5008 23.7929 13.7028 23.6104 13.7854C23.0632 14.033 22.5688 14.3755 22.1409 14.8035C20.1957 16.7487 20.1957 19.9138 22.1409 21.8591C24.0861 23.8043 27.2513 23.8043 29.1965 21.8591C29.6244 21.4312 29.9669 20.9367 30.2146 20.3895C30.2971 20.2071 30.4991 20.1107 30.6929 20.1614C30.8866 20.212 31.0156 20.3948 30.9984 20.5943C30.8567 22.235 30.1367 23.7805 28.9711 24.9461C27.6466 26.2706 25.8856 27 24.0125 27Z" fill="white"/>
<path d="M28.34 17.625C28.2916 17.4763 28.163 17.3678 28.0083 17.3453L26.5806 17.1379L25.9421 15.8442C25.8729 15.7039 25.73 15.6151 25.5736 15.6151C25.4172 15.6151 25.2743 15.7039 25.2051 15.8442L24.5666 17.1379L23.1389 17.3453C22.8106 17.3822 22.6673 17.8235 22.9112 18.0463L23.9443 19.0533L23.7004 20.4752C23.6339 20.7988 24.0094 21.0715 24.2966 20.9084L25.5736 20.2371L26.8505 20.9084C27.1373 21.0716 27.5134 20.7988 27.4468 20.4752L27.2029 19.0533L28.236 18.0463C28.348 17.9371 28.3883 17.7738 28.34 17.625Z" fill="white"/>
</g>
<defs>
<filter id="filter0_d_50_18849" x="0" y="0" width="47.9999" height="48" filterUnits="userSpaceOnUse" color-interpolation-filters="sRGB">
<feFlood flood-opacity="0" result="BackgroundImageFix"/>
<feColorMatrix in="SourceAlpha" type="matrix" values="0 0 0 0 0 0 0 0 0 0 0 0 0 0 0 0 0 0 127 0" result="hardAlpha"/>
<feOffset dy="4"/>
<feGaussianBlur stdDeviation="6"/>
<feComposite in2="hardAlpha" operator="out"/>
<feColorMatrix type="matrix" values="0 0 0 0 0.262745 0 0 0 0 0.572549 0 0 0 0 0.878431 0 0 0 0.3 0"/>
<feBlend mode="normal" in2="BackgroundImageFix" result="effect1_dropShadow_50_18849"/>
<feBlend mode="normal" in="SourceGraphic" in2="effect1_dropShadow_50_18849" result="shape"/>
</filter>
</defs>
</svg>
