<svg width="106" height="75" viewBox="0 0 106 75" fill="none" xmlns="http://www.w3.org/2000/svg">
    <path opacity="0.08" d="M80.546 89C74.2697 89 68.9232 85.9633 64.5066 79.8898C60.3224 73.8163 58.2303 66.458 58.2303 57.815C58.2303 49.1719 61.2522 39.7113 67.2961 29.4331C73.5724 19.1549 82.2895 9.34384 93.4474 0L103.908 5.25592L104.954 9.81104C99.6075 14.9501 95.307 20.6732 92.0526 26.9803C89.0307 33.0538 87.5197 38.7769 87.5197 44.1496C87.5197 49.2887 89.1469 54.1942 92.4013 58.8661C95.8882 63.3045 100.305 66.5748 105.651 68.6772L106 73.5827C97.3991 83.8609 88.9145 89 80.546 89ZM22.3158 89C16.0395 89 10.693 85.9633 6.27632 79.8898C2.09211 73.8163 0 66.458 0 57.815C0 49.1719 3.02193 39.7113 9.06579 29.4331C15.3421 19.1549 24.0592 9.34384 35.2171 0L45.6776 5.25592L46.7237 9.81104C41.3772 14.9501 37.0768 20.6732 33.8224 26.9803C30.8004 33.0538 29.2895 38.7769 29.2895 44.1496C29.2895 49.2887 30.9167 54.1942 34.1711 58.8661C37.6579 63.3045 42.0746 66.5748 47.4211 68.6772L47.7697 73.5827C39.1689 83.8609 30.6842 89 22.3158 89Z" fill="#727272"/>
</svg>
