<svg width="300" height="44" viewBox="0 0 300 44" fill="none" xmlns="http://www.w3.org/2000/svg">
    <path d="M38.1709 25.3294C39.8931 25.5098 42.1449 26.7333 43.7965 25.451C41.4427 25.0274 39.1202 23.8157 36.9508 23.0039C39.1752 22.0863 42.1174 23.949 44.0671 22.0039C41.6702 21.9529 39.1948 21.1216 36.9233 20.6549C38.979 19.4039 42.1763 20.7843 43.7965 18.5569C41.4191 18.8824 38.8456 18.4471 36.5271 18.3451C38.3631 16.7765 41.7369 17.6471 42.9883 15.2078C40.6934 15.9059 38.0806 15.8745 35.7778 16.1373C37.347 14.3098 40.811 14.6353 41.6623 12.0157C39.5008 13.0588 36.9194 13.4431 34.6833 14.0588C35.9465 12.0078 39.4223 11.7882 39.8538 9.06667C37.8923 10.4392 35.3934 11.2196 33.2828 12.1765C34.2086 9.95294 37.5981 9.19216 37.5981 6.43922C35.8681 8.09804 33.5299 9.25882 31.5959 10.5373C32.1608 8.18431 35.4012 6.91373 34.9697 4.19216C33.5221 6.10588 31.3919 7.61569 29.6815 9.18039C29.8737 6.78039 32.8709 5.00784 32.0353 2.38824C30.9055 4.49804 29.0381 6.3098 27.5944 8.13725C27.4101 5.73725 30.0895 3.51765 28.842 1.07843C28.0574 3.3451 26.4881 5.43922 25.3544 7.4549C24.7973 5.10196 27.0962 2.50196 25.476 0.270588C25.0563 2.62353 23.844 4.9451 23.032 7.11373C22.114 4.8902 23.9774 1.94902 22.0316 0C21.9806 2.39608 21.1489 4.87059 20.6821 7.14118C19.4307 5.08627 20.8116 1.8902 18.5833 0.270588C18.9089 2.64706 18.4734 5.22353 18.3714 7.53726C16.8022 5.70196 17.6731 2.32941 15.233 1.07843C15.9274 3.37255 15.9 5.98431 16.1628 8.28627C14.3347 6.71765 14.6603 3.2549 12.0397 2.40392C13.0832 4.56078 13.4677 7.1451 14.0836 9.37647C12.0122 8.08235 11.7769 4.60784 9.06999 4.17647C10.4391 6.13725 11.2237 8.63529 12.1809 10.7451C9.95659 9.81961 9.19553 6.43137 6.44158 6.43137C8.10101 8.16078 9.26222 10.498 10.5411 12.4314C8.18732 11.8667 6.91626 8.63137 4.19369 9.05882C6.1042 10.5059 7.61848 12.6353 9.18376 14.3451C6.78288 14.1529 5.00968 11.1569 2.38911 11.9922C4.49969 13.1216 6.31212 14.9882 8.14024 16.4314C5.73936 16.6157 3.51894 13.9373 1.07883 15.1843C3.34633 15.9686 5.44121 17.5373 7.45764 18.6745C5.10383 19.2314 2.50288 16.9294 0.270687 18.549C2.62449 18.9686 4.94691 20.1804 7.11634 20.9961C4.89199 21.9098 1.94973 20.0471 0 21.9961C2.39696 22.0431 4.87238 22.8784 7.1438 23.3412C5.08814 24.5922 1.89089 23.2118 0.270687 25.4431C2.64803 25.1137 5.22152 25.549 7.54002 25.6549C5.70405 27.2235 2.33027 26.349 1.07883 28.7922C3.37379 28.098 5.98651 28.1255 8.28932 27.8627C6.72011 29.6902 3.2561 29.3647 2.4048 31.9843C4.56246 30.9412 7.14772 30.5608 9.37991 29.9412C8.1167 31.9922 4.64092 32.2118 4.20939 34.9333C6.17089 33.5647 8.66985 32.7843 10.7804 31.8235C9.8546 34.0471 6.46512 34.8078 6.46512 37.5608C8.19516 35.902 10.5333 34.7412 12.4673 33.4627C11.9024 35.8157 8.662 37.0863 9.09353 39.8078C10.5411 37.898 12.6713 36.3843 14.3817 34.8196C14.1895 37.2196 11.1923 38.9922 12.0279 41.6157C13.1578 39.502 15.0251 37.6745 16.4688 35.8627C16.6532 38.2627 13.9738 40.4824 15.2213 42.9216C16.0059 40.6588 17.5751 38.5608 18.7088 36.5451C19.2659 38.898 16.967 41.498 18.5872 43.7294C19.007 41.3765 20.2192 39.0549 21.0312 36.8863C21.9492 39.1137 20.0858 42.051 22.0355 44C22.0826 41.6039 22.9143 39.1294 23.3811 36.8588C24.6326 38.9137 23.2517 42.1098 25.4799 43.7294C25.1543 41.3529 25.5898 38.7804 25.6957 36.4667C27.2649 38.298 26.3901 41.6706 28.8341 42.9216C28.1397 40.6275 28.1672 38.0157 27.9044 35.7137C29.7325 37.2824 29.4069 40.7451 32.0274 41.5961C30.9839 39.4353 30.5995 36.8549 29.9836 34.6196C32.0353 35.8824 32.255 39.3569 34.9775 39.7882C33.6084 37.8275 32.8238 35.3294 31.8666 33.2196C34.0909 34.1451 34.852 37.5333 37.606 37.5333C35.9465 35.8078 34.7853 33.4667 33.5064 31.5333C35.8602 32.098 37.1313 35.3373 39.8538 34.9059C37.9433 33.4588 36.429 31.3294 34.8638 29.6196C37.2646 29.8118 39.0378 32.8078 41.6623 31.9725C39.5478 30.8431 37.7197 28.9765 35.9073 27.5333C38.3082 27.349 40.5286 30.0275 42.9687 28.7804C40.7051 27.9961 38.6063 26.4275 36.5899 25.2941C37.1035 25.1533 37.6455 25.1533 38.1591 25.2941M30.3405 27.0902L26.7 25.5216L25.2328 29.2039L23.7813 25.5608L20.1407 27.1294L21.7099 23.4941L18.0301 22.0275L21.7099 20.5608L20.1407 16.9216L23.7813 18.4902L25.2446 14.8078L26.7118 18.4863L30.3523 16.9176L28.7831 20.5569L32.4629 22.0235L28.7831 23.4902L30.3405 27.0902ZM24.9778 10.4078C18.6657 10.4078 13.2088 15.3216 13.2088 21.9412C13.2088 28.5608 18.7559 33.4706 24.9778 33.4706C27.9763 33.472 30.8671 32.353 33.0827 30.3333C30.9525 33.7726 25.629 36.2431 22.5887 36.2431H20.4075C19.375 36.1054 18.3518 35.905 17.3436 35.6431C15.2094 34.9892 13.2539 33.8541 11.6278 32.3255C9.05038 29.9725 7.19087 25.6078 7.19087 22.8667V20.9922C7.19087 19.7529 7.90486 17.3176 8.3207 16.3255C8.93951 14.8061 9.83769 13.4161 10.9687 12.2274C14.2797 8.8 18.0537 7.62353 21.502 7.62353C24.3729 7.61052 27.1801 8.46933 29.552 10.0863C30.7289 10.8706 32.3334 12.3216 33.1102 13.5922C30.9072 11.529 27.9965 10.3893 24.9778 10.4078Z" fill="white"/>
    <path d="M56.3744 35.398C57.1566 35.398 57.7845 35.2 58.2582 34.815C58.732 34.419 58.9743 33.891 58.9743 33.242C58.9743 32.846 58.8421 32.483 58.6989 32.252C58.5667 31.999 58.1811 31.735 57.9608 31.603C57.8506 31.526 57.6744 31.449 57.443 31.361C57.2117 31.262 57.0354 31.196 56.9142 31.163L56.3193 30.954C55.7134 30.756 55.2727 30.558 55.0083 30.371C54.7439 30.184 54.6117 29.898 54.6117 29.513C54.6117 28.677 55.2507 28.182 56.2091 28.182C57.1235 28.182 57.7515 28.611 58.104 29.458L58.754 29.095C58.3243 28.127 57.41 27.434 56.2091 27.434C55.5371 27.434 54.9752 27.621 54.5236 28.006C54.0719 28.38 53.8405 28.897 53.8405 29.546C53.8405 30.217 54.138 30.723 54.7219 31.075C54.9752 31.24 55.504 31.449 56.3083 31.713C56.9803 31.933 57.465 32.142 57.7625 32.351C58.0599 32.56 58.2032 32.857 58.2032 33.264C58.2032 34.1 57.5311 34.65 56.3854 34.65C55.2066 34.65 54.4464 34.089 54.171 33.132L53.51 33.517C53.9066 34.694 54.9642 35.398 56.3744 35.398Z" fill="white"/>
    <path d="M64.066 32.648C64.066 34.045 63.3389 34.694 62.2813 34.694C61.3228 34.694 60.783 34.122 60.783 33.143V29.766H60.0559V33.143C60.0559 34.518 60.8821 35.398 62.2152 35.398C63.0414 35.398 63.6584 35.068 64.066 34.408V35.266H64.7931V29.766H64.066V32.648Z" fill="white"/>
    <path d="M69.2837 29.634C68.3032 29.634 67.5651 30.041 67.0583 30.844V29.766H66.3312V37.466H67.0583V34.188C67.5651 34.991 68.3032 35.398 69.2837 35.398C70.0659 35.398 70.7379 35.123 71.2888 34.562C71.8506 34.001 72.1261 33.319 72.1261 32.516C72.1261 31.713 71.8506 31.031 71.2888 30.47C70.7379 29.909 70.0659 29.634 69.2837 29.634ZM67.6863 34.067C67.2677 33.638 67.0583 33.121 67.0583 32.516C67.0583 31.911 67.2677 31.394 67.6863 30.976C68.1049 30.547 68.6227 30.338 69.2286 30.338C69.8346 30.338 70.3524 30.547 70.771 30.976C71.1896 31.394 71.3989 31.911 71.3989 32.516C71.3989 33.121 71.1896 33.638 70.771 34.067C70.3524 34.485 69.8346 34.694 69.2286 34.694C68.6227 34.694 68.1049 34.485 67.6863 34.067Z" fill="white"/>
    <path d="M76.2876 29.634C75.3071 29.634 74.5689 30.041 74.0622 30.844V29.766H73.3351V37.466H74.0622V34.188C74.5689 34.991 75.3071 35.398 76.2876 35.398C77.0698 35.398 77.7418 35.123 78.2926 34.562C78.8545 34.001 79.1299 33.319 79.1299 32.516C79.1299 31.713 78.8545 31.031 78.2926 30.47C77.7418 29.909 77.0698 29.634 76.2876 29.634ZM74.6901 34.067C74.2715 33.638 74.0622 33.121 74.0622 32.516C74.0622 31.911 74.2715 31.394 74.6901 30.976C75.1088 30.547 75.6266 30.338 76.2325 30.338C76.8384 30.338 77.3562 30.547 77.7748 30.976C78.1935 31.394 78.4028 31.911 78.4028 32.516C78.4028 33.121 78.1935 33.638 77.7748 34.067C77.3562 34.485 76.8384 34.694 76.2325 34.694C75.6266 34.694 75.1088 34.485 74.6901 34.067Z" fill="white"/>
    <path d="M84.9549 34.573C85.5168 34.012 85.8032 33.33 85.8032 32.516C85.8032 31.702 85.5168 31.02 84.9549 30.47C84.3931 29.909 83.71 29.634 82.9058 29.634C82.1016 29.634 81.4075 29.909 80.8457 30.47C80.2838 31.02 80.0084 31.702 80.0084 32.516C80.0084 33.33 80.2838 34.012 80.8457 34.573C81.4075 35.123 82.1016 35.398 82.9058 35.398C83.71 35.398 84.3931 35.123 84.9549 34.573ZM81.3635 34.067C80.9448 33.638 80.7355 33.121 80.7355 32.516C80.7355 31.911 80.9448 31.394 81.3635 30.976C81.7821 30.547 82.2999 30.338 82.9058 30.338C83.5117 30.338 84.0295 30.547 84.4482 30.976C84.8668 31.394 85.0761 31.911 85.0761 32.516C85.0761 33.121 84.8668 33.638 84.4482 34.067C84.0295 34.485 83.5117 34.694 82.9058 34.694C82.2999 34.694 81.7821 34.485 81.3635 34.067Z" fill="white"/>
    <path d="M87.7471 29.766H87.02V35.266H87.7471V32.208C87.7471 30.943 88.4852 30.382 89.4877 30.382V29.678C88.6615 29.678 88.0886 30.008 87.7471 30.679V29.766Z" fill="white"/>
    <path d="M93.5113 29.766H91.9249V28.226L91.1977 28.446V29.766H90.041V30.47H91.1977V33.803C91.1977 35.079 91.9689 35.497 93.5113 35.266V34.628C92.4537 34.672 91.9249 34.749 91.9249 33.803V30.47H93.5113V29.766Z" fill="white"/>
    <path d="M96.9345 29.634C96.0862 29.634 95.4031 29.909 94.8633 30.459C94.3235 31.009 94.0591 31.691 94.0591 32.516C94.0591 33.352 94.3345 34.045 94.8743 34.584C95.4142 35.123 96.1192 35.398 96.9896 35.398C98.0582 35.398 98.9285 34.914 99.4133 34.133L98.7743 33.759C98.4658 34.32 97.8379 34.694 97.0006 34.694C95.8218 34.694 94.9515 33.99 94.8082 32.879H99.6446C99.6556 32.736 99.6666 32.615 99.6666 32.538C99.6666 31.757 99.4133 31.075 98.9065 30.503C98.4107 29.92 97.7497 29.634 96.9345 29.634ZM96.9345 30.338C97.4302 30.338 97.8709 30.503 98.2455 30.822C98.6201 31.141 98.8404 31.592 98.9175 32.175H94.8082C94.9515 31.086 95.7887 30.338 96.9345 30.338Z" fill="white"/>
    <path d="M105.56 30.844C105.054 30.041 104.316 29.634 103.335 29.634C102.553 29.634 101.881 29.909 101.319 30.47C100.768 31.031 100.493 31.713 100.493 32.516C100.493 33.319 100.768 34.001 101.319 34.562C101.881 35.123 102.553 35.398 103.335 35.398C104.316 35.398 105.054 34.991 105.56 34.188V35.266H106.288V27.566H105.56V30.844ZM101.848 34.067C101.429 33.638 101.22 33.121 101.22 32.516C101.22 31.911 101.429 31.394 101.848 30.976C102.266 30.547 102.784 30.338 103.39 30.338C103.996 30.338 104.514 30.547 104.932 30.976C105.351 31.394 105.56 31.911 105.56 32.516C105.56 33.121 105.351 33.638 104.932 34.067C104.514 34.485 103.996 34.694 103.39 34.694C102.784 34.694 102.266 34.485 101.848 34.067Z" fill="white"/>
    <path d="M113.534 29.634C112.553 29.634 111.815 30.041 111.308 30.844V27.566H110.581V35.266H111.308V34.188C111.815 34.991 112.553 35.398 113.534 35.398C114.316 35.398 114.988 35.123 115.539 34.562C116.101 34.001 116.376 33.319 116.376 32.516C116.376 31.713 116.101 31.031 115.539 30.47C114.988 29.909 114.316 29.634 113.534 29.634ZM111.936 34.067C111.518 33.638 111.308 33.121 111.308 32.516C111.308 31.911 111.518 31.394 111.936 30.976C112.355 30.547 112.873 30.338 113.479 30.338C114.085 30.338 114.602 30.547 115.021 30.976C115.44 31.394 115.649 31.911 115.649 32.516C115.649 33.121 115.44 33.638 115.021 34.067C114.602 34.485 114.085 34.694 113.479 34.694C112.873 34.694 112.355 34.485 111.936 34.067Z" fill="white"/>
    <path d="M119.551 34.375L117.48 29.766H116.709L119.177 35.299L119.033 35.64C118.692 36.476 118.185 36.861 117.524 36.784V37.466C118.494 37.543 119.32 36.861 119.75 35.772L122.107 29.766H121.336L119.551 34.375Z" fill="white"/>
    <path d="M125.189 27.566V28.292H127.558V35.266H128.329V28.292H130.698V27.566H125.189Z" fill="white"/>
    <path d="M134.268 29.634C133.441 29.634 132.824 29.964 132.417 30.624V27.566H131.69V35.266H132.417V32.384C132.417 30.987 133.144 30.338 134.201 30.338C135.16 30.338 135.7 30.91 135.7 31.889V35.266H136.427V31.889C136.427 30.514 135.601 29.634 134.268 29.634Z" fill="white"/>
    <path d="M140.378 29.634C139.529 29.634 138.846 29.909 138.306 30.459C137.767 31.009 137.502 31.691 137.502 32.516C137.502 33.352 137.778 34.045 138.317 34.584C138.857 35.123 139.562 35.398 140.433 35.398C141.501 35.398 142.372 34.914 142.856 34.133L142.217 33.759C141.909 34.32 141.281 34.694 140.444 34.694C139.265 34.694 138.395 33.99 138.251 32.879H143.088C143.099 32.736 143.11 32.615 143.11 32.538C143.11 31.757 142.856 31.075 142.35 30.503C141.854 29.92 141.193 29.634 140.378 29.634ZM140.378 30.338C140.873 30.338 141.314 30.503 141.689 30.822C142.063 31.141 142.284 31.592 142.361 32.175H138.251C138.395 31.086 139.232 30.338 140.378 30.338Z" fill="white"/>
    <path d="M153.223 27.566L150.656 31.856L148.089 27.566H147.131V35.266H147.902V28.732L150.601 33.242H150.711L153.41 28.732V35.266H154.181V27.566H153.223Z" fill="white"/>
    <path d="M156.57 28.446C156.779 28.237 156.779 27.907 156.57 27.698C156.361 27.489 156.03 27.489 155.821 27.698C155.612 27.907 155.612 28.237 155.821 28.446C156.03 28.655 156.361 28.655 156.57 28.446ZM156.559 35.266V29.766H155.832V35.266H156.559Z" fill="white"/>
    <path d="M160.68 29.634C159.854 29.634 159.237 29.964 158.829 30.624V29.766H158.102V35.266H158.829V32.384C158.829 30.987 159.556 30.338 160.614 30.338C161.572 30.338 162.112 30.91 162.112 31.889V35.266H162.839V31.889C162.839 30.514 162.013 29.634 160.68 29.634Z" fill="white"/>
    <path d="M164.983 28.446C165.193 28.237 165.193 27.907 164.983 27.698C164.774 27.489 164.443 27.489 164.234 27.698C164.025 27.907 164.025 28.237 164.234 28.446C164.443 28.655 164.774 28.655 164.983 28.446ZM164.972 35.266V29.766H164.245V35.266H164.972Z" fill="white"/>
    <path d="M167.088 31.207C167.088 30.646 167.617 30.338 168.245 30.338C168.917 30.338 169.357 30.591 169.567 31.108L170.173 30.756C169.853 30.063 169.137 29.634 168.245 29.634C167.705 29.634 167.253 29.788 166.89 30.085C166.537 30.382 166.361 30.756 166.361 31.207C166.361 32.395 167.518 32.648 168.443 32.879C169.071 33.044 169.578 33.319 169.578 33.814C169.578 34.419 169.027 34.694 168.311 34.694C167.573 34.694 167.011 34.342 166.802 33.77L166.185 34.133C166.482 34.881 167.253 35.398 168.311 35.398C168.895 35.398 169.379 35.255 169.743 34.958C170.118 34.661 170.305 34.287 170.305 33.814C170.305 32.626 169.148 32.373 168.223 32.142C167.595 31.977 167.088 31.702 167.088 31.207Z" fill="white"/>
    <path d="M174.222 29.766H172.636V28.226L171.909 28.446V29.766H170.752V30.47H171.909V33.803C171.909 35.079 172.68 35.497 174.222 35.266V34.628C173.165 34.672 172.636 34.749 172.636 33.803V30.47H174.222V29.766Z" fill="white"/>
    <path d="M176.161 29.766H175.434V35.266H176.161V32.208C176.161 30.943 176.899 30.382 177.902 30.382V29.678C177.075 29.678 176.503 30.008 176.161 30.679V29.766Z" fill="white"/>
    <path d="M181.187 34.375L179.116 29.766H178.345L180.813 35.299L180.669 35.64C180.328 36.476 179.821 36.861 179.16 36.784V37.466C180.13 37.543 180.956 36.861 181.385 35.772L183.743 29.766H182.972L181.187 34.375Z" fill="white"/>
    <path d="M191.992 34.573C192.554 34.012 192.84 33.33 192.84 32.516C192.84 31.702 192.554 31.02 191.992 30.47C191.43 29.909 190.747 29.634 189.943 29.634C189.139 29.634 188.445 29.909 187.883 30.47C187.321 31.02 187.046 31.702 187.046 32.516C187.046 33.33 187.321 34.012 187.883 34.573C188.445 35.123 189.139 35.398 189.943 35.398C190.747 35.398 191.43 35.123 191.992 34.573ZM188.401 34.067C187.982 33.638 187.773 33.121 187.773 32.516C187.773 31.911 187.982 31.394 188.401 30.976C188.819 30.547 189.337 30.338 189.943 30.338C190.549 30.338 191.067 30.547 191.485 30.976C191.904 31.394 192.113 31.911 192.113 32.516C192.113 33.121 191.904 33.638 191.485 34.067C191.067 34.485 190.549 34.694 189.943 34.694C189.337 34.694 188.819 34.485 188.401 34.067Z" fill="white"/>
    <path d="M196.596 27.434C195.109 27.335 194.283 28.105 194.283 29.546V29.766H193.346V30.47H194.283V35.266H195.01V30.47H196.596V29.766H195.01V29.546C195.01 28.49 195.527 28.05 196.596 28.138V27.434Z" fill="white"/>
    <path d="M203.838 35.398C205.259 35.398 206.548 34.65 207.176 33.495L206.493 33.11C206.008 34.045 204.983 34.65 203.838 34.65C202.879 34.65 202.086 34.342 201.48 33.715C200.874 33.088 200.566 32.329 200.566 31.416C200.566 30.503 200.874 29.744 201.48 29.117C202.086 28.49 202.879 28.182 203.838 28.182C204.983 28.182 206.008 28.787 206.493 29.722L207.176 29.326C206.526 28.171 205.259 27.434 203.838 27.434C202.67 27.434 201.7 27.819 200.94 28.589C200.18 29.359 199.794 30.305 199.794 31.416C199.794 32.527 200.18 33.473 200.94 34.243C201.7 35.013 202.67 35.398 203.838 35.398Z" fill="white"/>
    <path d="M212.212 32.648C212.212 34.045 211.485 34.694 210.427 34.694C209.468 34.694 208.929 34.122 208.929 33.143V29.766H208.202V33.143C208.202 34.518 209.028 35.398 210.361 35.398C211.187 35.398 211.804 35.068 212.212 34.408V35.266H212.939V29.766H212.212V32.648Z" fill="white"/>
    <path d="M215.204 35.266V27.236H214.477V35.266H215.204Z" fill="white"/>
    <path d="M219.666 29.766H218.08V28.226L217.353 28.446V29.766H216.196V30.47H217.353V33.803C217.353 35.079 218.124 35.497 219.666 35.266V34.628C218.609 34.672 218.08 34.749 218.08 33.803V30.47H219.666V29.766Z" fill="white"/>
    <path d="M224.756 32.648C224.756 34.045 224.029 34.694 222.971 34.694C222.013 34.694 221.473 34.122 221.473 33.143V29.766H220.746V33.143C220.746 34.518 221.572 35.398 222.905 35.398C223.732 35.398 224.349 35.068 224.756 34.408V35.266H225.483V29.766H224.756V32.648Z" fill="white"/>
    <path d="M227.748 29.766H227.021V35.266H227.748V32.208C227.748 30.943 228.487 30.382 229.489 30.382V29.678C228.663 29.678 228.09 30.008 227.748 30.679V29.766Z" fill="white"/>
    <path d="M232.697 29.634C231.849 29.634 231.166 29.909 230.626 30.459C230.086 31.009 229.822 31.691 229.822 32.516C229.822 33.352 230.097 34.045 230.637 34.584C231.177 35.123 231.882 35.398 232.752 35.398C233.821 35.398 234.691 34.914 235.176 34.133L234.537 33.759C234.228 34.32 233.6 34.694 232.763 34.694C231.584 34.694 230.714 33.99 230.571 32.879H235.407C235.418 32.736 235.429 32.615 235.429 32.538C235.429 31.757 235.176 31.075 234.669 30.503C234.173 29.92 233.512 29.634 232.697 29.634ZM232.697 30.338C233.193 30.338 233.633 30.503 234.008 30.822C234.383 31.141 234.603 31.592 234.68 32.175H230.571C230.714 31.086 231.551 30.338 232.697 30.338Z" fill="white"/>
    <path d="M244.077 30.844C243.57 30.041 242.832 29.634 241.852 29.634C241.07 29.634 240.398 29.909 239.836 30.47C239.285 31.031 239.009 31.713 239.009 32.516C239.009 33.319 239.285 34.001 239.836 34.562C240.398 35.123 241.07 35.398 241.852 35.398C242.832 35.398 243.57 34.991 244.077 34.188V35.266H244.804V29.766H244.077V30.844ZM240.365 34.067C239.946 33.638 239.737 33.121 239.737 32.516C239.737 31.911 239.946 31.394 240.365 30.976C240.783 30.547 241.301 30.338 241.907 30.338C242.513 30.338 243.031 30.547 243.449 30.976C243.868 31.394 244.077 31.911 244.077 32.516C244.077 33.121 243.868 33.638 243.449 34.067C243.031 34.485 242.513 34.694 241.907 34.694C241.301 34.694 240.783 34.485 240.365 34.067Z" fill="white"/>
    <path d="M248.922 29.634C248.095 29.634 247.479 29.964 247.071 30.624V29.766H246.344V35.266H247.071V32.384C247.071 30.987 247.798 30.338 248.856 30.338C249.814 30.338 250.354 30.91 250.354 31.889V35.266H251.081V31.889C251.081 30.514 250.255 29.634 248.922 29.634Z" fill="white"/>
    <path d="M257.224 30.844C256.717 30.041 255.979 29.634 254.999 29.634C254.217 29.634 253.545 29.909 252.983 30.47C252.432 31.031 252.156 31.713 252.156 32.516C252.156 33.319 252.432 34.001 252.983 34.562C253.545 35.123 254.217 35.398 254.999 35.398C255.979 35.398 256.717 34.991 257.224 34.188V35.266H257.951V27.566H257.224V30.844ZM253.512 34.067C253.093 33.638 252.884 33.121 252.884 32.516C252.884 31.911 253.093 31.394 253.512 30.976C253.93 30.547 254.448 30.338 255.054 30.338C255.66 30.338 256.178 30.547 256.596 30.976C257.015 31.394 257.224 31.911 257.224 32.516C257.224 33.121 257.015 33.638 256.596 34.067C256.178 34.485 255.66 34.694 255.054 34.694C254.448 34.694 253.93 34.485 253.512 34.067Z" fill="white"/>
    <path d="M261.694 27.566V28.292H264.063V35.266H264.834V28.292H267.203V27.566H261.694Z" fill="white"/>
    <path d="M271.821 34.573C272.383 34.012 272.669 33.33 272.669 32.516C272.669 31.702 272.383 31.02 271.821 30.47C271.259 29.909 270.576 29.634 269.772 29.634C268.967 29.634 268.273 29.909 267.711 30.47C267.15 31.02 266.874 31.702 266.874 32.516C266.874 33.33 267.15 34.012 267.711 34.573C268.273 35.123 268.967 35.398 269.772 35.398C270.576 35.398 271.259 35.123 271.821 34.573ZM268.229 34.067C267.811 33.638 267.601 33.121 267.601 32.516C267.601 31.911 267.811 31.394 268.229 30.976C268.648 30.547 269.166 30.338 269.772 30.338C270.378 30.338 270.895 30.547 271.314 30.976C271.733 31.394 271.942 31.911 271.942 32.516C271.942 33.121 271.733 33.638 271.314 34.067C270.895 34.485 270.378 34.694 269.772 34.694C269.166 34.694 268.648 34.485 268.229 34.067Z" fill="white"/>
    <path d="M277.764 32.648C277.764 34.045 277.037 34.694 275.979 34.694C275.02 34.694 274.481 34.122 274.481 33.143V29.766H273.754V33.143C273.754 34.518 274.58 35.398 275.913 35.398C276.739 35.398 277.356 35.068 277.764 34.408V35.266H278.491V29.766H277.764V32.648Z" fill="white"/>
    <path d="M280.756 29.766H280.029V35.266H280.756V32.208C280.756 30.943 281.494 30.382 282.497 30.382V29.678C281.67 29.678 281.098 30.008 280.756 30.679V29.766Z" fill="white"/>
    <path d="M284.231 28.446C284.441 28.237 284.441 27.907 284.231 27.698C284.022 27.489 283.691 27.489 283.482 27.698C283.273 27.907 283.273 28.237 283.482 28.446C283.691 28.655 284.022 28.655 284.231 28.446ZM284.22 35.266V29.766H283.493V35.266H284.22Z" fill="white"/>
    <path d="M286.336 31.207C286.336 30.646 286.865 30.338 287.493 30.338C288.165 30.338 288.606 30.591 288.815 31.108L289.421 30.756C289.101 30.063 288.385 29.634 287.493 29.634C286.953 29.634 286.501 29.788 286.138 30.085C285.785 30.382 285.609 30.756 285.609 31.207C285.609 32.395 286.766 32.648 287.691 32.879C288.319 33.044 288.826 33.319 288.826 33.814C288.826 34.419 288.275 34.694 287.559 34.694C286.821 34.694 286.259 34.342 286.05 33.77L285.433 34.133C285.73 34.881 286.501 35.398 287.559 35.398C288.143 35.398 288.628 35.255 288.991 34.958C289.366 34.661 289.553 34.287 289.553 33.814C289.553 32.626 288.396 32.373 287.471 32.142C286.843 31.977 286.336 31.702 286.336 31.207Z" fill="white"/>
    <path d="M296.638 29.634C295.845 29.634 295.25 29.964 294.853 30.635C294.534 29.964 293.972 29.634 293.179 29.634C292.452 29.634 291.89 29.942 291.493 30.569V29.766H290.766V35.266H291.493V32.219C291.493 30.943 292.198 30.338 293.079 30.338C293.873 30.338 294.368 30.866 294.368 31.834V35.266H295.096V32.219C295.096 30.932 295.713 30.338 296.627 30.338C297.431 30.338 297.971 30.877 297.971 31.834V35.266H298.698V31.834C298.698 30.481 297.872 29.634 296.638 29.634Z" fill="white"/>
    <path d="M65.3983 7.34043C65.3469 7.99377 65.3084 8.62149 65.2827 9.22359C65.2699 9.82568 65.2634 10.2869 65.2634 10.6071C65.2634 10.889 65.2699 11.158 65.2827 11.4142C65.2956 11.6704 65.3084 11.8882 65.3212 12.0675H64.8781C64.6726 10.9914 64.4092 10.1395 64.0881 9.51182C63.7798 8.88411 63.4073 8.44214 62.9706 8.18593C62.5338 7.91691 62.02 7.7824 61.4291 7.7824H60.986V18.7546C60.986 19.2671 61.0373 19.6514 61.1401 19.9076C61.2557 20.1638 61.4612 20.3367 61.7567 20.4264C62.0521 20.5033 62.4824 20.5481 63.0476 20.5609V20.9452C62.6494 20.9324 62.1163 20.9196 61.4484 20.9068C60.7933 20.894 60.1061 20.8876 59.3867 20.8876C58.6802 20.8876 58.0123 20.894 57.3829 20.9068C56.7534 20.9196 56.2461 20.9324 55.8607 20.9452V20.5609C56.4387 20.5481 56.8755 20.5033 57.1709 20.4264C57.4664 20.3367 57.6655 20.1638 57.7682 19.9076C57.871 19.6514 57.9224 19.2671 57.9224 18.7546V7.7824H57.4985C56.9076 7.7824 56.3938 7.91691 55.957 8.18593C55.5203 8.44214 55.1478 8.88411 54.8395 9.51182C54.5312 10.1267 54.2615 10.9786 54.0302 12.0675H53.5871C53.6128 11.8882 53.6256 11.6704 53.6256 11.4142C53.6385 11.158 53.6449 10.889 53.6449 10.6071C53.6449 10.2869 53.632 9.82568 53.6063 9.22359C53.5935 8.62149 53.5614 7.99377 53.51 7.34043C54.1009 7.35324 54.7432 7.36605 55.4368 7.37887C56.1433 7.39168 56.8498 7.39808 57.5563 7.39808C58.2628 7.39808 58.8986 7.39808 59.4638 7.39808C60.0418 7.39808 60.6777 7.39808 61.3713 7.39808C62.0778 7.39808 62.7843 7.39168 63.4908 7.37887C64.1973 7.36605 64.8331 7.35324 65.3983 7.34043Z" fill="white"/>
    <path d="M73.4205 7.302L78.1026 19.3311C78.2825 19.7923 78.4816 20.1126 78.7 20.2919C78.9312 20.4584 79.1367 20.5481 79.3165 20.5609V20.9452C78.9312 20.9196 78.4752 20.9068 77.9485 20.9068C77.4347 20.894 76.9145 20.8876 76.3878 20.8876C75.7969 20.8876 75.2382 20.894 74.7115 20.9068C74.1848 20.9068 73.7674 20.9196 73.4591 20.9452V20.5609C74.1142 20.5353 74.5252 20.4264 74.6922 20.2343C74.8721 20.0293 74.8335 19.6001 74.5766 18.9468L71.3011 10.0114L71.6479 9.51182L68.7192 17.1213C68.3595 18.0693 68.1797 18.7867 68.1797 19.2735C68.1925 19.7603 68.3531 20.0933 68.6614 20.2727C68.9697 20.4392 69.3807 20.5353 69.8945 20.5609V20.9452C69.4706 20.9196 69.066 20.9068 68.6806 20.9068C68.2953 20.894 67.9035 20.8876 67.5053 20.8876C67.2227 20.8876 66.9529 20.894 66.696 20.9068C66.452 20.9068 66.2336 20.9196 66.0409 20.9452V20.5609C66.3107 20.5097 66.5869 20.3367 66.8695 20.0421C67.152 19.7475 67.4282 19.2478 67.698 18.5433L72.0911 7.302C72.2966 7.31481 72.515 7.32122 72.7462 7.32122C72.9902 7.32122 73.215 7.31481 73.4205 7.302ZM74.7693 15.4111V15.7954H69.0275L69.2201 15.4111H74.7693Z" fill="white"/>
    <path d="M81.0017 7.34043C81.3229 7.35324 81.7532 7.36605 82.2927 7.37887C82.845 7.39168 83.3909 7.39808 83.9304 7.39808C84.547 7.39808 85.1443 7.39168 85.7224 7.37887C86.3004 7.36605 86.7114 7.35965 86.9555 7.35965C88.5483 7.35965 89.7365 7.64148 90.5201 8.20515C91.3165 8.76881 91.7147 9.49261 91.7147 10.3765C91.7147 10.8249 91.5798 11.2797 91.3101 11.7409C91.0403 12.202 90.6228 12.612 90.0576 12.9707C89.4924 13.3294 88.7603 13.592 87.8611 13.7585V13.797C89.0686 13.8866 90.0255 14.1044 90.732 14.4503C91.4385 14.7962 91.9459 15.2125 92.2542 15.6993C92.5625 16.1861 92.7166 16.6921 92.7166 17.2174C92.7166 18.4216 92.2413 19.3439 91.2908 19.9845C90.3531 20.625 89.0557 20.9452 87.3987 20.9452C87.0904 20.9452 86.6408 20.9388 86.0499 20.926C85.4719 20.9004 84.7782 20.8876 83.969 20.8876C83.4038 20.8876 82.845 20.894 82.2927 20.9068C81.7532 20.9068 81.3229 20.9196 81.0017 20.9452V20.5609C81.4128 20.5353 81.7211 20.4841 81.9266 20.4072C82.1321 20.3303 82.267 20.1766 82.3312 19.946C82.4083 19.7154 82.4468 19.3695 82.4468 18.9084V9.37731C82.4468 8.90332 82.4083 8.55744 82.3312 8.33966C82.267 8.10907 82.1257 7.95534 81.9073 7.87848C81.7018 7.7888 81.3999 7.73756 81.0017 7.72475V7.34043ZM86.705 7.72475C86.2041 7.72475 85.8765 7.83364 85.7224 8.05142C85.5811 8.2692 85.5104 8.71116 85.5104 9.37731V18.9084C85.5104 19.5745 85.5939 20.0101 85.7609 20.215C85.9279 20.4072 86.2876 20.5033 86.8399 20.5033C87.7648 20.5033 88.4391 20.215 88.863 19.6386C89.2998 19.0493 89.5181 18.2166 89.5181 17.1405C89.5181 16.1541 89.2677 15.3919 88.7667 14.8538C88.2786 14.3158 87.4629 14.0468 86.3197 14.0468H84.6819C84.6819 14.0468 84.6819 13.9955 84.6819 13.893C84.6819 13.7777 84.6819 13.7201 84.6819 13.7201H86.3389C86.9427 13.7201 87.4051 13.5792 87.7262 13.2973C88.0474 13.0027 88.2721 12.6184 88.4006 12.1444C88.5291 11.6576 88.5933 11.1388 88.5933 10.5879C88.5933 9.63993 88.4456 8.92894 88.1501 8.45495C87.8547 7.96815 87.373 7.72475 86.705 7.72475Z" fill="white"/>
    <path d="M101.661 7.302L106.343 19.3311C106.523 19.7923 106.722 20.1126 106.94 20.2919C107.171 20.4584 107.377 20.5481 107.557 20.5609V20.9452C107.171 20.9196 106.715 20.9068 106.189 20.9068C105.675 20.894 105.155 20.8876 104.628 20.8876C104.037 20.8876 103.478 20.894 102.952 20.9068C102.425 20.9068 102.008 20.9196 101.699 20.9452V20.5609C102.354 20.5353 102.766 20.4264 102.933 20.2343C103.112 20.0293 103.074 19.6001 102.817 18.9468L99.5414 10.0114L99.8882 9.51182L96.9595 17.1213C96.5998 18.0693 96.42 18.7867 96.42 19.2735C96.4328 19.7603 96.5934 20.0933 96.9017 20.2727C97.21 20.4392 97.621 20.5353 98.1348 20.5609V20.9452C97.7109 20.9196 97.3063 20.9068 96.9209 20.9068C96.5356 20.894 96.1438 20.8876 95.7456 20.8876C95.463 20.8876 95.1932 20.894 94.9363 20.9068C94.6923 20.9068 94.4739 20.9196 94.2812 20.9452V20.5609C94.551 20.5097 94.8272 20.3367 95.1097 20.0421C95.3923 19.7475 95.6685 19.2478 95.9383 18.5433L100.331 7.302C100.537 7.31481 100.755 7.32122 100.986 7.32122C101.231 7.32122 101.455 7.31481 101.661 7.302ZM103.01 15.4111V15.7954H97.2678L97.4604 15.4111H103.01Z" fill="white"/>
    <path d="M109.242 7.34043C109.563 7.35324 109.993 7.36605 110.533 7.37887C111.085 7.39168 111.631 7.39808 112.171 7.39808C112.787 7.39808 113.385 7.39168 113.963 7.37887C114.541 7.36605 114.952 7.35965 115.196 7.35965C116.981 7.35965 118.317 7.65429 119.204 8.24358C120.09 8.82005 120.533 9.63993 120.533 10.7032C120.533 11.1388 120.443 11.5807 120.263 12.0291C120.083 12.4647 119.775 12.8746 119.338 13.2589C118.915 13.6304 118.33 13.9315 117.585 14.1621C116.84 14.3798 115.902 14.4887 114.772 14.4887H112.922V14.1044H114.579C115.337 14.1044 115.909 13.9635 116.294 13.6817C116.692 13.387 116.962 13.0027 117.103 12.5287C117.257 12.0419 117.335 11.5039 117.335 10.9146C117.335 9.90255 117.155 9.1211 116.795 8.57025C116.435 8.00658 115.819 7.72475 114.945 7.72475C114.444 7.72475 114.117 7.83364 113.963 8.05142C113.821 8.2692 113.751 8.71116 113.751 9.37731V18.9084C113.751 19.3695 113.783 19.7154 113.847 19.946C113.924 20.1766 114.065 20.3303 114.271 20.4072C114.476 20.4841 114.785 20.5353 115.196 20.5609V20.9452C114.849 20.9196 114.412 20.9068 113.886 20.9068C113.359 20.894 112.826 20.8876 112.286 20.8876C111.67 20.8876 111.085 20.894 110.533 20.9068C109.993 20.9068 109.563 20.9196 109.242 20.9452V20.5609C109.653 20.5353 109.961 20.4841 110.167 20.4072C110.372 20.3303 110.507 20.1766 110.572 19.946C110.649 19.7154 110.687 19.3695 110.687 18.9084V9.37731C110.687 8.90332 110.649 8.55744 110.572 8.33966C110.507 8.10907 110.366 7.95534 110.148 7.87848C109.942 7.7888 109.64 7.73756 109.242 7.72475V7.34043ZM112.884 14.1621C113.436 14.1749 113.911 14.2005 114.309 14.2389C114.721 14.2774 115.08 14.3158 115.388 14.3542C115.697 14.3798 115.973 14.3991 116.217 14.4119C117.386 14.5143 118.247 14.7642 118.799 15.1613C119.364 15.5584 119.73 16.1541 119.897 16.9484L120.34 18.9276C120.456 19.44 120.578 19.7987 120.706 20.0037C120.835 20.2086 121.021 20.3111 121.265 20.3111C121.432 20.2983 121.567 20.2599 121.67 20.1958C121.785 20.119 121.907 20.0101 122.036 19.8692L122.306 20.0997C121.959 20.4969 121.586 20.7787 121.188 20.9452C120.79 21.1246 120.308 21.2143 119.743 21.2143C119.049 21.2143 118.478 21.0669 118.028 20.7723C117.579 20.4777 117.283 19.9332 117.142 19.139L116.795 17.2174C116.705 16.6793 116.596 16.2117 116.467 15.8146C116.339 15.4047 116.159 15.0844 115.928 14.8538C115.71 14.6104 115.401 14.4887 115.003 14.4887H112.922L112.884 14.1621Z" fill="white"/>
    <path d="M124.124 7.34043C124.445 7.35324 124.876 7.36605 125.415 7.37887C125.968 7.39168 126.513 7.39808 127.053 7.39808C127.67 7.39808 128.267 7.39168 128.845 7.37887C129.423 7.36605 129.834 7.35965 130.078 7.35965C131.864 7.35965 133.199 7.65429 134.086 8.24358C134.972 8.82005 135.415 9.63993 135.415 10.7032C135.415 11.1388 135.325 11.5807 135.145 12.0291C134.966 12.4647 134.657 12.8746 134.221 13.2589C133.797 13.6304 133.212 13.9315 132.467 14.1621C131.722 14.3798 130.784 14.4887 129.654 14.4887H127.804V14.1044H129.461C130.219 14.1044 130.791 13.9635 131.176 13.6817C131.574 13.387 131.844 13.0027 131.986 12.5287C132.14 12.0419 132.217 11.5039 132.217 10.9146C132.217 9.90255 132.037 9.1211 131.677 8.57025C131.318 8.00658 130.701 7.72475 129.828 7.72475C129.327 7.72475 128.999 7.83364 128.845 8.05142C128.704 8.2692 128.633 8.71116 128.633 9.37731V18.9084C128.633 19.3695 128.665 19.7154 128.729 19.946C128.806 20.1766 128.948 20.3303 129.153 20.4072C129.359 20.4841 129.667 20.5353 130.078 20.5609V20.9452C129.731 20.9196 129.294 20.9068 128.768 20.9068C128.241 20.894 127.708 20.8876 127.169 20.8876C126.552 20.8876 125.968 20.894 125.415 20.9068C124.876 20.9068 124.445 20.9196 124.124 20.9452V20.5609C124.535 20.5353 124.844 20.4841 125.049 20.4072C125.255 20.3303 125.389 20.1766 125.454 19.946C125.531 19.7154 125.569 19.3695 125.569 18.9084V9.37731C125.569 8.90332 125.531 8.55744 125.454 8.33966C125.389 8.10907 125.248 7.95534 125.03 7.87848C124.824 7.7888 124.522 7.73756 124.124 7.72475V7.34043ZM127.766 14.1621C128.318 14.1749 128.793 14.2005 129.192 14.2389C129.603 14.2774 129.962 14.3158 130.271 14.3542C130.579 14.3798 130.855 14.3991 131.099 14.4119C132.268 14.5143 133.129 14.7642 133.681 15.1613C134.246 15.5584 134.612 16.1541 134.779 16.9484L135.223 18.9276C135.338 19.44 135.46 19.7987 135.589 20.0037C135.717 20.2086 135.903 20.3111 136.147 20.3111C136.314 20.2983 136.449 20.2599 136.552 20.1958C136.668 20.119 136.79 20.0101 136.918 19.8692L137.188 20.0997C136.841 20.4969 136.469 20.7787 136.07 20.9452C135.672 21.1246 135.19 21.2143 134.625 21.2143C133.932 21.2143 133.36 21.0669 132.91 20.7723C132.461 20.4777 132.165 19.9332 132.024 19.139L131.677 17.2174C131.587 16.6793 131.478 16.2117 131.35 15.8146C131.221 15.4047 131.041 15.0844 130.81 14.8538C130.592 14.6104 130.284 14.4887 129.885 14.4887H127.804L127.766 14.1621Z" fill="white"/>
    <path d="M151.224 7.34043V7.72475C150.813 7.77599 150.498 7.88488 150.28 8.05142C150.074 8.20515 149.939 8.45495 149.875 8.80084C149.811 9.14672 149.779 9.63352 149.779 10.2612V15.3534C149.779 16.1861 149.721 16.9484 149.605 17.6401C149.49 18.3319 149.284 18.9276 148.989 19.4272C148.655 19.978 148.166 20.4136 147.524 20.7339C146.882 21.0541 146.066 21.2143 145.077 21.2143C144.486 21.2143 143.883 21.1438 143.266 21.0029C142.649 20.8748 142.097 20.625 141.609 20.2535C141.198 19.9076 140.883 19.5169 140.665 19.0813C140.446 18.6458 140.299 18.1333 140.222 17.544C140.145 16.9419 140.106 16.231 140.106 15.4111V9.37731C140.106 8.90332 140.068 8.55744 139.99 8.33966C139.926 8.10907 139.791 7.95534 139.586 7.87848C139.38 7.7888 139.072 7.73756 138.661 7.72475V7.34043C138.982 7.35324 139.412 7.36605 139.952 7.37887C140.504 7.39168 141.076 7.39808 141.667 7.39808C142.258 7.39808 142.823 7.39168 143.362 7.37887C143.915 7.36605 144.371 7.35324 144.73 7.34043V7.72475C144.294 7.73756 143.96 7.7888 143.728 7.87848C143.51 7.95534 143.362 8.10907 143.285 8.33966C143.208 8.55744 143.17 8.90332 143.17 9.37731V16.6217C143.17 17.48 143.247 18.2038 143.401 18.7931C143.555 19.3695 143.825 19.8051 144.21 20.0997C144.608 20.3944 145.148 20.5417 145.829 20.5417C146.728 20.5417 147.428 20.3303 147.929 19.9076C148.443 19.4848 148.802 18.902 149.008 18.1589C149.226 17.4031 149.335 16.5384 149.335 15.5648V10.4918C149.335 9.78725 149.29 9.24921 149.201 8.8777C149.111 8.49338 148.931 8.21796 148.661 8.05142C148.404 7.88488 148.006 7.77599 147.466 7.72475V7.34043C147.71 7.35324 148.032 7.36605 148.43 7.37887C148.828 7.39168 149.201 7.39808 149.547 7.39808C149.856 7.39808 150.157 7.39168 150.453 7.37887C150.761 7.36605 151.018 7.35324 151.224 7.34043Z" fill="white"/>
    <path d="M166.396 7.34043V7.70553C165.985 7.79521 165.542 7.97456 165.067 8.24358C164.604 8.5126 164.116 8.94816 163.602 9.55025L159.98 13.8546L161.098 12.2597L165.683 19.3888C165.863 19.6834 166.056 19.9204 166.261 20.0997C166.467 20.2791 166.737 20.4328 167.071 20.5609V20.9452C166.621 20.9196 166.12 20.9068 165.568 20.9068C165.015 20.894 164.514 20.8876 164.065 20.8876C163.795 20.8876 163.468 20.894 163.082 20.9068C162.697 20.9068 162.209 20.9196 161.618 20.9452V20.5609C162.144 20.5353 162.459 20.4649 162.562 20.3496C162.678 20.2215 162.633 20.0037 162.427 19.6962L159.633 15.1805C159.453 14.8859 159.293 14.6681 159.151 14.5272C159.01 14.3734 158.869 14.2709 158.728 14.2197C158.586 14.1557 158.4 14.1172 158.169 14.1044V13.7009C158.734 13.6881 159.235 13.5343 159.672 13.2397C160.121 12.9451 160.609 12.4967 161.136 11.8946L162.273 10.5303C162.761 9.95379 163.044 9.46058 163.121 9.05064C163.211 8.62789 163.127 8.30123 162.87 8.07064C162.626 7.84005 162.247 7.71835 161.733 7.70553V7.34043C162.209 7.35324 162.658 7.36605 163.082 7.37887C163.519 7.39168 164.02 7.39808 164.585 7.39808C165.33 7.39808 165.934 7.37887 166.396 7.34043ZM159.73 7.34043V7.72475C159.318 7.73756 159.004 7.7888 158.785 7.87848C158.58 7.95534 158.445 8.10907 158.381 8.33966C158.317 8.55744 158.284 8.90332 158.284 9.37731V18.9084C158.284 19.3695 158.317 19.7154 158.381 19.946C158.458 20.1766 158.599 20.3303 158.805 20.4072C159.01 20.4841 159.318 20.5353 159.73 20.5609V20.9452C159.383 20.9196 158.946 20.9068 158.419 20.9068C157.893 20.894 157.36 20.8876 156.82 20.8876C156.203 20.8876 155.619 20.894 155.067 20.9068C154.527 20.9068 154.097 20.9196 153.776 20.9452V20.5609C154.187 20.5353 154.495 20.4841 154.701 20.4072C154.906 20.3303 155.041 20.1766 155.105 19.946C155.182 19.7154 155.221 19.3695 155.221 18.9084V9.37731C155.221 8.90332 155.182 8.55744 155.105 8.33966C155.041 8.10907 154.9 7.95534 154.681 7.87848C154.476 7.7888 154.174 7.73756 153.776 7.72475V7.34043C154.097 7.35324 154.527 7.36605 155.067 7.37887C155.619 7.39168 156.203 7.39808 156.82 7.39808C157.36 7.39808 157.893 7.39168 158.419 7.37887C158.946 7.36605 159.383 7.35324 159.73 7.34043Z" fill="white"/>
    <path d="M184.999 7.34043V7.72475L178.41 20.5033H180.414C180.85 20.5033 181.287 20.4328 181.724 20.2919C182.173 20.151 182.584 19.9204 182.957 19.6001C183.342 19.2799 183.67 18.8571 183.94 18.3319C184.209 17.7938 184.389 17.1277 184.479 16.3334H184.922C184.884 16.769 184.865 17.3327 184.865 18.0244C184.865 18.3191 184.871 18.7354 184.884 19.2735C184.897 19.8115 184.935 20.3688 184.999 20.9452C184.293 20.9196 183.49 20.9068 182.591 20.9068C181.705 20.894 180.908 20.8876 180.202 20.8876C179.367 20.8876 178.493 20.894 177.581 20.9068C176.669 20.9068 175.815 20.9196 175.019 20.9452V20.5609L181.628 7.7824H179.547C178.904 7.7824 178.313 7.9041 177.774 8.1475C177.234 8.37809 176.785 8.78162 176.425 9.3581C176.066 9.92176 175.821 10.7096 175.693 11.7216H175.25C175.276 11.5423 175.288 11.3245 175.288 11.0683C175.301 10.8121 175.308 10.5431 175.308 10.2612C175.308 9.9666 175.295 9.55025 175.269 9.01221C175.256 8.47417 175.224 7.91691 175.173 7.34043C175.815 7.36605 176.534 7.38527 177.331 7.39808C178.14 7.39808 178.866 7.39808 179.508 7.39808C180.369 7.39808 181.287 7.39808 182.263 7.39808C183.24 7.38527 184.152 7.36605 184.999 7.34043Z" fill="white"/>
    <path d="M194.008 7.34043V7.72475C193.597 7.73756 193.283 7.7888 193.064 7.87848C192.859 7.95534 192.724 8.10907 192.66 8.33966C192.595 8.55744 192.563 8.90332 192.563 9.37731V18.9084C192.563 19.3695 192.595 19.7154 192.66 19.946C192.737 20.1766 192.878 20.3303 193.083 20.4072C193.289 20.4841 193.597 20.5353 194.008 20.5609V20.9452C193.662 20.9196 193.225 20.9068 192.698 20.9068C192.171 20.894 191.638 20.8876 191.099 20.8876C190.469 20.8876 189.885 20.894 189.346 20.9068C188.819 20.9068 188.389 20.9196 188.055 20.9452V20.5609C188.466 20.5353 188.774 20.4841 188.979 20.4072C189.185 20.3303 189.32 20.1766 189.384 19.946C189.461 19.7154 189.5 19.3695 189.5 18.9084V9.37731C189.5 8.90332 189.461 8.55744 189.384 8.33966C189.32 8.10907 189.179 7.95534 188.96 7.87848C188.755 7.7888 188.453 7.73756 188.055 7.72475V7.34043C188.389 7.35324 188.819 7.36605 189.346 7.37887C189.885 7.39168 190.469 7.39808 191.099 7.39808C191.638 7.39808 192.171 7.39168 192.698 7.37887C193.225 7.36605 193.662 7.35324 194.008 7.34043Z" fill="white"/>
    <path d="M208.073 7.32122V7.70553C207.791 7.82083 207.502 8.05142 207.206 8.3973C206.911 8.73038 206.583 9.2428 206.224 9.93457L202.582 17.1213H201.677L197.168 8.80084C196.937 8.36528 196.725 8.07704 196.532 7.93612C196.352 7.79521 196.192 7.72475 196.05 7.72475V7.32122C196.397 7.35965 196.75 7.38527 197.11 7.39808C197.483 7.41089 197.887 7.4173 198.324 7.4173C198.889 7.4173 199.499 7.41089 200.154 7.39808C200.809 7.37246 201.407 7.34684 201.946 7.32122V7.72475C201.625 7.72475 201.336 7.75037 201.079 7.80161C200.822 7.85286 200.643 7.94894 200.54 8.08985C200.437 8.21796 200.463 8.42933 200.617 8.72397L203.661 14.5656L203.064 15.3342L205.048 11.3565C205.524 10.4342 205.774 9.71039 205.8 9.18515C205.838 8.65992 205.71 8.28841 205.415 8.07064C205.132 7.84005 204.727 7.71835 204.201 7.70553V7.32122C204.637 7.33403 205.048 7.34684 205.434 7.35965C205.819 7.37246 206.211 7.37887 206.609 7.37887C206.892 7.37887 207.155 7.37246 207.399 7.35965C207.656 7.34684 207.881 7.33403 208.073 7.32122ZM203.95 14.0852V18.9084C203.95 19.3695 203.982 19.7154 204.047 19.946C204.124 20.1766 204.265 20.3303 204.47 20.4072C204.676 20.4841 204.984 20.5353 205.395 20.5609V20.9452C205.048 20.9196 204.599 20.9068 204.047 20.9068C203.507 20.894 202.967 20.8876 202.428 20.8876C201.824 20.8876 201.253 20.894 200.713 20.9068C200.174 20.9068 199.75 20.9196 199.441 20.9452V20.5609C199.853 20.5353 200.161 20.4841 200.366 20.4072C200.572 20.3303 200.707 20.1766 200.771 19.946C200.848 19.7154 200.887 19.3695 200.887 18.9084V14.9691L202.563 16.1605L203.95 14.0852Z" fill="white"/>
    <path d="M216.628 7.07141C217.99 7.07141 219.178 7.34684 220.193 7.89769C221.22 8.44855 222.017 9.2428 222.582 10.2805C223.147 11.3053 223.43 12.5543 223.43 14.0275C223.43 15.4623 223.141 16.7178 222.563 17.7938C221.985 18.8699 221.175 19.709 220.135 20.3111C219.107 20.9132 217.932 21.2143 216.609 21.2143C215.247 21.2143 214.053 20.9388 213.025 20.388C212.01 19.8371 211.22 19.0429 210.655 18.0052C210.09 16.9676 209.807 15.7185 209.807 14.2581C209.807 12.8234 210.096 11.5679 210.674 10.4918C211.265 9.41574 212.068 8.57665 213.083 7.97456C214.11 7.37246 215.292 7.07141 216.628 7.07141ZM216.551 7.4173C215.832 7.4173 215.202 7.70553 214.663 8.28201C214.136 8.85848 213.725 9.65274 213.43 10.6648C213.147 11.6768 213.006 12.849 213.006 14.1813C213.006 15.5392 213.166 16.7242 213.487 17.7362C213.821 18.7354 214.265 19.5105 214.817 20.0613C215.382 20.5994 216.005 20.8684 216.686 20.8684C217.405 20.8684 218.028 20.5801 218.555 20.0037C219.094 19.4272 219.505 18.6329 219.788 17.6209C220.084 16.5961 220.231 15.4239 220.231 14.1044C220.231 12.7337 220.064 11.5487 219.73 10.5495C219.409 9.55026 218.966 8.78162 218.401 8.24358C217.848 7.69272 217.232 7.4173 216.551 7.4173Z" fill="white"/>
    <path d="M226.304 7.34043C226.625 7.35324 227.055 7.36605 227.595 7.37887C228.147 7.39168 228.693 7.39808 229.232 7.39808C229.849 7.39808 230.446 7.39168 231.024 7.37887C231.602 7.36605 232.013 7.35965 232.257 7.35965C234.043 7.35965 235.379 7.65429 236.265 8.24358C237.151 8.82005 237.595 9.63993 237.595 10.7032C237.595 11.1388 237.505 11.5807 237.325 12.0291C237.145 12.4647 236.837 12.8746 236.4 13.2589C235.976 13.6304 235.392 13.9315 234.647 14.1621C233.902 14.3798 232.964 14.4887 231.834 14.4887H229.984V14.1044H231.641C232.399 14.1044 232.97 13.9635 233.356 13.6817C233.754 13.387 234.024 13.0027 234.165 12.5287C234.319 12.0419 234.396 11.5039 234.396 10.9146C234.396 9.90255 234.216 9.1211 233.857 8.57025C233.497 8.00658 232.88 7.72475 232.007 7.72475C231.506 7.72475 231.178 7.83364 231.024 8.05142C230.883 8.2692 230.812 8.71116 230.812 9.37731V18.9084C230.812 19.3695 230.844 19.7154 230.909 19.946C230.986 20.1766 231.127 20.3303 231.333 20.4072C231.538 20.4841 231.846 20.5353 232.257 20.5609V20.9452C231.911 20.9196 231.474 20.9068 230.947 20.9068C230.421 20.894 229.887 20.8876 229.348 20.8876C228.731 20.8876 228.147 20.894 227.595 20.9068C227.055 20.9068 226.625 20.9196 226.304 20.9452V20.5609C226.715 20.5353 227.023 20.4841 227.229 20.4072C227.434 20.3303 227.569 20.1766 227.633 19.946C227.71 19.7154 227.749 19.3695 227.749 18.9084V9.37731C227.749 8.90332 227.71 8.55744 227.633 8.33966C227.569 8.10907 227.428 7.95534 227.209 7.87848C227.004 7.7888 226.702 7.73756 226.304 7.72475V7.34043ZM229.945 14.1621C230.498 14.1749 230.973 14.2005 231.371 14.2389C231.782 14.2774 232.142 14.3158 232.45 14.3542C232.758 14.3798 233.035 14.3991 233.279 14.4119C234.448 14.5143 235.308 14.7642 235.861 15.1613C236.426 15.5584 236.792 16.1541 236.959 16.9484L237.402 18.9276C237.518 19.44 237.64 19.7987 237.768 20.0037C237.897 20.2086 238.083 20.3111 238.327 20.3111C238.494 20.2983 238.629 20.2599 238.731 20.1958C238.847 20.119 238.969 20.0101 239.098 19.8692L239.367 20.0997C239.02 20.4969 238.648 20.7787 238.25 20.9452C237.852 21.1246 237.37 21.2143 236.805 21.2143C236.111 21.2143 235.539 21.0669 235.09 20.7723C234.64 20.4777 234.345 19.9332 234.204 19.139L233.857 17.2174C233.767 16.6793 233.658 16.2117 233.529 15.8146C233.401 15.4047 233.221 15.0844 232.99 14.8538C232.771 14.6104 232.463 14.4887 232.065 14.4887H229.984L229.945 14.1621Z" fill="white"/>
    <path d="M247.621 7.302L252.303 19.3311C252.483 19.7923 252.682 20.1126 252.901 20.2919C253.132 20.4584 253.337 20.5481 253.517 20.5609V20.9452C253.132 20.9196 252.676 20.9068 252.149 20.9068C251.635 20.894 251.115 20.8876 250.589 20.8876C249.998 20.8876 249.439 20.894 248.912 20.9068C248.386 20.9068 247.968 20.9196 247.66 20.9452V20.5609C248.315 20.5353 248.726 20.4264 248.893 20.2343C249.073 20.0293 249.034 19.6001 248.777 18.9468L245.502 10.0114L245.849 9.51182L242.92 17.1213C242.56 18.0693 242.38 18.7867 242.38 19.2735C242.393 19.7603 242.554 20.0933 242.862 20.2727C243.17 20.4392 243.581 20.5353 244.095 20.5609V20.9452C243.671 20.9196 243.267 20.9068 242.881 20.9068C242.496 20.894 242.104 20.8876 241.706 20.8876C241.423 20.8876 241.154 20.894 240.897 20.9068C240.653 20.9068 240.434 20.9196 240.242 20.9452V20.5609C240.511 20.5097 240.788 20.3367 241.07 20.0421C241.353 19.7475 241.629 19.2478 241.899 18.5433L246.292 7.302C246.497 7.31481 246.716 7.32122 246.947 7.32122C247.191 7.32122 247.416 7.31481 247.621 7.302ZM248.97 15.4111V15.7954H243.228L243.421 15.4111H248.97Z" fill="white"/>
    <path d="M265.977 7.34043C265.925 7.99377 265.887 8.62149 265.861 9.22359C265.848 9.82568 265.842 10.2869 265.842 10.6071C265.842 10.889 265.848 11.158 265.861 11.4142C265.874 11.6704 265.887 11.8882 265.9 12.0675H265.456C265.251 10.9914 264.988 10.1395 264.666 9.51182C264.358 8.88411 263.986 8.44214 263.549 8.18593C263.112 7.91691 262.598 7.7824 262.007 7.7824H261.564V18.7546C261.564 19.2671 261.616 19.6514 261.718 19.9076C261.834 20.1638 262.04 20.3367 262.335 20.4264C262.63 20.5033 263.061 20.5481 263.626 20.5609V20.9452C263.228 20.9324 262.695 20.9196 262.027 20.9068C261.372 20.894 260.684 20.8876 259.965 20.8876C259.259 20.8876 258.591 20.894 257.961 20.9068C257.332 20.9196 256.824 20.9324 256.439 20.9452V20.5609C257.017 20.5481 257.454 20.5033 257.749 20.4264C258.045 20.3367 258.244 20.1638 258.347 19.9076C258.449 19.6514 258.501 19.2671 258.501 18.7546V7.7824H258.077C257.486 7.7824 256.972 7.91691 256.535 8.18593C256.099 8.44214 255.726 8.88411 255.418 9.51182C255.109 10.1267 254.84 10.9786 254.609 12.0675H254.165C254.191 11.8882 254.204 11.6704 254.204 11.4142C254.217 11.158 254.223 10.889 254.223 10.6071C254.223 10.2869 254.21 9.82568 254.185 9.22359C254.172 8.62149 254.14 7.99377 254.088 7.34043C254.679 7.35324 255.321 7.36605 256.015 7.37887C256.722 7.39168 257.428 7.39808 258.135 7.39808C258.841 7.39808 259.477 7.39808 260.042 7.39808C260.62 7.39808 261.256 7.39808 261.95 7.39808C262.656 7.39808 263.363 7.39168 264.069 7.37887C264.776 7.36605 265.411 7.35324 265.977 7.34043Z" fill="white"/>
</svg>
