<svg width="261" height="39" viewBox="0 0 261 39" fill="none" xmlns="http://www.w3.org/2000/svg">
    <path d="M33.7817 22.4511C35.3059 22.611 37.2988 23.6955 38.7604 22.5588C36.6773 22.1834 34.6219 21.1094 32.702 20.3898C34.6705 19.5765 37.2745 21.2275 39 19.5035C36.8787 19.4583 34.6879 18.7214 32.6776 18.3078C34.4969 17.1989 37.3265 18.4225 38.7604 16.4481C36.6565 16.7366 34.3789 16.3508 32.327 16.2604C33.9518 14.8701 36.9377 15.6417 38.0452 13.4797C36.0142 14.0984 33.7019 14.0706 31.6638 14.3035C33.0526 12.6837 36.1183 12.9722 36.8717 10.6503C34.9587 11.5749 32.6742 11.9155 30.6952 12.4612C31.8131 10.6433 34.8893 10.4487 35.2712 8.03636C33.5352 9.25294 31.3236 9.94465 29.4557 10.7928C30.2751 8.82193 33.2748 8.14759 33.2748 5.70749C31.7437 7.17781 29.6744 8.20669 27.9628 9.33984C28.4627 7.25428 31.3305 6.12808 30.9486 3.71578C29.6675 5.41203 27.7822 6.75027 26.2685 8.13717C26.4386 6.00989 29.0912 4.43877 28.3516 2.11685C27.3517 3.9869 25.6991 5.59278 24.4214 7.21257C24.2583 5.08529 26.6296 3.11791 25.5255 0.955882C24.8311 2.96497 23.4424 4.82112 22.439 6.60775C21.946 4.52219 23.9805 2.21765 22.5466 0.239839C22.1751 2.3254 21.1023 4.38316 20.3836 6.30535C19.5712 4.33449 21.2203 1.72754 19.4983 0C19.4531 2.1238 18.7171 4.31711 18.3039 6.32968C17.1964 4.50829 18.4185 1.6754 16.4465 0.239839C16.7346 2.34626 16.3492 4.62995 16.259 6.68075C14.8702 5.05401 15.641 2.06471 13.4814 0.955882C14.096 2.98931 14.0717 5.30428 14.3043 7.34465C12.6864 5.95428 12.9745 2.88503 10.6553 2.13075C11.5788 4.04251 11.9191 6.33316 12.4642 8.31096C10.631 7.1639 10.4227 4.08422 8.02706 3.70187C9.23876 5.43984 9.93314 7.65401 10.7803 9.52406C8.81172 8.70374 8.13817 5.70053 5.70088 5.70053C7.1695 7.23342 8.19719 9.30508 9.32903 11.0187C7.24588 10.5182 6.12098 7.65053 3.71147 8.02941C5.4023 9.31203 6.74246 11.1995 8.12775 12.715C6.00294 12.5447 4.43363 9.88904 2.1144 10.6294C3.98228 11.6305 5.58631 13.285 7.20422 14.5642C5.07941 14.7275 3.11431 12.3535 0.954776 13.4588C2.96154 14.154 4.81554 15.5444 6.60011 16.5524C4.51696 17.046 2.21508 15.0056 0.239562 16.4412C2.32271 16.8131 4.37808 17.8872 6.29805 18.6102C4.32948 19.4201 1.72554 17.769 0 19.4965C2.12134 19.5382 4.31212 20.2786 6.32235 20.6888C4.50307 21.7976 1.67346 20.5741 0.239562 22.5519C2.34354 22.2599 4.62112 22.6457 6.67302 22.7396C5.04816 24.1299 2.06232 23.3548 0.954776 25.5203C2.98585 24.9051 5.29814 24.9294 7.33615 24.6965C5.94739 26.3163 2.88169 26.0278 2.12828 28.3497C4.03784 27.4251 6.32583 27.088 8.30134 26.5388C7.18339 28.3567 4.10727 28.5513 3.72536 30.9636C5.46132 29.7505 7.67293 29.0588 9.54082 28.2072C8.72145 30.1781 5.72171 30.8524 5.72171 33.2925C7.25283 31.8222 9.32209 30.7933 11.0337 29.6602C10.5338 31.7457 7.66598 32.8719 8.04789 35.2842C9.32903 33.5914 11.2143 32.2497 12.728 30.8628C12.5579 32.9901 9.90537 34.5612 10.6449 36.8866C11.6448 35.0131 13.2974 33.3933 14.5751 31.7874C14.7383 33.9147 12.367 35.8821 13.471 38.0441C14.1654 36.0385 15.5542 34.1789 16.5576 32.3923C17.0506 34.4778 15.016 36.7824 16.4499 38.7602C16.8214 36.6746 17.8942 34.6168 18.6129 32.6947C19.4254 34.669 17.7762 37.2725 19.5017 39C19.5434 36.8762 20.2794 34.6829 20.6926 32.6703C21.8001 34.4917 20.578 37.3246 22.5501 38.7602C22.2619 36.6537 22.6473 34.3735 22.741 32.3227C24.1298 33.946 23.3556 36.9353 25.5186 38.0441C24.904 36.0107 24.9283 33.6957 24.6957 31.6553C26.3136 33.0457 26.0255 36.115 28.3447 36.8693C27.4212 34.954 27.0809 32.6668 26.5358 30.6856C28.3516 31.8048 28.5461 34.8845 30.9556 35.2668C29.7439 33.5289 29.0495 31.3147 28.2023 29.4447C30.1709 30.265 30.8445 33.2682 33.2818 33.2682C31.8131 31.7388 30.7855 29.6636 29.6536 27.95C31.7368 28.4505 32.8617 31.3217 35.2712 30.9393C33.5803 29.6567 32.2402 27.7693 30.8549 26.2537C32.9797 26.4241 34.549 29.0797 36.8717 28.3393C35.0004 27.3382 33.3824 25.6837 31.7784 24.4046C33.9032 24.2412 35.8683 26.6152 38.0279 25.5099C36.0246 24.8147 34.1671 23.4243 32.3825 22.4198C32.8371 22.295 33.3168 22.295 33.7713 22.4198M26.8518 24.0118L23.6298 22.6214L22.3313 25.8853L21.0467 22.6561L17.8248 24.0465L19.2136 20.8243L15.9569 19.5243L19.2136 18.2243L17.8248 14.9987L21.0467 16.389L22.3418 13.1251L23.6403 16.3856L26.8622 14.9952L25.4734 18.2209L28.7301 19.5209L25.4734 20.8209L26.8518 24.0118ZM22.1057 9.22513C16.5194 9.22513 11.6899 13.5805 11.6899 19.4479C11.6899 25.3152 16.5992 29.6671 22.1057 29.6671C24.7594 29.6684 27.3178 28.6766 29.2786 26.8864C27.3934 29.9348 22.682 32.1246 19.9913 32.1246H18.0609C17.1471 32.0025 16.2416 31.8249 15.3493 31.5928C13.4605 31.0131 11.7299 30.0071 10.2908 28.6521C8.0097 26.5666 6.36402 22.6979 6.36402 20.2682V18.6067C6.36402 17.5083 6.9959 15.3497 7.36393 14.4703C7.91158 13.1236 8.70648 11.8915 9.70747 10.838C12.6378 7.8 15.9777 6.75722 19.0296 6.75722C21.5704 6.74569 24.0548 7.5069 26.1539 8.94011C27.1955 9.6353 28.6155 10.9214 29.3029 12.0476C27.3533 10.2189 24.7772 9.20868 22.1057 9.22513Z" fill="white"/>
    <path d="M60.4363 11.3043C60.3782 12.0435 60.3347 12.7536 60.3056 13.4348C60.2911 14.1159 60.2839 14.6377 60.2839 15C60.2839 15.3188 60.2911 15.6232 60.3056 15.913C60.3202 16.2029 60.3347 16.4493 60.3492 16.6522H59.8483C59.616 15.4348 59.3184 14.471 58.9555 13.7609C58.607 13.0507 58.186 12.5507 57.6924 12.2609C57.1988 11.9565 56.6181 11.8043 55.9503 11.8043H55.4494V24.2174C55.4494 24.7971 55.5075 25.2319 55.6236 25.5217C55.7543 25.8116 55.9866 26.0072 56.3205 26.1087C56.6544 26.1957 57.1407 26.2464 57.7795 26.2609V26.6957C57.3295 26.6812 56.727 26.6667 55.9721 26.6522C55.2316 26.6377 54.4549 26.6304 53.6419 26.6304C52.8434 26.6304 52.0885 26.6377 51.3771 26.6522C50.6658 26.6667 50.0923 26.6812 49.6568 26.6957V26.2609C50.3101 26.2464 50.8037 26.1957 51.1376 26.1087C51.4715 26.0072 51.6965 25.8116 51.8127 25.5217C51.9288 25.2319 51.9869 24.7971 51.9869 24.2174V11.8043H51.5078C50.84 11.8043 50.2593 11.9565 49.7657 12.2609C49.272 12.5507 48.851 13.0507 48.5026 13.7609C48.1542 14.4565 47.8493 15.4203 47.588 16.6522H47.0871C47.1161 16.4493 47.1307 16.2029 47.1307 15.913C47.1452 15.6232 47.1524 15.3188 47.1524 15C47.1524 14.6377 47.1379 14.1159 47.1089 13.4348C47.0944 12.7536 47.0581 12.0435 47 11.3043C47.6678 11.3188 48.3937 11.3333 49.1777 11.3478C49.9762 11.3623 50.7746 11.3696 51.5731 11.3696C52.3716 11.3696 53.0903 11.3696 53.729 11.3696C54.3823 11.3696 55.101 11.3696 55.8849 11.3696C56.6834 11.3696 57.4819 11.3623 58.2804 11.3478C59.0789 11.3333 59.7975 11.3188 60.4363 11.3043Z" fill="white"/>
    <path d="M67.761 11.2609L73.0527 24.8696C73.256 25.3913 73.481 25.7536 73.7278 25.9565C73.9891 26.1449 74.2214 26.2464 74.4247 26.2609V26.6957C73.9891 26.6667 73.4738 26.6522 72.8785 26.6522C72.2978 26.6377 71.7098 26.6304 71.1146 26.6304C70.4468 26.6304 69.8153 26.6377 69.22 26.6522C68.6248 26.6522 68.153 26.6667 67.8045 26.6957V26.2609C68.5449 26.2319 69.0095 26.1087 69.1982 25.8913C69.4015 25.6594 69.3579 25.1739 69.0676 24.4348L65.3655 14.3261L65.7575 13.7609L62.4474 22.3696C62.0409 23.442 61.8377 24.2536 61.8377 24.8043C61.8522 25.3551 62.0337 25.7319 62.3821 25.9348C62.7305 26.1232 63.1951 26.2319 63.7758 26.2609V26.6957C63.2967 26.6667 62.8394 26.6522 62.4039 26.6522C61.9683 26.6377 61.5255 26.6304 61.0755 26.6304C60.7561 26.6304 60.4512 26.6377 60.1609 26.6522C59.885 26.6522 59.6382 26.6667 59.4204 26.6957V26.2609C59.7253 26.2029 60.0375 26.0072 60.3568 25.6739C60.6762 25.3406 60.9884 24.7754 61.2933 23.9783L66.2584 11.2609C66.4907 11.2754 66.7375 11.2826 66.9988 11.2826C67.2746 11.2826 67.5287 11.2754 67.761 11.2609ZM69.2853 20.4348V20.8696H62.7959L63.0136 20.4348H69.2853Z" fill="white"/>
    <path d="M74.5872 11.3043C74.9501 11.3188 75.4365 11.3333 76.0462 11.3478C76.6705 11.3623 77.2875 11.3696 77.8972 11.3696C78.5941 11.3696 79.2692 11.3623 79.9225 11.3478C80.5758 11.3333 81.0404 11.3261 81.3162 11.3261C83.1164 11.3261 84.4593 11.6449 85.3449 12.2826C86.245 12.9203 86.6951 13.7391 86.6951 14.7391C86.6951 15.2464 86.5426 15.7609 86.2378 16.2826C85.9329 16.8043 85.461 17.2681 84.8223 17.6739C84.1835 18.0797 83.356 18.3768 82.3397 18.5652V18.6087C83.7044 18.7101 84.786 18.9565 85.5845 19.3478C86.3829 19.7391 86.9564 20.2101 87.3048 20.7609C87.6533 21.3116 87.8275 21.8841 87.8275 22.4783C87.8275 23.8406 87.2903 24.8841 86.216 25.6087C85.1562 26.3333 83.6899 26.6957 81.8171 26.6957C81.4686 26.6957 80.9605 26.6884 80.2927 26.6739C79.6394 26.6449 78.8554 26.6304 77.9408 26.6304C77.302 26.6304 76.6705 26.6377 76.0462 26.6522C75.4365 26.6522 74.9501 26.6667 74.5872 26.6957V26.2609C75.0517 26.2319 75.4002 26.1739 75.6324 26.087C75.8647 26 76.0172 25.8261 76.0898 25.5652C76.1769 25.3043 76.2204 24.913 76.2204 24.3913V13.6087C76.2204 13.0725 76.1769 12.6812 76.0898 12.4348C76.0172 12.1739 75.8575 12 75.6107 11.913C75.3784 11.8116 75.0372 11.7536 74.5872 11.7391V11.3043ZM81.0331 11.7391C80.4669 11.7391 80.0967 11.8623 79.9225 12.1087C79.7628 12.3551 79.6829 12.8551 79.6829 13.6087V24.3913C79.6829 25.1449 79.7773 25.6377 79.966 25.8696C80.1548 26.087 80.5613 26.1957 81.1855 26.1957C82.2308 26.1957 82.993 25.8696 83.4721 25.2174C83.9657 24.5507 84.2125 23.6087 84.2125 22.3913C84.2125 21.2754 83.9294 20.413 83.3632 19.8043C82.8115 19.1957 81.8896 18.8913 80.5976 18.8913H78.7465C78.7465 18.8913 78.7465 18.8333 78.7465 18.7174C78.7465 18.587 78.7465 18.5217 78.7465 18.5217H80.6193C81.3017 18.5217 81.8243 18.3623 82.1873 18.0435C82.5502 17.7101 82.8043 17.2754 82.9495 16.7391C83.0946 16.1884 83.1672 15.6014 83.1672 14.9783C83.1672 13.9058 83.0003 13.1014 82.6664 12.5652C82.3324 12.0145 81.788 11.7391 81.0331 11.7391Z" fill="white"/>
    <path d="M96.1942 11.2609L101.486 24.8696C101.689 25.3913 101.914 25.7536 102.161 25.9565C102.422 26.1449 102.655 26.2464 102.858 26.2609V26.6957C102.422 26.6667 101.907 26.6522 101.312 26.6522C100.731 26.6377 100.143 26.6304 99.5478 26.6304C98.88 26.6304 98.2485 26.6377 97.6532 26.6522C97.058 26.6522 96.5862 26.6667 96.2377 26.6957V26.2609C96.9782 26.2319 97.4427 26.1087 97.6315 25.8913C97.8347 25.6594 97.7912 25.1739 97.5008 24.4348L93.7987 14.3261L94.1907 13.7609L90.8806 22.3696C90.4741 23.442 90.2709 24.2536 90.2709 24.8043C90.2854 25.3551 90.4669 25.7319 90.8153 25.9348C91.1637 26.1232 91.6283 26.2319 92.209 26.2609V26.6957C91.7299 26.6667 91.2726 26.6522 90.8371 26.6522C90.4016 26.6377 89.9588 26.6304 89.5087 26.6304C89.1893 26.6304 88.8844 26.6377 88.5941 26.6522C88.3182 26.6522 88.0714 26.6667 87.8537 26.6957V26.2609C88.1585 26.2029 88.4707 26.0072 88.7901 25.6739C89.1095 25.3406 89.4216 24.7754 89.7265 23.9783L94.6916 11.2609C94.9239 11.2754 95.1707 11.2826 95.432 11.2826C95.7078 11.2826 95.9619 11.2754 96.1942 11.2609ZM97.7186 20.4348V20.8696H91.2291L91.4468 20.4348H97.7186Z" fill="white"/>
    <path d="M103.02 11.3043C103.383 11.3188 103.87 11.3333 104.479 11.3478C105.104 11.3623 105.721 11.3696 106.33 11.3696C107.027 11.3696 107.702 11.3623 108.356 11.3478C109.009 11.3333 109.474 11.3261 109.749 11.3261C111.767 11.3261 113.277 11.6594 114.279 12.3261C115.281 12.9783 115.782 13.9058 115.782 15.1087C115.782 15.6014 115.68 16.1014 115.477 16.6087C115.273 17.1014 114.925 17.5652 114.431 18C113.952 18.4203 113.292 18.7609 112.45 19.0217C111.608 19.2681 110.548 19.3913 109.27 19.3913H107.18V18.9565H109.053C109.909 18.9565 110.555 18.7971 110.991 18.4783C111.441 18.1449 111.746 17.7101 111.905 17.1739C112.08 16.6232 112.167 16.0145 112.167 15.3478C112.167 14.2029 111.963 13.3188 111.557 12.6957C111.15 12.058 110.454 11.7391 109.466 11.7391C108.9 11.7391 108.53 11.8623 108.356 12.1087C108.196 12.3551 108.116 12.8551 108.116 13.6087V24.3913C108.116 24.913 108.152 25.3043 108.225 25.5652C108.312 25.8261 108.472 26 108.704 26.087C108.936 26.1739 109.285 26.2319 109.749 26.2609V26.6957C109.357 26.6667 108.864 26.6522 108.269 26.6522C107.673 26.6377 107.071 26.6304 106.461 26.6304C105.764 26.6304 105.104 26.6377 104.479 26.6522C103.87 26.6522 103.383 26.6667 103.02 26.6957V26.2609C103.485 26.2319 103.833 26.1739 104.066 26.087C104.298 26 104.45 25.8261 104.523 25.5652C104.61 25.3043 104.654 24.913 104.654 24.3913V13.6087C104.654 13.0725 104.61 12.6812 104.523 12.4348C104.45 12.1739 104.291 12 104.044 11.913C103.812 11.8116 103.47 11.7536 103.02 11.7391V11.3043ZM107.136 19.0217C107.76 19.0362 108.298 19.0652 108.748 19.1087C109.212 19.1522 109.619 19.1957 109.967 19.2391C110.316 19.2681 110.628 19.2899 110.904 19.3043C112.225 19.4203 113.197 19.7029 113.822 20.1522C114.46 20.6014 114.874 21.2754 115.063 22.1739L115.564 24.413C115.694 24.9928 115.832 25.3986 115.978 25.6304C116.123 25.8623 116.333 25.9783 116.609 25.9783C116.798 25.9638 116.95 25.9203 117.066 25.8478C117.197 25.7609 117.335 25.6377 117.48 25.4783L117.785 25.7391C117.393 26.1884 116.972 26.5072 116.522 26.6957C116.072 26.8986 115.528 27 114.889 27C114.105 27 113.459 26.8333 112.951 26.5C112.442 26.1667 112.109 25.5507 111.949 24.6522L111.557 22.4783C111.455 21.8696 111.332 21.3406 111.187 20.8913C111.042 20.4275 110.838 20.0652 110.577 19.8043C110.33 19.529 109.982 19.3913 109.532 19.3913H107.18L107.136 19.0217Z" fill="white"/>
    <path d="M118.098 11.3043C118.461 11.3188 118.948 11.3333 119.557 11.3478C120.182 11.3623 120.799 11.3696 121.408 11.3696C122.105 11.3696 122.78 11.3623 123.434 11.3478C124.087 11.3333 124.551 11.3261 124.827 11.3261C126.845 11.3261 128.355 11.6594 129.357 12.3261C130.359 12.9783 130.859 13.9058 130.859 15.1087C130.859 15.6014 130.758 16.1014 130.555 16.6087C130.351 17.1014 130.003 17.5652 129.509 18C129.03 18.4203 128.37 18.7609 127.528 19.0217C126.686 19.2681 125.626 19.3913 124.348 19.3913H122.258V18.9565H124.13C124.987 18.9565 125.633 18.7971 126.069 18.4783C126.519 18.1449 126.824 17.7101 126.983 17.1739C127.157 16.6232 127.245 16.0145 127.245 15.3478C127.245 14.2029 127.041 13.3188 126.635 12.6957C126.228 12.058 125.531 11.7391 124.544 11.7391C123.978 11.7391 123.608 11.8623 123.434 12.1087C123.274 12.3551 123.194 12.8551 123.194 13.6087V24.3913C123.194 24.913 123.23 25.3043 123.303 25.5652C123.39 25.8261 123.55 26 123.782 26.087C124.014 26.1739 124.363 26.2319 124.827 26.2609V26.6957C124.435 26.6667 123.942 26.6522 123.346 26.6522C122.751 26.6377 122.149 26.6304 121.539 26.6304C120.842 26.6304 120.182 26.6377 119.557 26.6522C118.948 26.6522 118.461 26.6667 118.098 26.6957V26.2609C118.563 26.2319 118.911 26.1739 119.144 26.087C119.376 26 119.528 25.8261 119.601 25.5652C119.688 25.3043 119.732 24.913 119.732 24.3913V13.6087C119.732 13.0725 119.688 12.6812 119.601 12.4348C119.528 12.1739 119.369 12 119.122 11.913C118.889 11.8116 118.548 11.7536 118.098 11.7391V11.3043ZM122.214 19.0217C122.838 19.0362 123.376 19.0652 123.826 19.1087C124.29 19.1522 124.697 19.1957 125.045 19.2391C125.394 19.2681 125.706 19.2899 125.981 19.3043C127.303 19.4203 128.275 19.7029 128.9 20.1522C129.538 20.6014 129.952 21.2754 130.141 22.1739L130.642 24.413C130.772 24.9928 130.91 25.3986 131.055 25.6304C131.201 25.8623 131.411 25.9783 131.687 25.9783C131.876 25.9638 132.028 25.9203 132.144 25.8478C132.275 25.7609 132.413 25.6377 132.558 25.4783L132.863 25.7391C132.471 26.1884 132.05 26.5072 131.6 26.6957C131.15 26.8986 130.605 27 129.967 27C129.183 27 128.537 26.8333 128.029 26.5C127.52 26.1667 127.186 25.5507 127.027 24.6522L126.635 22.4783C126.533 21.8696 126.41 21.3406 126.265 20.8913C126.119 20.4275 125.916 20.0652 125.655 19.8043C125.408 19.529 125.06 19.3913 124.61 19.3913H122.258L122.214 19.0217Z" fill="white"/>
    <path d="M146.984 11.3043V11.7391C146.52 11.7971 146.164 11.9203 145.917 12.1087C145.685 12.2826 145.532 12.5652 145.46 12.9565C145.387 13.3478 145.351 13.8986 145.351 14.6087V20.3696C145.351 21.3116 145.286 22.1739 145.155 22.9565C145.024 23.7391 144.792 24.413 144.458 24.9783C144.081 25.6014 143.529 26.0942 142.803 26.4565C142.077 26.8188 141.155 27 140.037 27C139.37 27 138.687 26.9203 137.99 26.7609C137.294 26.6159 136.669 26.3333 136.118 25.913C135.653 25.5217 135.297 25.0797 135.051 24.587C134.804 24.0942 134.637 23.5145 134.55 22.8478C134.463 22.1667 134.419 21.3623 134.419 20.4348V13.6087C134.419 13.0725 134.375 12.6812 134.288 12.4348C134.216 12.1739 134.063 12 133.831 11.913C133.599 11.8116 133.25 11.7536 132.786 11.7391V11.3043C133.149 11.3188 133.635 11.3333 134.245 11.3478C134.869 11.3623 135.515 11.3696 136.183 11.3696C136.851 11.3696 137.49 11.3623 138.099 11.3478C138.724 11.3333 139.239 11.3188 139.645 11.3043V11.7391C139.152 11.7536 138.774 11.8116 138.513 11.913C138.266 12 138.099 12.1739 138.012 12.4348C137.925 12.6812 137.881 13.0725 137.881 13.6087V21.8043C137.881 22.7754 137.969 23.5942 138.143 24.2609C138.317 24.913 138.622 25.4058 139.057 25.7391C139.507 26.0725 140.117 26.2391 140.887 26.2391C141.903 26.2391 142.694 26 143.26 25.5217C143.841 25.0435 144.248 24.3841 144.48 23.5435C144.727 22.6884 144.85 21.7101 144.85 20.6087V14.8696C144.85 14.0725 144.799 13.4638 144.698 13.0435C144.596 12.6087 144.393 12.2971 144.088 12.1087C143.798 11.9203 143.347 11.7971 142.738 11.7391V11.3043C143.014 11.3188 143.377 11.3333 143.827 11.3478C144.277 11.3623 144.698 11.3696 145.09 11.3696C145.438 11.3696 145.779 11.3623 146.113 11.3478C146.462 11.3333 146.752 11.3188 146.984 11.3043Z" fill="white"/>
    <path d="M162.39 11.3043V11.7174C161.926 11.8188 161.425 12.0217 160.888 12.3261C160.365 12.6304 159.813 13.1232 159.233 13.8043L155.139 18.6739L156.402 16.8696L161.585 24.9348C161.788 25.2681 162.006 25.5362 162.238 25.7391C162.47 25.942 162.775 26.1159 163.152 26.2609V26.6957C162.644 26.6667 162.078 26.6522 161.454 26.6522C160.83 26.6377 160.263 26.6304 159.755 26.6304C159.45 26.6304 159.08 26.6377 158.645 26.6522C158.209 26.6522 157.657 26.6667 156.99 26.6957V26.2609C157.585 26.2319 157.941 26.1522 158.057 26.0217C158.187 25.8768 158.137 25.6304 157.904 25.2826L154.747 20.1739C154.543 19.8406 154.362 19.5942 154.202 19.4348C154.043 19.2609 153.883 19.1449 153.723 19.087C153.563 19.0145 153.353 18.971 153.092 18.9565V18.5C153.73 18.4855 154.297 18.3116 154.79 17.9783C155.298 17.6449 155.85 17.1377 156.445 16.4565L157.73 14.913C158.282 14.2609 158.601 13.7029 158.688 13.2391C158.79 12.7609 158.695 12.3913 158.405 12.1304C158.129 11.8696 157.701 11.7319 157.12 11.7174V11.3043C157.657 11.3188 158.166 11.3333 158.645 11.3478C159.138 11.3623 159.704 11.3696 160.343 11.3696C161.185 11.3696 161.868 11.3478 162.39 11.3043ZM154.856 11.3043V11.7391C154.391 11.7536 154.035 11.8116 153.788 11.913C153.556 12 153.404 12.1739 153.331 12.4348C153.259 12.6812 153.222 13.0725 153.222 13.6087V24.3913C153.222 24.913 153.259 25.3043 153.331 25.5652C153.418 25.8261 153.578 26 153.81 26.087C154.043 26.1739 154.391 26.2319 154.856 26.2609V26.6957C154.464 26.6667 153.97 26.6522 153.375 26.6522C152.779 26.6377 152.177 26.6304 151.567 26.6304C150.87 26.6304 150.21 26.6377 149.586 26.6522C148.976 26.6522 148.489 26.6667 148.126 26.6957V26.2609C148.591 26.2319 148.939 26.1739 149.172 26.087C149.404 26 149.556 25.8261 149.629 25.5652C149.716 25.3043 149.76 24.913 149.76 24.3913V13.6087C149.76 13.0725 149.716 12.6812 149.629 12.4348C149.556 12.1739 149.397 12 149.15 11.913C148.918 11.8116 148.577 11.7536 148.126 11.7391V11.3043C148.489 11.3188 148.976 11.3333 149.586 11.3478C150.21 11.3623 150.87 11.3696 151.567 11.3696C152.177 11.3696 152.779 11.3623 153.375 11.3478C153.97 11.3333 154.464 11.3188 154.856 11.3043Z" fill="white"/>
    <path d="M179.932 11.3043V11.7391L172.484 26.1957H174.749C175.242 26.1957 175.736 26.1159 176.229 25.9565C176.738 25.7971 177.202 25.5362 177.623 25.1739C178.059 24.8116 178.429 24.3333 178.734 23.7391C179.039 23.1304 179.242 22.3768 179.344 21.4783H179.844C179.801 21.971 179.779 22.6087 179.779 23.3913C179.779 23.7246 179.786 24.1957 179.801 24.8043C179.815 25.413 179.859 26.0435 179.932 26.6957C179.133 26.6667 178.226 26.6522 177.209 26.6522C176.208 26.6377 175.308 26.6304 174.509 26.6304C173.565 26.6304 172.578 26.6377 171.547 26.6522C170.517 26.6522 169.551 26.6667 168.651 26.6957V26.2609L176.121 11.8043H173.769C173.043 11.8043 172.375 11.942 171.765 12.2174C171.155 12.4783 170.647 12.9348 170.241 13.587C169.834 14.2246 169.558 15.1159 169.413 16.2609H168.912C168.941 16.058 168.956 15.8116 168.956 15.5217C168.971 15.2319 168.978 14.9275 168.978 14.6087C168.978 14.2754 168.963 13.8043 168.934 13.1957C168.92 12.587 168.883 11.9565 168.825 11.3043C169.551 11.3333 170.364 11.3551 171.264 11.3696C172.179 11.3696 172.999 11.3696 173.725 11.3696C174.698 11.3696 175.736 11.3696 176.839 11.3696C177.943 11.3551 178.973 11.3333 179.932 11.3043Z" fill="white"/>
    <path d="M188.371 11.3043V11.7391C187.907 11.7536 187.551 11.8116 187.304 11.913C187.072 12 186.92 12.1739 186.847 12.4348C186.774 12.6812 186.738 13.0725 186.738 13.6087V24.3913C186.738 24.913 186.774 25.3043 186.847 25.5652C186.934 25.8261 187.094 26 187.326 26.087C187.558 26.1739 187.907 26.2319 188.371 26.2609V26.6957C187.979 26.6667 187.486 26.6522 186.891 26.6522C186.295 26.6377 185.693 26.6304 185.083 26.6304C184.372 26.6304 183.711 26.6377 183.101 26.6522C182.506 26.6522 182.02 26.6667 181.642 26.6957V26.2609C182.107 26.2319 182.455 26.1739 182.688 26.087C182.92 26 183.072 25.8261 183.145 25.5652C183.232 25.3043 183.276 24.913 183.276 24.3913V13.6087C183.276 13.0725 183.232 12.6812 183.145 12.4348C183.072 12.1739 182.913 12 182.666 11.913C182.434 11.8116 182.092 11.7536 181.642 11.7391V11.3043C182.02 11.3188 182.506 11.3333 183.101 11.3478C183.711 11.3623 184.372 11.3696 185.083 11.3696C185.693 11.3696 186.295 11.3623 186.891 11.3478C187.486 11.3333 187.979 11.3188 188.371 11.3043Z" fill="white"/>
    <path d="M202.526 11.2826V11.7174C202.206 11.8478 201.88 12.1087 201.546 12.5C201.212 12.8768 200.842 13.4565 200.435 14.2391L196.319 22.3696H195.296L190.2 12.9565C189.939 12.4638 189.699 12.1377 189.482 11.9783C189.278 11.8188 189.097 11.7391 188.937 11.7391V11.2826C189.329 11.3261 189.728 11.3551 190.135 11.3696C190.556 11.3841 191.013 11.3913 191.507 11.3913C192.146 11.3913 192.835 11.3841 193.576 11.3696C194.316 11.3406 194.991 11.3116 195.601 11.2826V11.7391C195.238 11.7391 194.911 11.7681 194.621 11.8261C194.33 11.8841 194.127 11.9928 194.011 12.1522C193.895 12.2971 193.924 12.5362 194.098 12.8696L197.539 19.4783L196.864 20.3478L199.107 15.8478C199.644 14.8043 199.927 13.9855 199.956 13.3913C200 12.7971 199.855 12.3768 199.521 12.1304C199.201 11.8696 198.744 11.7319 198.149 11.7174V11.2826C198.642 11.2971 199.107 11.3116 199.542 11.3261C199.978 11.3406 200.421 11.3478 200.871 11.3478C201.19 11.3478 201.488 11.3406 201.764 11.3261C202.054 11.3116 202.308 11.2971 202.526 11.2826ZM197.866 18.9348V24.3913C197.866 24.913 197.902 25.3043 197.974 25.5652C198.062 25.8261 198.221 26 198.454 26.087C198.686 26.1739 199.034 26.2319 199.499 26.2609V26.6957C199.107 26.6667 198.599 26.6522 197.974 26.6522C197.365 26.6377 196.755 26.6304 196.145 26.6304C195.463 26.6304 194.817 26.6377 194.207 26.6522C193.597 26.6522 193.118 26.6667 192.77 26.6957V26.2609C193.234 26.2319 193.583 26.1739 193.815 26.087C194.047 26 194.2 25.8261 194.272 25.5652C194.36 25.3043 194.403 24.913 194.403 24.3913V19.9348L196.298 21.2826L197.866 18.9348Z" fill="white"/>
    <path d="M210.452 11C211.991 11 213.334 11.3116 214.481 11.9348C215.642 12.558 216.542 13.4565 217.181 14.6304C217.82 15.7899 218.139 17.2029 218.139 18.8696C218.139 20.4928 217.813 21.913 217.16 23.1304C216.506 24.3478 215.592 25.2971 214.416 25.9783C213.254 26.6594 211.926 27 210.43 27C208.892 27 207.541 26.6884 206.38 26.0652C205.233 25.442 204.34 24.5435 203.701 23.3696C203.063 22.1957 202.743 20.7826 202.743 19.1304C202.743 17.5072 203.07 16.087 203.723 14.8696C204.391 13.6522 205.298 12.7029 206.445 12.0217C207.607 11.3406 208.942 11 210.452 11ZM210.365 11.3913C209.552 11.3913 208.841 11.7174 208.231 12.3696C207.636 13.0217 207.171 13.9203 206.837 15.0652C206.518 16.2101 206.358 17.5362 206.358 19.0435C206.358 20.5797 206.54 21.9203 206.903 23.0652C207.28 24.1957 207.781 25.0725 208.405 25.6957C209.044 26.3043 209.748 26.6087 210.518 26.6087C211.331 26.6087 212.035 26.2826 212.63 25.6304C213.24 24.9783 213.704 24.0797 214.024 22.9348C214.358 21.7754 214.525 20.4493 214.525 18.9565C214.525 17.4058 214.336 16.0652 213.958 14.9348C213.595 13.8043 213.095 12.9348 212.456 12.3261C211.831 11.7029 211.135 11.3913 210.365 11.3913Z" fill="white"/>
    <path d="M219.645 11.3043C220.008 11.3188 220.495 11.3333 221.105 11.3478C221.729 11.3623 222.346 11.3696 222.956 11.3696C223.652 11.3696 224.327 11.3623 224.981 11.3478C225.634 11.3333 226.099 11.3261 226.375 11.3261C228.393 11.3261 229.902 11.6594 230.904 12.3261C231.906 12.9783 232.407 13.9058 232.407 15.1087C232.407 15.6014 232.305 16.1014 232.102 16.6087C231.899 17.1014 231.55 17.5652 231.057 18C230.577 18.4203 229.917 18.7609 229.075 19.0217C228.233 19.2681 227.173 19.3913 225.895 19.3913H223.805V18.9565H225.678C226.534 18.9565 227.18 18.7971 227.616 18.4783C228.066 18.1449 228.371 17.7101 228.53 17.1739C228.705 16.6232 228.792 16.0145 228.792 15.3478C228.792 14.2029 228.589 13.3188 228.182 12.6957C227.775 12.058 227.079 11.7391 226.091 11.7391C225.525 11.7391 225.155 11.8623 224.981 12.1087C224.821 12.3551 224.741 12.8551 224.741 13.6087V24.3913C224.741 24.913 224.778 25.3043 224.85 25.5652C224.937 25.8261 225.097 26 225.329 26.087C225.562 26.1739 225.91 26.2319 226.375 26.2609V26.6957C225.983 26.6667 225.489 26.6522 224.894 26.6522C224.298 26.6377 223.696 26.6304 223.086 26.6304C222.389 26.6304 221.729 26.6377 221.105 26.6522C220.495 26.6522 220.008 26.6667 219.645 26.6957V26.2609C220.11 26.2319 220.458 26.1739 220.691 26.087C220.923 26 221.075 25.8261 221.148 25.5652C221.235 25.3043 221.279 24.913 221.279 24.3913V13.6087C221.279 13.0725 221.235 12.6812 221.148 12.4348C221.075 12.1739 220.916 12 220.669 11.913C220.437 11.8116 220.096 11.7536 219.645 11.7391V11.3043ZM223.761 19.0217C224.386 19.0362 224.923 19.0652 225.373 19.1087C225.837 19.1522 226.244 19.1957 226.592 19.2391C226.941 19.2681 227.253 19.2899 227.529 19.3043C228.85 19.4203 229.823 19.7029 230.447 20.1522C231.086 20.6014 231.499 21.2754 231.688 22.1739L232.189 24.413C232.32 24.9928 232.458 25.3986 232.603 25.6304C232.748 25.8623 232.958 25.9783 233.234 25.9783C233.423 25.9638 233.575 25.9203 233.692 25.8478C233.822 25.7609 233.96 25.6377 234.105 25.4783L234.41 25.7391C234.018 26.1884 233.597 26.5072 233.147 26.6957C232.697 26.8986 232.153 27 231.514 27C230.73 27 230.084 26.8333 229.576 26.5C229.068 26.1667 228.734 25.5507 228.574 24.6522L228.182 22.4783C228.08 21.8696 227.957 21.3406 227.812 20.8913C227.667 20.4275 227.463 20.0652 227.202 19.8043C226.955 19.529 226.607 19.3913 226.157 19.3913H223.805L223.761 19.0217Z" fill="white"/>
    <path d="M241.997 11.2609L247.289 24.8696C247.492 25.3913 247.717 25.7536 247.964 25.9565C248.225 26.1449 248.457 26.2464 248.661 26.2609V26.6957C248.225 26.6667 247.71 26.6522 247.114 26.6522C246.534 26.6377 245.946 26.6304 245.35 26.6304C244.683 26.6304 244.051 26.6377 243.456 26.6522C242.861 26.6522 242.389 26.6667 242.04 26.6957V26.2609C242.781 26.2319 243.245 26.1087 243.434 25.8913C243.637 25.6594 243.594 25.1739 243.303 24.4348L239.601 14.3261L239.993 13.7609L236.683 22.3696C236.277 23.442 236.074 24.2536 236.074 24.8043C236.088 25.3551 236.27 25.7319 236.618 25.9348C236.966 26.1232 237.431 26.2319 238.012 26.2609V26.6957C237.533 26.6667 237.075 26.6522 236.64 26.6522C236.204 26.6377 235.761 26.6304 235.311 26.6304C234.992 26.6304 234.687 26.6377 234.397 26.6522C234.121 26.6522 233.874 26.6667 233.656 26.6957V26.2609C233.961 26.2029 234.273 26.0072 234.593 25.6739C234.912 25.3406 235.224 24.7754 235.529 23.9783L240.494 11.2609C240.727 11.2754 240.973 11.2826 241.235 11.2826C241.51 11.2826 241.765 11.2754 241.997 11.2609ZM243.521 20.4348V20.8696H237.032L237.249 20.4348H243.521Z" fill="white"/>
    <path d="M261 11.3043C260.942 12.0435 260.898 12.7536 260.869 13.4348C260.855 14.1159 260.848 14.6377 260.848 15C260.848 15.3188 260.855 15.6232 260.869 15.913C260.884 16.2029 260.898 16.4493 260.913 16.6522H260.412C260.18 15.4348 259.882 14.471 259.519 13.7609C259.171 13.0507 258.75 12.5507 258.256 12.2609C257.763 11.9565 257.182 11.8043 256.514 11.8043H256.013V24.2174C256.013 24.7971 256.071 25.2319 256.187 25.5217C256.318 25.8116 256.55 26.0072 256.884 26.1087C257.218 26.1957 257.704 26.2464 258.343 26.2609V26.6957C257.893 26.6812 257.291 26.6667 256.536 26.6522C255.795 26.6377 255.019 26.6304 254.206 26.6304C253.407 26.6304 252.652 26.6377 251.941 26.6522C251.229 26.6667 250.656 26.6812 250.22 26.6957V26.2609C250.874 26.2464 251.367 26.1957 251.701 26.1087C252.035 26.0072 252.26 25.8116 252.376 25.5217C252.493 25.2319 252.551 24.7971 252.551 24.2174V11.8043H252.072C251.404 11.8043 250.823 11.9565 250.329 12.2609C249.836 12.5507 249.415 13.0507 249.066 13.7609C248.718 14.4565 248.413 15.4203 248.152 16.6522H247.651C247.68 16.4493 247.694 16.2029 247.694 15.913C247.709 15.6232 247.716 15.3188 247.716 15C247.716 14.6377 247.702 14.1159 247.673 13.4348C247.658 12.7536 247.622 12.0435 247.564 11.3043C248.232 11.3188 248.957 11.3333 249.741 11.3478C250.54 11.3623 251.338 11.3696 252.137 11.3696C252.935 11.3696 253.654 11.3696 254.293 11.3696C254.946 11.3696 255.665 11.3696 256.449 11.3696C257.247 11.3696 258.046 11.3623 258.844 11.3478C259.643 11.3333 260.361 11.3188 261 11.3043Z" fill="white"/>
</svg>
